{
.appVersion = "3108";
.formatVersion = 3;
DisplayStrings = (
"ᬑᬫ᭄ᬲ᭄ᬯᬯᬲ᭄ᬢ᭄ᬬᬲ᭄ᬢᬸ",
"hundred more",
anfternoon
);
axes = (
{
name = Weight;
tag = wght;
}
);
classes = (
{
code = "aPas-java aiPas-java ePas-java iKawiPas-java iPas-java iiPas-java kaPas-java kaPas-java.base kaSasakPas-java kaSasakPas-java.base kaMurdaPas-java gaPas-java gaMurdaPas-java ngaPas-java caPas-java caPas-java.short caPas_pengkal-java caPas_suku-java caMurdaPas-java jaPas-java jaPas_suku-java nyaMurdaPas-java ttaPas-java ttaPas_pengkal-java ttaPas_suku-java ttaMahapranaPas-java ttaMahapranaPas_suku-java ddaPas-java ddaPas_suku-java ddaMahapranaPas-java naMurdaPas-java taPas-java taMurdaPas-java taPas-java.base daPas-java daMahapranaPas-java naPas-java naPas_suku-java baPas-java baMurdaPas-java maPas-java maPas_suku-java yaPas-java raPas-java raAgungPas-java laPas-java laPas-java.base waPas-java waPas_suku-java saMurdaPas-java ngaLeletPas-java ngaLeletRaswadiPas-java oPas-java uPas-java nyaMurdaPas-java.alt baPas-java.alt pengkal-java.below laPas-java.below
";
name = belowForm;
},
{

glyphs = (
{
glyphname = A;
lastChange = "2022-03-26 12:08:47 +0000";
layers = (
{
anchors = (
{
name = bottom;
pos = (653,0);
},
{
name = ogonek;
pos = (1261,0);
},
{
name = top;
pos = (653,1283);
}
);
layerId = m01;
shapes = (
{
closed = 1;
nodes = (
(1261,0,l),
(1261,46,l),
(1167,56,l),
(1152,68,l),
(682,1283,l),
(638,1274,l),
(578,1131,l),
(972,68,l),
(957,56,l),
(863,46,l),
(863,0,l)
);
},
{
closed = 1;
nodes = (
(333,46,l),
(239,56,l),
(224,68,l),
(682,1283,l),
(628,1283,l),
(154,68,l),
(139,56,l),
(45,46,l),
(45,0,l),
(333,0,l)
);
},
{
closed = 1;
nodes = (
(337,409,l),
(401,429,l),
(841,429,l),
(841,509,l),
(780,489,l),
(337,489,l)
);
}
);
width = 1306;
},
{
anchors = (
{
name = bottom;
pos = (653,0);
},
{
name = ogonek;
pos = (1261,0);
},
{
name = top;
pos = (653,1283);
}
);
layerId = m002;
shapes = (
{
closed = 1;
nodes = (
(1261,0,l),
(1261,46,l),
(1167,56,l),
(1152,68,l),
(682,1283,l),
(638,1274,l),
(578,1131,l),
(972,68,l),
(957,56,l),
(863,46,l),
(863,0,l)
);
},
{
closed = 1;
nodes = (
(333,46,l),
(239,56,l),
(224,68,l),
(682,1283,l),
(628,1283,l),
(154,68,l),
(139,56,l),
(45,46,l),
(45,0,l),
(333,0,l)
);
},
{
closed = 1;
nodes = (
(337,409,l),
(401,429,l),
(841,429,l),
(841,509,l),
(780,489,l),
(337,489,l)
);
}
);
width = 1306;
}
);
metricRight = "=|";
unicode = 65;
},
{
glyphname = B;
lastChange = "2022-03-26 12:25:54 +0000";
layers = (
{
anchors = (
{
name = bottom;
pos = (590,0);
},
{
name = center;
pos = (590,642);
},
{
name = top;
pos = (590,1283);
}
);
layerId = m01;
shapes = (
{
closed = 1;
nodes = (
(493,0,l),
(493,46,l),
(399,56,l),
(384,68,l),
(377,109,o),
(374,165,o),
(374,204,cs),
(374,1079,ls),
(374,1118,o),
(377,1174,o),
(384,1215,c),
(399,1227,l),
(493,1237,l),
(493,1283,l),
(100,1283,l),
(100,1237,l),
(194,1227,l),
(209,1215,l),
(216,1174,o),
(219,1118,o),
(219,1079,cs),
(219,204,ls),
(219,165,o),
(216,109,o),
(209,68,c),
(194,56,l),
(100,46,l),
(100,0,l)
);
},
{
closed = 1;
nodes = (
(351,1215,l),
(621,1216,ls),
(795,1217,o),
(884,1142,o),
(884,985,cs),
(884,946,ls),
(884,787,o),
(795,716,o),
(621,717,cs),
(351,718,l),
(351,670,l),
(621,670,ls),
(893,670,o),
(1049,781,o),
(1049,978,cs),
(1049,1174,o),
(895,1283,o),
(621,1283,cs),
(351,1283,l)
);
},
{
closed = 1;
nodes = (
(351,649,l),
(621,650,ls),
(836,651,o),
(944,561,o),
(944,374,cs),
(944,335,ls),
(944,148,o),
(836,66,o),
(621,67,cs),
(351,68,l),
(351,0,l),
(621,0,ls),
(933,0,o),
(1109,121,o),
(1109,345,cs),
(1109,568,o),
(933,697,o),
(621,697,cs),
(351,697,l)
);
}
);
width = 1189;
},
{
anchors = (
{
name = bottom;
pos = (570,0);
},
{
name = center;
pos = (570,642);
},
{
name = top;
pos = (570,1283);
}
);
layerId = m002;
shapes = (
{
closed = 1;
nodes = (
(473,0,l),
(473,46,l),
(379,56,l),
(364,68,l),
(357,109,o),
(354,165,o),
(354,204,cs),
(354,1079,ls),
(354,1118,o),
(357,1174,o),
(364,1215,c),
(379,1227,l),
(473,1237,l),
(473,1283,l),
(80,1283,l),
(80,1237,l),
(174,1227,l),
(189,1215,l),
(196,1174,o),
(199,1118,o),
(199,1079,cs),
(199,204,ls),
(199,165,o),
(196,109,o),
(189,68,c),
(174,56,l),
(80,46,l),
(80,0,l)
);
},
{
closed = 1;
nodes = (
(331,1215,l),
(601,1216,ls),
(775,1217,o),
(864,1142,o),
(864,985,cs),
(864,946,ls),
(864,787,o),
(775,716,o),
(601,717,cs),
(331,718,l),
(331,670,l),
(601,670,ls),
(873,670,o),
(1029,781,o),
(1029,978,cs),
(1029,1174,o),
(875,1283,o),
(601,1283,cs),
(331,1283,l)
);
},
{
closed = 1;
nodes = (
(331,649,l),
(601,650,ls),
(816,651,o),
(924,561,o),
(924,374,cs),
(924,335,ls),
(924,148,o),
(816,66,o),
(601,67,cs),
(331,68,l),
(331,0,l),
(601,0,ls),
(913,0,o),
(1089,121,o),
(1089,345,cs),
(1089,568,o),
(913,697,o),
(601,697,cs),
(331,697,l)
);
}
);
width = 1169;
}
);
metricLeft = H;
unicode = 66;
},
{
glyphname = C;
lastChange = "2022-03-29 10:46:45 +0000";
layers = (
{
anchors = (
{
name = bottom;
pos = (764,0);
},
{
name = top;
pos = (764,1283);
}
);
background = {
shapes = (
{
closed = 1;
nodes = (
(1059,1285,o),
(949,1303,o),
(838,1303,cs),
(438,1303,o),
(185,1066,o),
(185,641,c),
(350,621,l),
(350,661,ls),
(350,1061,o),
(527,1236,o),
(829,1236,cs),
(885,1236,o),
(951,1230,o),
(1002,1217,c),
(1113,931,l),
(1159,931,l),
(1140,1263,l)
);
}
);
};
layerId = m01;
shapes = (
{
closed = 1;
nodes = (
(906,-20,o),
(1048,7,o),
(1140,40,c),
(1159,352,l),
(1113,352,l),
(1065,145,o),
(986,47,o),
(760,47,cs),
(458,47,o),
(280,223,o),
(280,622,cs),
(280,661,ls),
(280,1060,o),
(458,1236,o),
(760,1236,cs),
(986,1236,o),
(1065,1138,o),
(1113,931,c),
(1159,931,l),
(1140,1243,l),
(1048,1276,o),
(907,1303,o),
(767,1303,cs),
(362,1303,o),
(115,1066,o),
(115,642,cs),
(115,217,o),
(363,-20,o),
(769,-20,cs)
);
}
);
width = 1270;
},
{
associatedMasterId = m01;
background = {
shapes = (
{
closed = 1;
nodes = (
(1070,1263,l),
(989,1285,o),
(879,1303,o),
(768,1303,cs),
(368,1303,o),
(115,1066,o),
(115,641,c),
(280,621,l),
(280,661,ls),
(280,1062,o),
(459,1236,o),
(754,1236,cs),
(870,1236,o),
(984,1208,o),
(1060,1162,c)
);
},
{
closed = 1;
nodes = (
(929,1221,l),
(1043,931,l),
(1089,931,l),
(1070,1263,l)
);
}
);
};
layerId = "B7C1C11A-79CC-42AB-99B5-7ECD18D58D1F";
name = "2 Jan 22 21.12";
shapes = (
{
closed = 1;
nodes = (
(989,1285,o),
(879,1303,o),
(768,1303,cs),
(368,1303,o),
(115,1066,o),
(115,641,c),
(280,621,l),
(280,661,ls),
(280,1061,o),
(457,1236,o),
(759,1236,cs),
(815,1236,o),
(881,1230,o),
(932,1217,c),
(1043,931,l),
(1089,931,l),
(1070,1263,l)
);
}
);
width = 1200;
},
{
anchors = (
{
name = bottom;
pos = (754,0);
},
{
name = top;
pos = (754,1283);
}
);
background = {
shapes = (
{
closed = 1;
nodes = (
(1049,1285,o),
(939,1303,o),
(828,1303,cs),
(428,1303,o),
(175,1066,o),
(175,641,c),
(340,621,l),
(340,661,ls),
(340,1061,o),
(517,1236,o),
(819,1236,cs),
(875,1236,o),
(941,1230,o),
(992,1217,c),
(1103,931,l),
(1149,931,l),
(1130,1263,l)
);
}
);
};
layerId = m002;
shapes = (
{
closed = 1;
nodes = (
(920,-20,o),
(1071,22,o),
(1170,70,c),
(1199,372,l),
(1103,372,l),
(1061,201,o),
(978,97,o),
(769,97,cs),
(517,97,o),
(380,247,o),
(380,622,cs),
(380,661,ls),
(380,1036,o),
(517,1186,o),
(769,1186,cs),
(978,1186,o),
(1061,1082,o),
(1103,911,c),
(1199,911,l),
(1170,1213,l),
(1071,1261,o),
(921,1303,o),
(753,1303,cs),
(354,1303,o),
(105,1066,o),
(105,642,cs),
(105,217,o),
(356,-20,o),
(753,-20,cs)
);
}
);
width = 1280;
},
{
associatedMasterId = m002;
background = {
shapes = (
{
closed = 1;
nodes = (
(1070,1263,l),
(989,1285,o),
(879,1303,o),
(768,1303,cs),
(368,1303,o),
(115,1066,o),
(115,641,c),
(280,621,l),
(280,661,ls),
(280,1062,o),
(459,1236,o),
(754,1236,cs),
(870,1236,o),
(984,1208,o),
(1060,1162,c)
);
},
{
closed = 1;
nodes = (
(929,1221,l),
(1043,931,l),
(1089,931,l),
(1070,1263,l)
);
}
);
};
layerId = "E6DABAC0-409E-4CD6-A919-94172447611F";
name = "2 Jan 22 21.12";
shapes = (
{
closed = 1;
nodes = (
(989,1285,o),
(879,1303,o),
(768,1303,cs),
(368,1303,o),
(115,1066,o),
(115,641,c),
(280,621,l),
(280,661,ls),
(280,1061,o),
(457,1236,o),
(759,1236,cs),
(815,1236,o),
(881,1230,o),
(932,1217,c),
(1043,931,l),
(1089,931,l),
(1070,1263,l)
);
}
);
width = 1200;
}
);
metricLeft = O;
unicode = 67;
},
{
glyphname = D;
lastChange = "2022-03-26 12:08:47 +0000";
layers = (
{
anchors = (
{
name = bottom;
pos = (682,0);
},
{
name = center;
pos = (682,642);
},
{
name = top;
pos = (682,1283);
}
);
layerId = m01;
shapes = (
{
closed = 1;
nodes = (
(503,0,l),
(503,46,l),
(409,56,l),
(394,68,l),
(387,109,o),
(384,165,o),
(384,204,cs),
(384,1079,ls),
(384,1118,o),
(387,1174,o),
(394,1215,c),
(409,1227,l),
(503,1237,l),
(503,1283,l),
(110,1283,l),
(110,1237,l),
(204,1227,l),
(219,1215,l),
(226,1174,o),
(229,1118,o),
(229,1079,cs),
(229,204,ls),
(229,165,o),
(226,109,o),
(219,68,c),
(204,56,l),
(110,46,l),
(110,0,l)
);
},
{
closed = 1;
nodes = (
(341,1215,l),
(625,1216,ls),
(912,1217,o),
(1084,1045,o),
(1084,661,cs),
(1084,622,ls),
(1084,238,o),
(912,66,o),
(625,67,cs),
(341,68,l),
(341,0,l),
(616,0,ls),
(1009,0,o),
(1249,230,o),
(1249,641,cs),
(1249,1053,o),
(1009,1283,o),
(616,1283,cs),
(341,1283,l)
);
}
);
width = 1364;
},
{
anchors = (
{
name = bottom;
pos = (682,0);
},
{
name = center;
pos = (682,642);
},
{
name = top;
pos = (682,1283);
}
);
layerId = m002;
shapes = (
{
closed = 1;
nodes = (
(503,0,l),
(503,46,l),
(409,56,l),
(394,68,l),
(387,109,o),
(384,165,o),
(384,204,cs),
(384,1079,ls),
(384,1118,o),
(387,1174,o),
(394,1215,c),
(409,1227,l),
(503,1237,l),
(503,1283,l),
(110,1283,l),
(110,1237,l),
(204,1227,l),
(219,1215,l),
(226,1174,o),
(229,1118,o),
(229,1079,cs),
(229,204,ls),
(229,165,o),
(226,109,o),
(219,68,c),
(204,56,l),
(110,46,l),
(110,0,l)
);
},
{
closed = 1;
nodes = (
(341,1215,l),
(625,1216,ls),
(912,1217,o),
(1084,1045,o),
(1084,661,cs),
(1084,622,ls),
(1084,238,o),
(912,66,o),
(625,67,cs),
(341,68,l),
(341,0,l),
(616,0,ls),
(1009,0,o),
(1249,230,o),
(1249,641,cs),
(1249,1053,o),
(1009,1283,o),
(616,1283,cs),
(341,1283,l)
);
}
);
width = 1364;
}
);
metricRight = O;
unicode = 68;
},
{
color = 9;
glyphname = E;
lastChange = "2022-03-29 10:35:21 +0000";
layers = (
{
anchors = (
{
name = bottom;
pos = (631,0);
},
{
name = ogonek;
pos = (1054,10);
},
{
name = top;
pos = (631,1283);
},
{
name = topleft;
pos = (10,1283);
}
);
layerId = m01;
shapes = (
{
closed = 1;
nodes = (
(219,214,ls),
(219,175,o),
(216,119,o),
(209,78,c),
(194,66,l),
(100,56,l),
(100,0,l),
(404,0,l),
(404,68,l),
(397,112,o),
(394,172,o),
(394,214,cs),
(394,1069,ls),
(394,1111,o),
(397,1171,o),
(404,1215,c),
(404,1283,l),
(100,1283,l),
(100,1227,l),
(194,1217,l),
(209,1205,l),
(216,1164,o),
(219,1108,o),
(219,1069,cs)
);
},
{
closed = 1;
nodes = (
(1052,951,l),
(1033,1283,l),
(359,1283,l),
(363,1208,l),
(1003,1208,l),
(892,1231,l),
(1006,951,l)
);
},
{
closed = 1;
nodes = (
(912,52,l),
(1023,75,l),
(363,75,l),
(359,0,l),
(1053,0,l),
(1072,342,l),
(1026,342,l)
);
},
{
closed = 1;
nodes = (
(793,476,l),
(793,875,l),
(747,875,l),
(694,692,l),
(727,718,l),
(359,718,l),
(359,643,l),
(727,643,l),
(694,677,l),
(747,476,l)
);
}
);
width = 1172;
},
{
anchors = (
{
name = bottom;
pos = (611,0);
},
{
name = ogonek;
pos = (1034,10);
},
{
name = top;
pos = (611,1283);
},
{
name = topleft;
pos = (-10,1283);
}
);
layerId = m002;
shapes = (
{
closed = 1;
nodes = (
(199,204,ls),
(199,165,o),
(196,109,o),
(189,68,c),
(174,56,l),
(80,46,l),
(80,0,l),
(364,0,l),
(364,58,l),
(357,102,o),
(354,162,o),
(354,204,cs),
(354,1079,ls),
(354,1121,o),
(357,1181,o),
(364,1225,c),
(364,1283,l),
(80,1283,l),
(80,1237,l),
(174,1227,l),
(189,1215,l),
(196,1174,o),
(199,1118,o),
(199,1079,cs)
);
},
{
closed = 1;
nodes = (
(1032,951,l),
(1013,1283,l),
(319,1283,l),
(323,1218,l),
(983,1218,l),
(872,1241,l),
(986,951,l)
);
},
{
closed = 1;
nodes = (
(892,42,l),
(1003,65,l),
(323,65,l),
(319,0,l),
(1033,0,l),
(1052,332,l),
(1006,332,l)
);
},
{
closed = 1;
nodes = (
(773,481,l),
(773,870,l),
(727,870,l),
(674,687,l),
(707,713,l),
(319,713,l),
(319,648,l),
(707,648,l),
(674,672,l),
(727,481,l)
);
}
);
width = 1152;
}
);
metricLeft = H;
unicode = 69;
},
{
glyphname = F;
lastChange = "2022-03-26 12:08:47 +0000";
layers = (
{
anchors = (
{
name = bottom;
pos = (545,0);
},
{
name = top;
pos = (545,1283);
}
);
layerId = m01;
shapes = (
{
closed = 1;
nodes = (
(533,0,l),
(533,46,l),
(409,56,l),
(394,68,l),
(387,109,o),
(384,165,o),
(384,204,cs),
(384,1079,ls),
(384,1121,o),
(387,1181,o),
(394,1225,c),
(394,1283,l),
(110,1283,l),
(110,1237,l),
(204,1227,l),
(219,1215,l),
(226,1174,o),
(229,1118,o),
(229,1079,cs),
(229,204,ls),
(229,165,o),
(226,109,o),
(219,68,c),
(204,56,l),
(110,46,l),
(110,0,l)
);
},
{
closed = 1;
nodes = (
(803,461,l),
(803,850,l),
(757,850,l),
(704,667,l),
(737,693,l),
(349,693,l),
(349,628,l),
(737,628,l),
(704,652,l),
(757,461,l)
);
},
{
closed = 1;
nodes = (
(1072,951,l),
(1053,1283,l),
(349,1283,l),
(353,1218,l),
(1023,1218,l),
(912,1241,l),
(1026,951,l)
);
}
);
width = 1090;
},
{
anchors = (
{
name = bottom;
pos = (545,0);
},
{
name = top;
pos = (545,1283);
}
);
layerId = m002;
shapes = (
{
closed = 1;
nodes = (
(533,0,l),
(533,46,l),
(409,56,l),
(394,68,l),
(387,109,o),
(384,165,o),
(384,204,cs),
(384,1079,ls),
(384,1121,o),
(387,1181,o),
(394,1225,c),
(394,1283,l),
(110,1283,l),
(110,1237,l),
(204,1227,l),
(219,1215,l),
(226,1174,o),
(229,1118,o),
(229,1079,cs),
(229,204,ls),
(229,165,o),
(226,109,o),
(219,68,c),
(204,56,l),
(110,46,l),
(110,0,l)
);
},
{
closed = 1;
nodes = (
(803,461,l),
(803,850,l),
(757,850,l),
(704,667,l),
(737,693,l),
(349,693,l),
(349,628,l),
(737,628,l),
(704,652,l),
(757,461,l)
);
},
{
closed = 1;
nodes = (
(1072,951,l),
(1053,1283,l),
(349,1283,l),
(353,1218,l),
(1023,1218,l),
(912,1241,l),
(1026,951,l)
);
}
);
width = 1090;
}
);
unicode = 70;
},
{
glyphname = G;
lastChange = "2022-03-26 12:08:47 +0000";
layers = (
{
anchors = (
{
name = bottom;
pos = (670,0);
},
{
name = top;
pos = (670,1283);
}
);
layerId = m01;
shapes = (
{
closed = 1;
nodes = (
(1154,60,l),
(1154,405,ls),
(1154,444,o),
(1157,500,o),
(1164,541,c),
(1179,553,l),
(1273,563,l),
(1273,609,l),
(780,609,l),
(780,563,l),
(974,553,l),
(989,541,l),
(996,500,o),
(999,444,o),
(999,405,cs),
(999,60,l)
);
},
{
closed = 1;
nodes = (
(1110,133,l),
(1051,80,o),
(928,47,o),
(777,47,cs),
(442,47,o),
(260,209,o),
(260,622,cs),
(260,661,ls),
(260,1060,o),
(442,1236,o),
(750,1236,cs),
(982,1236,o),
(1064,1138,o),
(1113,931,c),
(1159,931,l),
(1140,1243,l),
(1046,1276,o),
(900,1303,o),
(760,1303,cs),
(346,1303,o),
(95,1066,o),
(95,643,cs),
(95,217,o),
(349,-20,o),
(752,-20,cs),
(907,-20,o),
(1053,15,o),
(1154,60,c)
);
}
);
width = 1340;
},
{
anchors = (
{
name = bottom;
pos = (670,0);
},
{
name = top;
pos = (670,1283);
}
);
layerId = m002;
shapes = (
{
closed = 1;
nodes = (
(1154,60,l),
(1154,405,ls),
(1154,444,o),
(1157,500,o),
(1164,541,c),
(1179,553,l),
(1273,563,l),
(1273,609,l),
(780,609,l),
(780,563,l),
(974,553,l),
(989,541,l),
(996,500,o),
(999,444,o),
(999,405,cs),
(999,60,l)
);
},
{
closed = 1;
nodes = (
(1110,133,l),
(1051,80,o),
(928,47,o),
(777,47,cs),
(442,47,o),
(260,209,o),
(260,622,cs),
(260,661,ls),
(260,1060,o),
(442,1236,o),
(750,1236,cs),
(982,1236,o),
(1064,1138,o),
(1113,931,c),
(1159,931,l),
(1140,1243,l),
(1046,1276,o),
(900,1303,o),
(760,1303,cs),
(346,1303,o),
(95,1066,o),
(95,643,cs),
(95,217,o),
(349,-20,o),
(752,-20,cs),
(907,-20,o),
(1053,15,o),
(1154,60,c)
);
}
);
width = 1340;
}
);
unicode = 71;
},
{
color = 9;
glyphname = H;
lastChange = "2022-03-29 10:42:29 +0000";
layers = (
{
anchors = (
{
name = bottom;
pos = (714,0);
},
{
name = center;
pos = (714,642);
},
{
name = top;
pos = (714,1283);
},
{
name = topleft;
pos = (20,1283);
}
);
layerId = m01;
shapes = (
{
closed = 1;
nodes = (
(1338,0,l),
(1338,56,l),
(1244,66,l),
(1229,78,l),
(1222,119,o),
(1219,175,o),
(1219,214,cs),
(1219,1069,ls),
(1219,1108,o),
(1222,1164,o),
(1229,1205,c),
(1244,1217,l),
(1338,1227,l),
(1338,1283,l),
(925,1283,l),
(925,1227,l),
(1019,1217,l),
(1034,1205,l),
(1041,1164,o),
(1044,1108,o),
(1044,1069,cs),
(1044,214,ls),
(1044,175,o),
(1041,119,o),
(1034,78,c),
(1019,66,l),
(925,56,l),
(925,0,l)
);
},
{
closed = 1;
nodes = (
(513,0,l),
(513,56,l),
(419,66,l),
(404,78,l),
(397,119,o),
(394,175,o),
(394,214,cs),
(394,1069,ls),
(394,1108,o),
(397,1164,o),
(404,1205,c),
(419,1217,l),
(513,1227,l),
(513,1283,l),
(100,1283,l),
(100,1227,l),
(194,1217,l),
(209,1205,l),
(216,1164,o),
(219,1108,o),
(219,1069,cs),
(219,214,ls),
(219,175,o),
(216,119,o),
(209,78,c),
(194,66,l),
(100,56,l),
(100,0,l)
);
},
{
closed = 1;
nodes = (
(433,614,l),
(1083,614,l),
(1083,709,l),
(1012,689,l),
(359,689,l),
(359,594,l)
);
}
);
width = 1438;
},
{
anchors = (
{
name = bottom;
pos = (784,0);
},
{
name = center;
pos = (784,642);
},
{
name = top;
pos = (784,1283);
},
{
name = topleft;
pos = (90,1283);
}
);
layerId = m002;
shapes = (
{
closed = 1;
nodes = (
(1418,0,l),
(1418,96,l),
(1324,106,l),
(1309,118,l),
(1302,159,o),
(1299,215,o),
(1299,254,cs),
(1299,1029,ls),
(1299,1068,o),
(1302,1124,o),
(1309,1165,c),
(1324,1177,l),
(1418,1187,l),
(1418,1283,l),
(915,1283,l),
(915,1187,l),
(1009,1177,l),
(1024,1165,l),
(1031,1124,o),
(1034,1068,o),
(1034,1029,cs),
(1034,254,ls),
(1034,215,o),
(1031,159,o),
(1024,118,c),
(1009,106,l),
(915,96,l),
(915,0,l)
);
},
{
closed = 1;
nodes = (
(583,0,l),
(583,96,l),
(489,106,l),
(474,118,l),
(467,159,o),
(464,215,o),
(464,254,cs),
(464,1029,ls),
(464,1068,o),
(467,1124,o),
(474,1165,c),
(489,1177,l),
(583,1187,l),
(583,1283,l),
(80,1283,l),
(80,1187,l),
(174,1177,l),
(189,1165,l),
(196,1124,o),
(199,1068,o),
(199,1029,cs),
(199,254,ls),
(199,215,o),
(196,159,o),
(189,118,c),
(174,106,l),
(80,96,l),
(80,0,l)
);
},
{
closed = 1;
nodes = (
(503,594,l),
(1073,594,l),
(1073,729,l),
(992,709,l),
(429,709,l),
(429,574,l)
);
}
);
width = 1498;
}
);
metricRight = "=|";
unicode = 72;
},
{
glyphname = I;
lastChange = "2022-03-26 12:25:54 +0000";
layers = (
{
anchors = (
{
name = bottom;
pos = (297,0);
},
{
name = ogonek;
pos = (542,10);
},
{
name = top;
pos = (297,1283);
},
{
name = topleft;
pos = (10,1283);
}
);
layerId = m01;
shapes = (
{
closed = 1;
nodes = (
(493,0,l),
(493,46,l),
(399,56,l),
(384,68,l),
(377,109,o),
(374,165,o),
(374,204,cs),
(374,1079,ls),
(374,1118,o),
(377,1174,o),
(384,1215,c),
(399,1227,l),
(493,1237,l),
(493,1283,l),
(100,1283,l),
(100,1237,l),
(194,1227,l),
(209,1215,l),
(216,1174,o),
(219,1118,o),
(219,1079,cs),
(219,204,ls),
(219,165,o),
(216,109,o),
(209,68,c),
(194,56,l),
(100,46,l),
(100,0,l)
);
}
);
width = 593;
},
{
anchors = (
{
name = bottom;
pos = (277,0);
},
{
name = ogonek;
pos = (522,10);
},
{
name = top;
pos = (277,1283);
},
{
name = topleft;
pos = (-10,1283);
}
);
layerId = m002;
shapes = (
{
closed = 1;
nodes = (
(473,0,l),
(473,46,l),
(379,56,l),
(364,68,l),
(357,109,o),
(354,165,o),
(354,204,cs),
(354,1079,ls),
(354,1118,o),
(357,1174,o),
(364,1215,c),
(379,1227,l),
(473,1237,l),
(473,1283,l),
(80,1283,l),
(80,1237,l),
(174,1227,l),
(189,1215,l),
(196,1174,o),
(199,1118,o),
(199,1079,cs),
(199,204,ls),
(199,165,o),
(196,109,o),
(189,68,c),
(174,56,l),
(80,46,l),
(80,0,l)
);
}
);
width = 553;
}
);
metricLeft = H;
metricRight = "=|";
unicode = 73;
},
{
glyphname = J;
lastChange = "2022-03-26 12:08:47 +0000";
layers = (
{
anchors = (
{
name = bottom;
pos = (282,-60);
},
{
name = top;
pos = (292,1283);
}
);
layerId = m01;
shapes = (
{
closed = 1;
nodes = (
(239,1079,ls),
(239,1118,o),
(236,1174,o),
(229,1215,c),
(214,1227,l),
(120,1237,l),
(120,1283,l),
(513,1283,l),
(513,1237,l),
(419,1227,l),
(404,1215,l),
(397,1174,o),
(394,1118,o),
(394,1079,cs),
(394,224,ls),
(394,-6,o),
(274,-130,o),
(27,-191,c),
(12,-154,l),
(167,-86,o),
(239,-2,o),
(239,184,cs)
);
}
);
width = 583;
},
{
anchors = (
{
name = bottom;
pos = (282,-60);
},
{
name = top;
pos = (292,1283);
}
);
layerId = m002;
shapes = (
{
closed = 1;
nodes = (
(239,1079,ls),
(239,1118,o),
(236,1174,o),
(229,1215,c),
(214,1227,l),
(120,1237,l),
(120,1283,l),
(513,1283,l),
(513,1237,l),
(419,1227,l),
(404,1215,l),
(397,1174,o),
(394,1118,o),
(394,1079,cs),
(394,224,ls),
(394,-6,o),
(274,-130,o),
(27,-191,c),
(12,-154,l),
(167,-86,o),
(239,-2,o),
(239,184,cs)
);
}
);
width = 583;
}
);
unicode = 74;
},
{
glyphname = K;
lastChange = "2022-03-26 12:25:54 +0000";
layers = (
{
anchors = (
{
name = bottom;
pos = (661,0);
},
{
name = top;
pos = (661,1283);
}
);
layerId = m01;
shapes = (
{
closed = 1;
nodes = (
(493,0,l),
(493,46,l),
(399,56,l),
(384,68,l),
(377,109,o),
(374,165,o),
(374,204,cs),
(374,1079,ls),
(374,1118,o),
(377,1174,o),
(384,1215,c),
(399,1227,l),
(493,1237,l),
(493,1283,l),
(100,1283,l),
(100,1237,l),
(194,1227,l),
(209,1215,l),
(216,1174,o),
(219,1118,o),
(219,1079,cs),
(219,204,ls),
(219,165,o),
(216,109,o),
(209,68,c),
(194,56,l),
(100,46,l),
(100,0,l)
);
},
{
closed = 1;
nodes = (
(470,685,l),
(836,204,ls),
(862,170,o),
(909,109,o),
(934,68,c),
(919,56,l),
(825,46,l),
(825,0,l),
(1231,0,l),
(1231,46,l),
(1137,56,l),
(1122,68,l),
(1081,109,o),
(1031,169,o),
(1004,204,cs),
(639,685,l)
);
},
{
closed = 1;
nodes = (
(974,1087,ls),
(1018,1139,o),
(1059,1176,o),
(1102,1215,c),
(1117,1227,l),
(1201,1237,l),
(1201,1283,l),
(881,1283,l),
(881,1237,l),
(975,1227,l),
(990,1215,l),
(965,1176,o),
(937,1149,o),
(886,1087,cs),
(550,685,l),
(639,685,l)
);
}
);
width = 1331;
},
{
anchors = (
{
name = bottom;
pos = (641,0);
},
{
name = top;
pos = (641,1283);
}
);
layerId = m002;
shapes = (
{
closed = 1;
nodes = (
(473,0,l),
(473,46,l),
(379,56,l),
(364,68,l),
(357,109,o),
(354,165,o),
(354,204,cs),
(354,1079,ls),
(354,1118,o),
(357,1174,o),
(364,1215,c),
(379,1227,l),
(473,1237,l),
(473,1283,l),
(80,1283,l),
(80,1237,l),
(174,1227,l),
(189,1215,l),
(196,1174,o),
(199,1118,o),
(199,1079,cs),
(199,204,ls),
(199,165,o),
(196,109,o),
(189,68,c),
(174,56,l),
(80,46,l),
(80,0,l)
);
},
{
closed = 1;
nodes = (
(450,685,l),
(816,204,ls),
(842,170,o),
(889,109,o),
(914,68,c),
(899,56,l),
(805,46,l),
(805,0,l),
(1211,0,l),
(1211,46,l),
(1117,56,l),
(1102,68,l),
(1061,109,o),
(1011,169,o),
(984,204,cs),
(619,685,l)
);
},
{
closed = 1;
nodes = (
(954,1087,ls),
(998,1139,o),
(1039,1176,o),
(1082,1215,c),
(1097,1227,l),
(1181,1237,l),
(1181,1283,l),
(861,1283,l),
(861,1237,l),
(955,1227,l),
(970,1215,l),
(945,1176,o),
(917,1149,o),
(866,1087,cs),
(530,685,l),
(619,685,l)
);
}
);
width = 1311;
}
);
metricLeft = H;
unicode = 75;
},
{
glyphname = L;
lastChange = "2022-03-26 12:08:47 +0000";
layers = (
{
anchors = (
{
name = bottom;
pos = (660,0);
},
{
name = center;
pos = (580,642);
},
{
name = top;
pos = (580,1283);
},
{
name = topright;
pos = (1140,1283);
}
);
layerId = m01;
shapes = (
{
closed = 1;
nodes = (
(922,42,l),
(1033,65,l),
(353,65,l),
(349,0,l),
(1063,0,l),
(1082,432,l),
(1036,432,l)
);
},
{
closed = 1;
nodes = (
(384,1079,ls),
(384,1118,o),
(387,1174,o),
(394,1215,c),
(409,1227,l),
(503,1237,l),
(503,1283,l),
(110,1283,l),
(110,1237,l),
(204,1227,l),
(219,1215,l),
(226,1174,o),
(229,1118,o),
(229,1079,cs),
(229,204,ls),
(229,165,o),
(226,109,o),
(219,68,c),
(204,56,l),
(110,46,l),
(110,0,l),
(394,0,l),
(394,58,l),
(387,102,o),
(384,162,o),
(384,204,cs)
);
}
);
width = 1160;
},
{
anchors = (
{
name = bottom;
pos = (660,0);
},
{
name = center;
pos = (580,642);
},
{
name = top;
pos = (580,1283);
},
{
name = topright;
pos = (1140,1283);
}
);
layerId = m002;
shapes = (
{
closed = 1;
nodes = (
(922,42,l),
(1033,65,l),
(353,65,l),
(349,0,l),
(1063,0,l),
(1082,432,l),
(1036,432,l)
);
},
{
closed = 1;
nodes = (
(384,1079,ls),
(384,1118,o),
(387,1174,o),
(394,1215,c),
(409,1227,l),
(503,1237,l),
(503,1283,l),
(110,1283,l),
(110,1237,l),
(204,1227,l),
(219,1215,l),
(226,1174,o),
(229,1118,o),
(229,1079,cs),
(229,204,ls),
(229,165,o),
(226,109,o),
(219,68,c),
(204,56,l),
(110,46,l),
(110,0,l),
(394,0,l),
(394,58,l),
(387,102,o),
(384,162,o),
(384,204,cs)
);
}
);
width = 1160;
}
);
unicode = 76;
},
{
color = 9;
glyphname = O;
lastChange = "2022-03-29 10:45:43 +0000";
layers = (
{
anchors = (
{
name = bottom;
pos = (715,0);
},
{
name = center;
pos = (715,642);
},
{
name = ogonek;
pos = (1287,10);
},
{
name = top;
pos = (715,1283);
},
{
name = topleft;
pos = (20,1283);
},
{
name = topright;
pos = (1410,1283);
}
);
layerId = m01;
shapes = (
{
closed = 1;
nodes = (
(1053,-20,o),
(1315,216,o),
(1315,641,cs),
(1315,1066,o),
(1053,1303,o),
(718,1303,cs),
(384,1303,o),
(115,1066,o),
(115,641,cs),
(115,216,o),
(384,-20,o),
(718,-20,cs)
);
},
{
closed = 1;
nodes = (
(480,57,o),
(300,225,o),
(300,621,cs),
(300,661,ls),
(300,1055,o),
(479,1226,o),
(717,1226,cs),
(958,1226,o),
(1130,1055,o),
(1130,661,cs),
(1130,621,ls),
(1130,228,o),
(958,57,o),
(717,57,cs)
);
}
);
width = 1430;
},
{
anchors = (
{
name = bottom;
pos = (755,0);
},
{
name = center;
pos = (755,642);
},
{
name = ogonek;
pos = (1327,10);
},
{
name = top;
pos = (755,1283);
},
{
name = topleft;
pos = (60,1283);
},
{
name = topright;
pos = (1450,1283);
}
);
layerId = m002;
shapes = (
{
closed = 1;
nodes = (
(1106,-20,o),
(1385,196,o),
(1385,641,cs),
(1385,1086,o),
(1106,1303,o),
(748,1303,cs),
(391,1303,o),
(105,1086,o),
(105,641,cs),
(105,196,o),
(391,-20,o),
(748,-20,cs)
);
},
{
closed = 1;
nodes = (
(538,97,o),
(380,223,o),
(380,621,cs),
(380,661,ls),
(380,1057,o),
(538,1186,o),
(747,1186,cs),
(959,1186,o),
(1110,1057,o),
(1110,661,cs),
(1110,621,ls),
(1110,226,o),
(959,97,o),
(747,97,cs)
);
}
);
width = 1490;
}
);
metricRight = "=|";
unicode = 79;
},
{
glyphname = P;
lastChange = "2022-03-26 12:08:47 +0000";
layers = (
{
anchors = (
{
name = bottom;
pos = (535,0);
},
{
name = top;
pos = (535,1283);
}
);
layerId = m01;
shapes = (
{
closed = 1;
nodes = (
(523,0,l),
(523,46,l),
(409,56,l),
(394,68,l),
(387,109,o),
(384,165,o),
(384,204,cs),
(384,1079,ls),
(384,1118,o),
(387,1174,o),
(394,1215,c),
(409,1227,l),
(503,1237,l),
(503,1283,l),
(110,1283,l),
(110,1237,l),
(204,1227,l),
(219,1215,l),
(226,1174,o),
(229,1118,o),
(229,1079,cs),
(229,204,ls),
(229,165,o),
(226,109,o),
(219,68,c),
(204,56,l),
(110,46,l),
(110,0,l)
);
},
{
closed = 1;
nodes = (
(361,1215,l),
(621,1216,ls),
(798,1217,o),
(874,1129,o),
(874,949,cs),
(874,910,ls),
(874,703,o),
(783,616,o),
(571,617,cs),
(361,618,l),
(361,560,l),
(571,560,ls),
(880,560,o),
(1039,690,o),
(1039,929,cs),
(1039,1153,o),
(897,1283,o),
(621,1283,cs),
(361,1283,l)
);
}
);
width = 1070;
},
{
anchors = (
{
name = bottom;
pos = (535,0);
},
{
name = top;
pos = (535,1283);
}
);
layerId = m002;
shapes = (
{
closed = 1;
nodes = (
(523,0,l),
(523,46,l),
(409,56,l),
(394,68,l),
(387,109,o),
(384,165,o),
(384,204,cs),
(384,1079,ls),
(384,1118,o),
(387,1174,o),
(394,1215,c),
(409,1227,l),
(503,1237,l),
(503,1283,l),
(110,1283,l),
(110,1237,l),
(204,1227,l),
(219,1215,l),
(226,1174,o),
(229,1118,o),
(229,1079,cs),
(229,204,ls),
(229,165,o),
(226,109,o),
(219,68,c),
(204,56,l),
(110,46,l),
(110,0,l)
);
},
{
closed = 1;
nodes = (
(361,1215,l),
(621,1216,ls),
(798,1217,o),
(874,1129,o),
(874,949,cs),
(874,910,ls),
(874,703,o),
(783,616,o),
(571,617,cs),
(361,618,l),
(361,560,l),
(571,560,ls),
(880,560,o),
(1039,690,o),
(1039,929,cs),
(1039,1153,o),
(897,1283,o),
(621,1283,cs),
(361,1283,l)
);
}
);
width = 1070;
}
);
unicode = 80;
},
{
color = 9;
glyphname = R;
lastChange = "2022-03-29 10:35:21 +0000";
layers = (
{
anchors = (
{
name = bottom;
pos = (590,0);
},
{
name = top;
pos = (590,1283);
}
);
layerId = m01;
shapes = (
{
closed = 1;
nodes = (
(533,0,l),
(533,56,l),
(419,66,l),
(404,78,l),
(397,119,o),
(394,175,o),
(394,214,cs),
(394,1069,ls),
(394,1108,o),
(397,1164,o),
(404,1205,c),
(419,1217,l),
(513,1227,l),
(513,1283,l),
(100,1283,l),
(100,1227,l),
(194,1217,l),
(209,1205,l),
(216,1164,o),
(219,1108,o),
(219,1069,cs),
(219,214,ls),
(219,175,o),
(216,119,o),
(209,78,c),
(194,66,l),
(100,56,l),
(100,0,l)
);
},
{
closed = 1;
nodes = (
(371,1205,l),
(611,1206,ls),
(788,1207,o),
(864,1125,o),
(864,963,cs),
(864,924,ls),
(864,735,o),
(773,656,o),
(561,657,cs),
(371,658,l),
(371,590,l),
(561,590,ls),
(883,590,o),
(1049,714,o),
(1049,943,cs),
(1049,1158,o),
(900,1283,o),
(611,1283,cs),
(371,1283,l)
);
},
{
closed = 1;
nodes = (
(605,606,l),
(882,0,l),
(1158,0,l),
(1153,56,l),
(1061,66,l),
(1046,78,l),
(1017,109,o),
(996,137,o),
(974,184,cs),
(765,632,l)
);
}
);
width = 1190;
},
{
anchors = (
{
name = bottom;
pos = (570,0);
},
{
name = top;
pos = (570,1283);
}
);
layerId = m002;
shapes = (
{
closed = 1;
nodes = (
(493,0,l),
(493,46,l),
(379,56,l),
(364,68,l),
(357,109,o),
(354,165,o),
(354,204,cs),
(354,1079,ls),
(354,1118,o),
(357,1174,o),
(364,1215,c),
(379,1227,l),
(473,1237,l),
(473,1283,l),
(80,1283,l),
(80,1237,l),
(174,1227,l),
(189,1215,l),
(196,1174,o),
(199,1118,o),
(199,1079,cs),
(199,204,ls),
(199,165,o),
(196,109,o),
(189,68,c),
(174,56,l),
(80,46,l),
(80,0,l)
);
},
{
closed = 1;
nodes = (
(331,1215,l),
(591,1216,ls),
(768,1217,o),
(844,1133,o),
(844,963,cs),
(844,924,ls),
(844,731,o),
(753,651,o),
(541,652,cs),
(331,653,l),
(331,595,l),
(541,595,ls),
(850,595,o),
(1009,717,o),
(1009,943,cs),
(1009,1158,o),
(867,1283,o),
(591,1283,cs),
(331,1283,l)
);
},
{
closed = 1;
nodes = (
(585,606,l),
(882,0,l),
(1138,0,l),
(1138,46,l),
(1046,56,l),
(1031,68,l),
(1002,99,o),
(983,127,o),
(959,174,cs),
(725,632,l)
);
}
);
width = 1170;
}
);
metricLeft = H;
unicode = 82;
},
{
glyphname = S;
lastChange = "2022-03-26 12:08:47 +0000";
layers = (
{
anchors = (
{
name = bottom;
pos = (530,0);
},
{
name = top;
pos = (530,1283);
}
);
layerId = m01;
shapes = (
{
closed = 1;
nodes = (
(830,-20,o),
(986,121,o),
(986,359,cs),
(986,878,o),
(244,659,o),
(244,1025,cs),
(244,1159,o),
(344,1247,o),
(541,1247,cs),
(756,1247,o),
(835,1146,o),
(890,974,c),
(936,974,l),
(927,1223,l),
(841,1269,o),
(700,1303,o),
(561,1303,cs),
(280,1303,o),
(142,1160,o),
(142,963,cs),
(142,503,o),
(883,715,o),
(883,299,cs),
(883,146,o),
(784,42,o),
(554,42,cs),
(330,42,o),
(230,140,o),
(158,355,c),
(112,355,l),
(135,71,l),
(222,16,o),
(388,-20,o),
(536,-20,cs)
);
}
);
width = 1060;
},
{
anchors = (
{
name = bottom;
pos = (530,0);
},
{
name = top;
pos = (530,1283);
}
);
layerId = m002;
shapes = (
{
closed = 1;
nodes = (
(830,-20,o),
(986,121,o),
(986,359,cs),
(986,878,o),
(244,659,o),
(244,1025,cs),
(244,1159,o),
(344,1247,o),
(541,1247,cs),
(756,1247,o),
(835,1146,o),
(890,974,c),
(936,974,l),
(927,1223,l),
(841,1269,o),
(700,1303,o),
(561,1303,cs),
(280,1303,o),
(142,1160,o),
(142,963,cs),
(142,503,o),
(883,715,o),
(883,299,cs),
(883,146,o),
(784,42,o),
(554,42,cs),
(330,42,o),
(230,140,o),
(158,355,c),
(112,355,l),
(135,71,l),
(222,16,o),
(388,-20,o),
(536,-20,cs)
);
}
);
width = 1060;
}
);
unicode = 83;
},
{
color = 9;
glyphname = T;
lastChange = "2022-03-29 10:42:18 +0000";
layers = (
{
anchors = (
{
name = bottom;
pos = (635,0);
},
{
name = center;
pos = (635,642);
},
{
name = top;
pos = (635,1283);
}
);
layerId = m01;
shapes = (
{
closed = 1;
nodes = (
(871,0,l),
(871,57,l),
(737,67,l),
(722,79,l),
(715,120,o),
(712,176,o),
(712,215,cs),
(712,1283,l),
(537,1283,l),
(537,215,ls),
(537,176,o),
(534,120,o),
(527,79,c),
(512,67,l),
(378,57,l),
(378,0,l)
);
},
{
closed = 1;
nodes = (
(1144,1283,l),
(621,1283,l),
(621,1208,l),
(900,1208,ls),
(937,1208,o),
(989,1204,o),
(1028,1190,c),
(1040,1175,l),
(1128,874,l),
(1184,879,l)
);
},
{
closed = 1;
nodes = (
(121,874,l),
(209,1175,l),
(221,1190,l),
(260,1204,o),
(312,1208,o),
(349,1208,cs),
(608,1208,l),
(608,1283,l),
(105,1283,l),
(65,879,l)
);
}
);
width = 1249;
},
{
anchors = (
{
name = bottom;
pos = (615,0);
},
{
name = center;
pos = (615,642);
},
{
name = top;
pos = (615,1283);
}
);
layerId = m002;
shapes = (
{
closed = 1;
nodes = (
(851,0,l),
(851,46,l),
(717,56,l),
(702,68,l),
(695,109,o),
(692,165,o),
(692,204,cs),
(692,1283,l),
(537,1283,l),
(537,204,ls),
(537,165,o),
(534,109,o),
(527,68,c),
(512,56,l),
(378,46,l),
(378,0,l)
);
},
{
closed = 1;
nodes = (
(1124,1283,l),
(621,1283,l),
(621,1218,l),
(880,1218,ls),
(917,1218,o),
(969,1214,o),
(1008,1200,c),
(1020,1185,l),
(1118,869,l),
(1164,879,l)
);
},
{
closed = 1;
nodes = (
(111,869,l),
(209,1185,l),
(221,1200,l),
(260,1214,o),
(312,1218,o),
(349,1218,cs),
(608,1218,l),
(608,1283,l),
(105,1283,l),
(65,879,l)
);
}
);
width = 1229;
}
);
metricRight = "=|";
unicode = 84;
},
{
glyphname = U;
lastChange = "2022-03-26 12:08:47 +0000";
layers = (
{
anchors = (
{
name = bottom;
pos = (654,0);
},
{
name = ogonek;
pos = (1177,10);
},
{
name = top;
pos = (654,1283);
},
{
name = topright;
pos = (1288,1283);
}
);
layerId = m01;
shapes = (
{
closed = 1;
nodes = (
(936,-20,o),
(1129,101,o),
(1129,460,cs),
(1129,1079,ls),
(1129,1118,o),
(1132,1174,o),
(1139,1215,c),
(1154,1227,l),
(1248,1237,l),
(1248,1283,l),
(935,1283,l),
(935,1237,l),
(1029,1227,l),
(1044,1215,l),
(1051,1174,o),
(1054,1118,o),
(1054,1079,cs),
(1054,420,ls),
(1054,135,o),
(910,47,o),
(694,47,cs),
(507,47,o),
(354,113,o),
(354,420,cs),
(354,1079,ls),
(354,1118,o),
(357,1174,o),
(364,1215,c),
(379,1227,l),
(473,1237,l),
(473,1283,l),
(80,1283,l),
(80,1237,l),
(174,1227,l),
(189,1215,l),
(196,1174,o),
(199,1118,o),
(199,1079,cs),
(199,460,ls),
(199,101,o),
(418,-20,o),
(678,-20,cs)
);
}
);
width = 1308;
},
{
anchors = (
{
name = bottom;
pos = (654,0);
},
{
name = ogonek;
pos = (1177,10);
},
{
name = top;
pos = (654,1283);
},
{
name = topright;
pos = (1288,1283);
}
);
layerId = m002;
shapes = (
{
closed = 1;
nodes = (
(936,-20,o),
(1129,101,o),
(1129,460,cs),
(1129,1079,ls),
(1129,1118,o),
(1132,1174,o),
(1139,1215,c),
(1154,1227,l),
(1248,1237,l),
(1248,1283,l),
(935,1283,l),
(935,1237,l),
(1029,1227,l),
(1044,1215,l),
(1051,1174,o),
(1054,1118,o),
(1054,1079,cs),
(1054,420,ls),
(1054,135,o),
(910,47,o),
(694,47,cs),
(507,47,o),
(354,113,o),
(354,420,cs),
(354,1079,ls),
(354,1118,o),
(357,1174,o),
(364,1215,c),
(379,1227,l),
(473,1237,l),
(473,1283,l),
(80,1283,l),
(80,1237,l),
(174,1227,l),
(189,1215,l),
(196,1174,o),
(199,1118,o),
(199,1079,cs),
(199,460,ls),
(199,101,o),
(418,-20,o),
(678,-20,cs)
);
}
);
width = 1308;
}
);
unicode = 85;
},
{
color = 9;
glyphname = V;
lastChange = "2022-03-29 10:35:21 +0000";
layers = (
{
anchors = (
{
name = bottom;
pos = (653,0);
},
{
name = top;
pos = (653,1283);
}
);
layerId = m01;
shapes = (
{
closed = 1;
nodes = (
(658,9,l),
(715,152,l),
(334,1205,l),
(349,1217,l),
(443,1227,l),
(443,1283,l),
(45,1283,l),
(45,1227,l),
(139,1217,l),
(154,1205,l),
(614,0,l)
);
},
{
closed = 1;
nodes = (
(688,0,l),
(1152,1205,l),
(1167,1217,l),
(1261,1227,l),
(1261,1283,l),
(953,1283,l),
(953,1227,l),
(1047,1217,l),
(1062,1205,l),
(614,0,l)
);
}
);
width = 1306;
},
{
anchors = (
{
name = bottom;
pos = (683,0);
},
{
name = top;
pos = (683,1283);
}
);
layerId = m002;
shapes = (
{
closed = 1;
nodes = (
(673,9,l),
(765,272,l),
(414,1165,l),
(429,1177,l),
(523,1187,l),
(523,1283,l),
(45,1283,l),
(45,1187,l),
(139,1177,l),
(154,1165,l),
(629,0,l)
);
},
{
closed = 1;
nodes = (
(733,0,l),
(1212,1165,l),
(1227,1177,l),
(1321,1187,l),
(1321,1283,l),
(983,1283,l),
(983,1187,l),
(1077,1177,l),
(1092,1165,l),
(629,0,l)
);
}
);
width = 1366;
}
);
metricLeft = A;
metricRight = A;
unicode = 86;
},
{
color = 9;
glyphname = a;
lastChange = "2022-03-29 10:49:21 +0000";
layers = (
{
anchors = (
{
name = bottom;
pos = (459,0);
},
{
name = ogonek;
pos = (848,30);
},
{
name = top;
pos = (429,860);
}
);
background = {
shapes = (
{
closed = 1;
nodes = (
(629,0,l),
(848,30,l),
(848,76,l),
(754,86,l),
(739,98,l),
(732,139,o),
(729,195,o),
(729,234,cs),
(729,570,ls),
(729,739,o),
(672,880,o),
(453,880,cs),
(272,880,o),
(149,783,o),
(70,672,c),
(109,639,l),
(187,731,o),
(272,775,o),
(389,775,cs),
(551,775,o),
(579,689,o),
(579,560,cs),
(579,0,l)
);
},
{
closed = 1;
nodes = (
(424,-28,o),
(505,9,o),
(560,112,c),
(584,112,l),
(603,211,l),
(579,211,l),
(539,123,o),
(465,82,o),
(386,82,cs),
(303,82,o),
(236,123,o),
(236,234,cs),
(236,360,o),
(317,429,o),
(596,449,c),
(596,503,l),
(269,477,o),
(90,396,o),
(90,199,cs),
(90,66,o),
(172,-28,o),
(327,-28,cs)
);
}
);
};
layerId = m01;
shapes = (
{
closed = 1;
nodes = (
(629,0,l),
(868,30,l),
(868,76,l),
(774,86,l),
(759,98,l),
(752,139,o),
(749,195,o),
(749,234,cs),
(749,570,ls),
(749,736,o),
(688,880,o),
(457,880,cs),
(272,880,o),
(153,787,o),
(70,672,c),
(112,632,l),
(189,722,o),
(273,765,o),
(389,765,cs),
(551,765,o),
(579,683,o),
(579,560,cs),
(579,0,l)
);
},
{
closed = 1;
nodes = (
(424,-28,o),
(505,6,o),
(560,102,c),
(584,102,l),
(603,226,l),
(579,226,l),
(539,135,o),
(466,92,o),
(383,92,cs),
(311,92,o),
(251,124,o),
(251,224,cs),
(251,337,o),
(329,405,o),
(596,424,c),
(596,503,l),
(269,477,o),
(90,396,o),
(90,199,cs),
(90,66,o),
(172,-28,o),
(327,-28,cs)
);
}
);
width = 938;
},
{
associatedMasterId = m01;
layerId = "F4C3DB73-3B31-4DDE-805C-FE3EE7219764";
name = "3 Jan 22 15.39";
shapes = (
{
closed = 1;
nodes = (
(589,0,l),
(808,30,l),
(808,76,l),
(714,86,l),
(699,98,l),
(692,139,o),
(689,195,o),
(689,234,cs),
(689,570,ls),
(689,735,o),
(634,880,o),
(427,880,cs),
(234,880,o),
(119,750,o),
(64,668,c),
(99,639,l),
(171,731,o),
(249,775,o),
(357,775,cs),
(512,775,o),
(539,689,o),
(539,560,cs),
(539,0,l)
);
},
{
closed = 1;
nodes = (
(249,437,o),
(85,339,o),
(85,167,cs),
(85,57,o),
(152,-28,o),
(287,-28,cs),
(376,-28,o),
(467,9,o),
(520,112,c),
(544,112,l),
(563,211,l),
(539,211,l),
(501,123,o),
(430,82,o),
(355,82,cs),
(284,82,o),
(231,119,o),
(231,205,cs),
(231,304,o),
(301,389,o),
(556,409,c),
(556,463,l)
);
}
);
width = 878;
},
{
anchors = (
{
name = bottom;
pos = (449,0);
},
{
name = ogonek;
pos = (838,30);
},
{
name = top;
pos = (419,860);
}
);
background = {
shapes = (
{
closed = 1;
nodes = (
(619,0,l),
(838,30,l),
(838,76,l),
(744,86,l),
(729,98,l),
(722,139,o),
(719,195,o),
(719,234,cs),
(719,570,ls),
(719,739,o),
(662,880,o),
(443,880,cs),
(262,880,o),
(139,783,o),
(60,672,c),
(99,639,l),
(177,731,o),
(262,775,o),
(379,775,cs),
(541,775,o),
(569,689,o),
(569,560,cs),
(569,0,l)
);
},
{
closed = 1;
nodes = (
(414,-28,o),
(495,9,o),
(550,112,c),
(574,112,l),
(593,211,l),
(569,211,l),
(529,123,o),
(455,82,o),
(376,82,cs),
(293,82,o),
(226,123,o),
(226,234,cs),
(226,360,o),
(307,429,o),
(586,449,c),
(586,503,l),
(259,477,o),
(80,396,o),
(80,199,cs),
(80,66,o),
(162,-28,o),
(317,-28,cs)
);
}
);
};
layerId = m002;
shapes = (
{
closed = 1;
nodes = (
(619,0,l),
(948,30,l),
(948,126,l),
(854,136,l),
(839,148,l),
(832,189,o),
(829,245,o),
(829,284,cs),
(829,570,ls),
(829,728,o),
(780,880,o),
(492,880,cs),
(269,880,o),
(156,789,o),
(63,663,c),
(152,590,l),
(221,674,o),
(285,715,o),
(399,715,cs),
(543,715,o),
(569,649,o),
(569,560,cs),
(569,0,l)
);
},
{
closed = 1;
nodes = (
(422,-28,o),
(500,-2,o),
(550,66,c),
(574,66,l),
(593,191,l),
(569,191,l),
(542,141,o),
(495,117,o),
(438,117,cs),
(380,117,o),
(331,139,o),
(331,228,cs),
(331,324,o),
(388,390,o),
(586,407,c),
(586,503,l),
(259,476,o),
(80,392,o),
(80,196,cs),
(80,63,o),
(162,-28,o),
(332,-28,cs)
);
}
);
width = 998;
},
{
associatedMasterId = m002;
layerId = "7674F7FF-4842-4080-AA36-58968033311A";
name = "3 Jan 22 15.39";
shapes = (
{
closed = 1;
nodes = (
(589,0,l),
(808,30,l),
(808,76,l),
(714,86,l),
(699,98,l),
(692,139,o),
(689,195,o),
(689,234,cs),
(689,570,ls),
(689,735,o),
(634,880,o),
(427,880,cs),
(234,880,o),
(119,750,o),
(64,668,c),
(99,639,l),
(171,731,o),
(249,775,o),
(357,775,cs),
(512,775,o),
(539,689,o),
(539,560,cs),
(539,0,l)
);
},
{
closed = 1;
nodes = (
(249,437,o),
(85,339,o),
(85,167,cs),
(85,57,o),
(152,-28,o),
(287,-28,cs),
(376,-28,o),
(467,9,o),
(520,112,c),
(544,112,l),
(563,211,l),
(539,211,l),
(501,123,o),
(430,82,o),
(355,82,cs),
(284,82,o),
(231,119,o),
(231,205,cs),
(231,304,o),
(301,389,o),
(556,409,c),
(556,463,l)
);
}
);
width = 878;
}
);
metricRight = n;
unicode = 97;
},
{
color = 9;
glyphname = b;
lastChange = "2022-03-29 10:53:06 +0000";
layers = (
{
anchors = (
{
name = bottom;
pos = (574,0);
}
);
background = {
shapes = (
{
closed = 1;
nodes = (
(270,0,l),
(349,204,l),
(349,1420,l),
(299,1420,l),
(80,1390,l),
(80,1344,l),
(174,1334,l),
(189,1322,l),
(196,1281,o),
(199,1225,o),
(199,1186,cs),
(199,204,ls),
(199,165,o),
(196,110,o),
(189,0,c)
);
},
{
closed = 1;
nodes = (
(341,627,l),
(389,720,o),
(468,763,o),
(566,763,cs),
(720,763,o),
(803,658,o),
(803,467,cs),
(803,427,ls),
(803,196,o),
(724,67,o),
(568,67,cs),
(434,67,o),
(357,164,o),
(349,319,c),
(292,319,l),
(306,93,o),
(421,-20,o),
(598,-20,cs),
(806,-20,o),
(963,137,o),
(963,452,cs),
(963,748,o),
(825,880,o),
(625,880,cs),
(458,880,o),
(358,788,o),
(314,652,c)
);
}
);
};
layerId = m01;
shapes = (
{
closed = 1;
nodes = (
(250,0,l),
(349,204,l),
(349,1420,l),
(279,1420,l),
(60,1390,l),
(60,1344,l),
(154,1334,l),
(169,1322,l),
(176,1281,o),
(179,1225,o),
(179,1186,cs),
(179,204,ls),
(179,165,o),
(176,110,o),
(169,0,c)
);
},
{
closed = 1;
nodes = (
(341,647,l),
(392,737,o),
(486,778,o),
(577,778,cs),
(731,778,o),
(803,659,o),
(803,449,cs),
(803,409,ls),
(803,199,o),
(729,84,o),
(576,84,cs),
(439,84,o),
(356,176,o),
(349,319,c),
(301,319,l),
(315,93,o),
(430,-20,o),
(608,-20,cs),
(822,-20,o),
(983,137,o),
(983,453,cs),
(983,748,o),
(842,880,o),
(632,880,cs),
(462,880,o),
(358,793,o),
(314,692,c)
);
}
);
width = 1068;
},
{
anchors = (
{
name = bottom;
pos = (614,0);
}
);
background = {
shapes = (
{
closed = 1;
nodes = (
(310,0,l),
(409,204,l),
(409,1420,l),
(339,1420,l),
(120,1390,l),
(120,1344,l),
(214,1334,l),
(229,1322,l),
(236,1281,o),
(239,1225,o),
(239,1186,cs),
(239,204,ls),
(239,165,o),
(236,110,o),
(229,0,c)
);
},
{
closed = 1;
nodes = (
(401,647,l),
(452,737,o),
(546,778,o),
(637,778,cs),
(791,778,o),
(863,659,o),
(863,449,cs),
(863,409,ls),
(863,199,o),
(789,84,o),
(636,84,cs),
(499,84,o),
(416,176,o),
(409,319,c),
(361,319,l),
(375,93,o),
(490,-20,o),
(668,-20,cs),
(882,-20,o),
(1043,137,o),
(1043,453,cs),
(1043,748,o),
(902,880,o),
(692,880,cs),
(522,880,o),
(418,793,o),
(374,692,c)
);
}
);
};
layerId = m002;
shapes = (
{
closed = 1;
nodes = (
(230,0,l),
(409,204,l),
(409,1420,l),
(339,1420,l),
(30,1390,l),
(30,1294,l),
(124,1284,l),
(139,1272,l),
(146,1231,o),
(149,1175,o),
(149,1136,cs),
(149,204,ls),
(149,165,o),
(146,110,o),
(139,0,c)
);
},
{
closed = 1;
nodes = (
(401,609,l),
(441,691,o),
(515,728,o),
(592,728,cs),
(712,728,o),
(773,632,o),
(773,459,cs),
(773,419,ls),
(773,216,o),
(710,134,o),
(595,134,cs),
(480,134,o),
(416,217,o),
(409,369,c),
(341,369,l),
(356,115,o),
(464,-20,o),
(667,-20,cs),
(885,-20,o),
(1043,137,o),
(1043,451,cs),
(1043,748,o),
(901,880,o),
(686,880,cs),
(508,880,o),
(419,790,o),
(372,684,c)
);
}
);
width = 1108;
},
{
anchors = (
{
name = bottom;
pos = (554,0);
}
);
associatedMasterId = m002;
background = {
shapes = (
{
closed = 1;
nodes = (
(250,0,l),
(329,204,l),
(329,1420,l),
(279,1420,l),
(60,1390,l),
(60,1344,l),
(154,1334,l),
(169,1322,l),
(176,1281,o),
(179,1225,o),
(179,1186,cs),
(179,204,ls),
(179,165,o),
(176,110,o),
(169,0,c)
);
},
{
closed = 1;
nodes = (
(321,627,l),
(369,720,o),
(448,763,o),
(546,763,cs),
(700,763,o),
(783,658,o),
(783,467,cs),
(783,427,ls),
(783,196,o),
(704,67,o),
(548,67,cs),
(414,67,o),
(337,164,o),
(329,319,c),
(272,319,l),
(286,93,o),
(401,-20,o),
(578,-20,cs),
(786,-20,o),
(943,137,o),
(943,452,cs),
(943,748,o),
(805,880,o),
(605,880,cs),
(438,880,o),
(338,788,o),
(294,652,c)
);
}
);
};
layerId = "68013082-3DD4-4A93-A33B-21350EC82847";
name = "29 Mar 22 17.51";
shapes = (
{
closed = 1;
nodes = (
(250,0,l),
(329,204,l),
(329,1420,l),
(279,1420,l),
(60,1390,l),
(60,1344,l),
(154,1334,l),
(169,1322,l),
(176,1281,o),
(179,1225,o),
(179,1186,cs),
(179,204,ls),
(179,165,o),
(176,110,o),
(169,0,c)
);
},
{
closed = 1;
nodes = (
(321,657,l),
(372,746,o),
(462,788,o),
(560,788,cs),
(722,788,o),
(803,666,o),
(803,449,cs),
(803,409,ls),
(803,192,o),
(720,74,o),
(560,74,cs),
(418,74,o),
(337,168,o),
(329,319,c),
(281,319,l),
(295,93,o),
(410,-20,o),
(588,-20,cs),
(802,-20,o),
(963,137,o),
(963,453,cs),
(963,748,o),
(822,880,o),
(612,880,cs),
(442,880,o),
(338,793,o),
(294,692,c)
);
}
);
width = 1028;
}
);
metricRight = o;
unicode = 98;
},
{
color = 9;
glyphname = c;
lastChange = "2022-03-29 10:41:34 +0000";
layers = (
{
anchors = (
{
name = bottom;
pos = (486,0);
},
{
name = top;
pos = (506,860);
}
);
layerId = m01;
shapes = (
{
closed = 1;
nodes = (
(251,880,o),
(85,696,o),
(85,411,cs),
(85,121,o),
(256,-20,o),
(469,-20,cs),
(627,-20,o),
(741,58,o),
(814,221,c),
(762,245,l),
(707,152,o),
(619,116,o),
(518,116,cs),
(351,116,o),
(250,218,o),
(250,423,cs),
(250,463,ls),
(250,669,o),
(354,793,o),
(504,793,cs),
(617,793,o),
(692,729,o),
(726,629,c),
(777,629,l),
(771,811,l),
(711,851,o),
(608,880,o),
(507,880,cs)
);
}
);
width = 859;
},
{
anchors = (
{
name = bottom;
pos = (511,0);
},
{
name = top;
pos = (531,860);
}
);
layerId = m002;
shapes = (
{
closed = 1;
nodes = (
(250,880,o),
(65,696,o),
(65,407,cs),
(65,122,o),
(246,-20,o),
(476,-20,cs),
(639,-20,o),
(763,52,o),
(839,228,c),
(765,271,l),
(709,193,o),
(638,163,o),
(558,163,cs),
(416,163,o),
(335,257,o),
(335,443,cs),
(335,483,ls),
(335,665,o),
(404,773,o),
(529,773,cs),
(632,773,o),
(683,701,o),
(711,589,c),
(802,589,l),
(796,811,l),
(735,851,o),
(637,880,o),
(527,880,cs)
);
}
);
width = 884;
}
);
metricLeft = o;
unicode = 99;
},
{
glyphname = d;
lastChange = "2022-03-29 10:48:12 +0000";
layers = (
{
anchors = (
{
name = bottom;
pos = (529,0);
},
{
name = center;
pos = (529,430);
},
{
name = top;
pos = (529,2096);
},
{
name = topright;
pos = (1037,2096);
}
);
background = {
shapes = (
{
closed = 1;
nodes = (
(635,-20,o),
(761,98,o),
(776,319,c),
(719,319,l),
(712,175,o),
(630,67,o),
(488,67,cs),
(334,67,o),
(265,195,o),
(265,397,cs),
(265,437,ls),
(265,660,o),
(351,763,o),
(518,763,cs),
(619,763,o),
(691,725,o),
(727,677,c),
(754,702,l),
(716,803,o),
(620,880,o),
(468,880,cs),
(248,880,o),
(105,718,o),
(105,416,cs),
(105,107,o),
(254,-20,o),
(448,-20,cs)
);
},
{
closed = 1;
nodes = (
(768,0,l),
(987,30,l),
(987,76,l),
(893,86,l),
(878,98,l),
(871,139,o),
(868,195,o),
(868,234,cs),
(868,1420,l),
(818,1420,l),
(599,1390,l),
(599,1344,l),
(693,1334,l),
(708,1322,l),
(715,1281,o),
(718,1225,o),
(718,1186,cs),
(718,0,l)
);
}
);
};
layerId = m01;
shapes = (
{
closed = 1;
nodes = (
(768,0,l),
(987,30,l),
(987,76,l),
(893,86,l),
(878,98,l),
(871,139,o),
(868,195,o),
(868,234,cs),
(868,1420,l),
(818,1420,l),
(599,1390,l),
(599,1344,l),
(693,1334,l),
(708,1322,l),
(715,1281,o),
(718,1225,o),
(718,1186,cs),
(718,0,l)
);
},
{
closed = 1;
nodes = (
(626,-20,o),
(752,98,o),
(767,319,c),
(719,319,l),
(712,179,o),
(626,74,o),
(480,74,cs),
(316,74,o),
(245,202,o),
(245,407,cs),
(245,447,ls),
(245,681,o),
(338,793,o),
(502,793,cs),
(614,793,o),
(685,742,o),
(727,667,c),
(754,702,l),
(715,803,o),
(615,880,o),
(458,880,cs),
(232,880,o),
(85,718,o),
(85,416,cs),
(85,107,o),
(238,-20,o),
(438,-20,cs)
);
}
);
width = 1057;
},
{
anchors = (
{
name = bottom;
pos = (509,0);
},
{
name = center;
pos = (509,430);
},
{
name = top;
pos = (509,2096);
},
{
name = topright;
pos = (1017,2096);
}
);
background = {
shapes = (
{
closed = 1;
nodes = (
(615,-20,o),
(741,98,o),
(756,319,c),
(699,319,l),
(692,175,o),
(610,67,o),
(468,67,cs),
(314,67,o),
(245,195,o),
(245,397,cs),
(245,437,ls),
(245,660,o),
(331,763,o),
(498,763,cs),
(599,763,o),
(671,725,o),
(707,677,c),
(734,702,l),
(696,803,o),
(600,880,o),
(448,880,cs),
(228,880,o),
(85,718,o),
(85,416,cs),
(85,107,o),
(234,-20,o),
(428,-20,cs)
);
},
{
closed = 1;
nodes = (
(748,0,l),
(967,30,l),
(967,76,l),
(873,86,l),
(858,98,l),
(851,139,o),
(848,195,o),
(848,234,cs),
(848,1420,l),
(798,1420,l),
(579,1390,l),
(579,1344,l),
(673,1334,l),
(688,1322,l),
(695,1281,o),
(698,1225,o),
(698,1186,cs),
(698,0,l)
);
}
);
};
layerId = m002;
shapes = (
{
closed = 1;
nodes = (
(748,0,l),
(1077,30,l),
(1077,126,l),
(983,136,l),
(968,148,l),
(961,189,o),
(958,245,o),
(958,284,cs),
(958,1420,l),
(908,1420,l),
(579,1390,l),
(579,1294,l),
(673,1284,l),
(688,1272,l),
(695,1231,o),
(698,1175,o),
(698,1136,cs),
(698,0,l)
);
},
{
closed = 1;
nodes = (
(626,-20,o),
(740,101,o),
(747,339,c),
(699,339,l),
(692,209,o),
(636,124,o),
(528,124,cs),
(407,124,o),
(345,232,o),
(345,407,cs),
(345,447,ls),
(345,646,o),
(422,743,o),
(554,743,cs),
(633,743,o),
(679,708,o),
(707,657,c),
(734,752,l),
(700,826,o),
(617,880,o),
(476,880,cs),
(229,880,o),
(75,717,o),
(75,413,cs),
(75,107,o),
(231,-20,o),
(431,-20,cs)
);
}
);
width = 1127;
}
);
metricLeft = o;
metricRight = n;
unicode = 100;
},
{
color = 9;
glyphname = e;
lastChange = "2022-03-29 10:41:34 +0000";
layers = (
{
anchors = (
{
name = bottom;
pos = (463,0);
},
{
name = ogonek;
pos = (788,30);
},
{
name = top;
pos = (463,860);
}
);
layerId = m01;
shapes = (
{
closed = 1;
nodes = (
(787,261,l),
(731,161,o),
(638,114,o),
(523,114,cs),
(344,114,o),
(250,227,o),
(250,440,cs),
(250,480,ls),
(250,689,o),
(337,803,o),
(475,803,cs),
(601,803,o),
(673,705,o),
(684,481,c),
(851,481,l),
(842,749,o),
(686,880,o),
(482,880,cs),
(249,880,o),
(85,708,o),
(85,420,cs),
(85,131,o),
(250,-20,o),
(473,-20,cs),
(637,-20,o),
(753,64,o),
(829,238,c)
);
},
{
closed = 1;
nodes = (
(214,481,l),
(804,481,l),
(804,548,l),
(214,548,l)
);
}
);
width = 926;
},
{
anchors = (
{
name = bottom;
pos = (443,0);
},
{
name = ogonek;
pos = (768,30);
},
{
name = top;
pos = (443,860);
}
);
layerId = m002;
shapes = (
{
closed = 1;
nodes = (
(767,261,l),
(707,154,o),
(613,113,o),
(499,113,cs),
(313,113,o),
(210,228,o),
(210,445,cs),
(210,485,ls),
(210,697,o),
(305,813,o),
(455,813,cs),
(593,813,o),
(672,715,o),
(684,491,c),
(831,491,l),
(822,752,o),
(666,880,o),
(462,880,cs),
(229,880,o),
(65,708,o),
(65,420,cs),
(65,131,o),
(230,-20,o),
(453,-20,cs),
(617,-20,o),
(733,64,o),
(809,238,c)
);
},
{
closed = 1;
nodes = (
(194,491,l),
(784,491,l),
(784,548,l),
(194,548,l)
);
}
);
width = 906;
}
);
metricLeft = o;
unicode = 101;
},
{
color = 6;
glyphname = ecedillabreve;
lastChange = "2022-03-26 12:08:47 +0000";
layers = (
{
layerId = m01;
shapes = (
{
closed = 1;
nodes = (
(578,-421,o),
(677,-332,o),
(677,-226,cs),
(677,-148,o),
(624,-90,o),
(461,-79,c),
(469,-135,l),
(530,16,l),
(479,25,l),
(398,-175,l),
(417,-207,l),
(509,-205,o),
(557,-225,o),
(557,-271,cs),
(557,-321,o),
(501,-384,o),
(333,-384,c),
(335,-421,l)
);
},
{
ref = e;
},
{
pos = (-82,-80);
ref = brevecomb;
}
);
width = 926;
},
{
layerId = m002;
shapes = (
{
closed = 1;
nodes = (
(578,-421,o),
(677,-332,o),
(677,-226,cs),
(677,-148,o),
(624,-90,o),
(461,-79,c),
(469,-135,l),
(530,16,l),
(479,25,l),
(398,-175,l),
(417,-207,l),
(509,-205,o),
(557,-225,o),
(557,-271,cs),
(557,-321,o),
(501,-384,o),
(333,-384,c),
(335,-421,l)
);
},
{
ref = e;
},
{
pos = (-82,-80);
ref = brevecomb;
}
);
width = 926;
}
);
unicode = 7709;
},
{
color = 6;
glyphname = eogonek_acutecomb;
lastChange = "2022-03-26 12:08:47 +0000";
layers = (
{
anchors = (
{
name = bottom;
pos = (463,0);
},
{
name = ogonek;
pos = (788,30);
},
{
name = top;
pos = (463,1347);
}
);
layerId = m01;
shapes = (
{
closed = 1;
nodes = (
(787,261,l),
(727,154,o),
(633,113,o),
(519,113,cs),
(333,113,o),
(230,228,o),
(230,445,cs),
(230,485,ls),
(230,697,o),
(325,813,o),
(475,813,cs),
(613,813,o),
(692,715,o),
(704,491,c),
(851,491,l),
(842,752,o),
(686,880,o),
(482,880,cs),
(249,880,o),
(85,708,o),
(85,420,cs),
(85,131,o),
(250,-20,o),
(473,-20,cs),
(637,-20,o),
(753,64,o),
(829,238,c)
);
},
{
closed = 1;
nodes = (
(214,491,l),
(804,491,l),
(804,548,l),
(214,548,l)
);
},
{
closed = 1;
nodes = (
(679,-408,o),
(743,-386,o),
(791,-342,c),
(769,-308,l),
(745,-324,o),
(709,-345,o),
(664,-345,cs),
(615,-345,o),
(568,-320,o),
(568,-232,cs),
(568,-55,o),
(733,-10,o),
(829,238,c),
(805,244,l),
(700,-4,o),
(427,-47,o),
(427,-253,cs),
(427,-367,o),
(517,-408,o),
(611,-408,cs)
);
},
{
closed = 1;
nodes = (
(451,973,l),
(700,1213,ls),
(799,1308,o),
(645,1425,o),
(582,1308,cs),
(414,997,l)
);
}
);
width = 926;
},
{
anchors = (
{
name = bottom;
pos = (463,0);
},
{
name = ogonek;
pos = (788,30);
},
{
name = top;
pos = (463,1347);
}
);
layerId = m002;
shapes = (
{
closed = 1;
nodes = (
(787,261,l),
(727,154,o),
(633,113,o),
(519,113,cs),
(333,113,o),
(230,228,o),
(230,445,cs),
(230,485,ls),
(230,697,o),
(325,813,o),
(475,813,cs),
(613,813,o),
(692,715,o),
(704,491,c),
(851,491,l),
(842,752,o),
(686,880,o),
(482,880,cs),
(249,880,o),
(85,708,o),
(85,420,cs),
(85,131,o),
(250,-20,o),
(473,-20,cs),
(637,-20,o),
(753,64,o),
(829,238,c)
);
},
{
closed = 1;
nodes = (
(214,491,l),
(804,491,l),
(804,548,l),
(214,548,l)
);
},
{
closed = 1;
nodes = (
(679,-408,o),
(743,-386,o),
(791,-342,c),
(769,-308,l),
(745,-324,o),
(709,-345,o),
(664,-345,cs),
(615,-345,o),
(568,-320,o),
(568,-232,cs),
(568,-55,o),
(733,-10,o),
(829,238,c),
(805,244,l),
(700,-4,o),
(427,-47,o),
(427,-253,cs),
(427,-367,o),
(517,-408,o),
(611,-408,cs)
);
},
{
closed = 1;
nodes = (
(451,973,l),
(700,1213,ls),
(799,1308,o),
(645,1425,o),
(582,1308,cs),
(414,997,l)
);
}
);
width = 926;
}
);
},
{
glyphname = f;
lastChange = "2022-03-29 10:54:30 +0000";
layers = (
{
layerId = m01;
shapes = (
{
closed = 1;
nodes = (
(498,0,l),
(498,56,l),
(374,66,l),
(359,78,l),
(352,119,o),
(349,175,o),
(349,214,cs),
(349,1143,ls),
(349,1259,o),
(369,1353,o),
(479,1353,cs),
(550,1353,o),
(584,1306,o),
(605,1209,c),
(656,1209,l),
(650,1391,l),
(613,1413,o),
(557,1430,o),
(489,1430,cs),
(288,1430,o),
(179,1302,o),
(179,1073,cs),
(179,214,ls),
(179,175,o),
(176,119,o),
(169,78,c),
(154,66,l),
(60,56,l),
(60,0,l)
);
},
{
closed = 1;
nodes = (
(563,787,l),
(563,860,l),
(42,860,l),
(42,787,l)
);
}
);
width = 650;
},
{
background = {
shapes = (
{
closed = 1;
nodes = (
(606,0,l),
(606,46,l),
(482,56,l),
(467,68,l),
(460,109,o),
(457,165,o),
(457,204,cs),
(457,1143,ls),
(457,1265,o),
(477,1363,o),
(587,1363,cs),
(664,1363,o),
(700,1316,o),
(723,1219,c),
(764,1219,l),
(758,1391,l),
(721,1413,o),
(665,1430,o),
(597,1430,cs),
(409,1430,o),
(307,1302,o),
(307,1073,cs),
(307,204,ls),
(307,165,o),
(304,109,o),
(297,68,c),
(282,56,l),
(188,46,l),
(188,0,l)
);
},
{
closed = 1;
nodes = (
(671,797,l),
(671,860,l),
(170,860,l),
(170,797,l)
);
}
);
};
layerId = m002;
shapes = (
{
closed = 1;
nodes = (
(197,254,ls),
(197,215,o),
(194,159,o),
(187,118,c),
(172,106,l),
(78,96,l),
(78,0,l),
(606,0,l),
(606,96,l),
(482,106,l),
(467,118,l),
(460,159,o),
(457,215,o),
(457,254,cs),
(457,1143,ls),
(457,1227,o),
(474,1303,o),
(562,1303,cs),
(630,1303,o),
(654,1257,o),
(673,1159,c),
(764,1159,l),
(758,1381,l),
(710,1409,o),
(636,1430,o),
(547,1430,cs),
(320,1430,o),
(197,1302,o),
(197,1073,cs)
);
},
{
closed = 1;
nodes = (
(671,757,l),
(671,860,l),
(60,860,l),
(60,757,l)
);
}
);
width = 758;
}
);
metricLeft = n;
unicode = 102;
},
{
glyphname = g;
lastChange = "2022-03-26 12:08:47 +0000";
layers = (
{
anchors = (
{
name = bottom;
pos = (490,-460);
},
{
name = top;
pos = (490,860);
}
);
background = {
shapes = (
{
closed = 1;
nodes = (
(746,-481,o),
(927,-364,o),
(927,-160,cs),
(927,-3,o),
(819,91,o),
(622,91,cs),
(414,91,ls),
(343,91,o),
(309,122,o),
(310,188,cs),
(313,341,l),
(274,352,l),
(252,306,o),
(211,235,o),
(211,139,cs),
(211,9,o),
(288,-54,o),
(423,-54,cs),
(608,-54,ls),
(721,-54,o),
(790,-90,o),
(790,-203,cs),
(790,-337,o),
(692,-414,o),
(482,-414,cs),
(263,-414,o),
(209,-332,o),
(209,-232,cs),
(209,-140,o),
(256,-79,o),
(363,-53,c),
(344,-11,l),
(177,-39,o),
(77,-114,o),
(77,-243,cs),
(77,-388,o),
(199,-481,o),
(457,-481,cs)
);
},
{
closed = 1;
nodes = (
(652,300,o),
(805,403,o),
(805,590,cs),
(805,777,o),
(652,880,o),
(454,880,cs),
(258,880,o),
(105,777,o),
(105,590,cs),
(105,403,o),
(258,300,o),
(454,300,cs)
);
},
{
closed = 1;
nodes = (
(344,364,o),
(265,425,o),
(265,570,cs),
(265,610,ls),
(265,753,o),
(344,816,o),
(453,816,cs),
(566,816,o),
(645,753,o),
(645,610,cs),
(645,570,ls),
(645,427,o),
(566,364,o),
(453,364,cs)
);
},
{
closed = 1;
nodes = (
(946,792,l),
(946,860,l),
(579,860,l),
(609,792,l)
);
}
);
};
layerId = m01;
shapes = (
{
closed = 1;
nodes = (
(746,-481,o),
(927,-364,o),
(927,-160,cs),
(927,-3,o),
(819,91,o),
(622,91,cs),
(364,91,ls),
(280,91,o),
(240,122,o),
(240,188,cs),
(240,262,o),
(287,304,o),
(353,341,c),
(294,362,l),
(215,314,o),
(141,244,o),
(141,131,cs),
(141,12,o),
(218,-54,o),
(353,-54,cs),
(608,-54,ls),
(721,-54,o),
(790,-90,o),
(790,-203,cs),
(790,-337,o),
(692,-414,o),
(482,-414,cs),
(263,-414,o),
(209,-332,o),
(209,-232,cs),
(209,-140,o),
(256,-79,o),
(363,-53,c),
(344,-11,l),
(177,-39,o),
(77,-114,o),
(77,-243,cs),
(77,-388,o),
(199,-481,o),
(457,-481,cs)
);
},
{
closed = 1;
nodes = (
(652,300,o),
(805,403,o),
(805,590,cs),
(805,777,o),
(652,880,o),
(454,880,cs),
(258,880,o),
(105,777,o),
(105,590,cs),
(105,403,o),
(258,300,o),
(454,300,cs)
);
},
{
closed = 1;
nodes = (
(344,364,o),
(265,425,o),
(265,570,cs),
(265,610,ls),
(265,753,o),
(344,816,o),
(453,816,cs),
(566,816,o),
(645,753,o),
(645,610,cs),
(645,570,ls),
(645,427,o),
(566,364,o),
(453,364,cs)
);
},
{
closed = 1;
nodes = (
(946,792,l),
(946,860,l),
(579,860,l),
(609,792,l)
);
}
);
width = 980;
},
{
anchors = (
{
name = bottom;
pos = (490,-460);
},
{
name = top;
pos = (490,860);
}
);
associatedMasterId = m01;
background = {
shapes = (
{
closed = 1;
nodes = (
(785,-481,o),
(977,-364,o),
(977,-158,cs),
(977,-4,o),
(870,91,o),
(672,91,cs),
(364,91,ls),
(280,91,o),
(240,122,o),
(240,188,cs),
(240,262,o),
(287,304,o),
(353,341,c),
(294,362,l),
(215,314,o),
(141,244,o),
(141,131,cs),
(141,12,o),
(218,-54,o),
(353,-54,cs),
(658,-54,ls),
(770,-54,o),
(840,-90,o),
(840,-200,cs),
(840,-337,o),
(733,-414,o),
(504,-414,cs),
(267,-414,o),
(209,-331,o),
(209,-230,cs),
(209,-139,o),
(256,-79,o),
(363,-53,c),
(344,-11,l),
(177,-39,o),
(77,-114,o),
(77,-242,cs),
(77,-389,o),
(207,-481,o),
(479,-481,cs)
);
},
{
closed = 1;
nodes = (
(691,300,o),
(855,403,o),
(855,590,cs),
(855,777,o),
(691,880,o),
(479,880,cs),
(269,880,o),
(105,777,o),
(105,590,cs),
(105,403,o),
(269,300,o),
(479,300,cs)
);
},
{
closed = 1;
nodes = (
(355,367,o),
(265,427,o),
(265,570,cs),
(265,610,ls),
(265,751,o),
(354,813,o),
(478,813,cs),
(605,813,o),
(695,751,o),
(695,610,cs),
(695,570,ls),
(695,429,o),
(605,367,o),
(478,367,cs)
);
},
{
closed = 1;
nodes = (
(996,792,l),
(996,860,l),
(629,860,l),
(659,792,l)
);
}
);
};
layerId = "01A51173-4C92-4185-AE86-C9CFB001DA68";
name = "6 Jan 22 19.50";
shapes = (
{
closed = 1;
nodes = (
(746,-481,o),
(927,-364,o),
(927,-160,cs),
(927,-3,o),
(819,91,o),
(622,91,cs),
(364,91,ls),
(280,91,o),
(240,122,o),
(240,188,cs),
(240,262,o),
(287,304,o),
(353,341,c),
(294,362,l),
(215,314,o),
(141,244,o),
(141,131,cs),
(141,12,o),
(218,-54,o),
(353,-54,cs),
(608,-54,ls),
(721,-54,o),
(790,-90,o),
(790,-203,cs),
(790,-337,o),
(692,-414,o),
(482,-414,cs),
(263,-414,o),
(209,-332,o),
(209,-232,cs),
(209,-140,o),
(256,-79,o),
(363,-53,c),
(344,-11,l),
(177,-39,o),
(77,-114,o),
(77,-243,cs),
(77,-388,o),
(199,-481,o),
(457,-481,cs)
);
},
{
closed = 1;
nodes = (
(652,300,o),
(805,403,o),
(805,590,cs),
(805,777,o),
(652,880,o),
(454,880,cs),
(258,880,o),
(105,777,o),
(105,590,cs),
(105,403,o),
(258,300,o),
(454,300,cs)
);
},
{
closed = 1;
nodes = (
(344,364,o),
(265,425,o),
(265,570,cs),
(265,610,ls),
(265,753,o),
(344,816,o),
(453,816,cs),
(566,816,o),
(645,753,o),
(645,610,cs),
(645,570,ls),
(645,427,o),
(566,364,o),
(453,364,cs)
);
},
{
closed = 1;
nodes = (
(946,792,l),
(946,860,l),
(579,860,l),
(609,792,l)
);
}
);
width = 980;
},
{
anchors = (
{
name = bottom;
pos = (490,-460);
},
{
name = top;
pos = (490,860);
}
);
associatedMasterId = m01;
background = {
shapes = (
{
closed = 1;
nodes = (
(746,-481,o),
(927,-364,o),
(927,-160,cs),
(927,-3,o),
(819,91,o),
(622,91,cs),
(364,91,ls),
(280,91,o),
(240,122,o),
(240,188,cs),
(240,262,o),
(287,304,o),
(353,341,c),
(294,362,l),
(215,314,o),
(141,244,o),
(141,131,cs),
(141,12,o),
(218,-54,o),
(353,-54,cs),
(608,-54,ls),
(721,-54,o),
(790,-90,o),
(790,-203,cs),
(790,-337,o),
(692,-414,o),
(482,-414,cs),
(263,-414,o),
(209,-332,o),
(209,-232,cs),
(209,-140,o),
(256,-79,o),
(363,-53,c),
(344,-11,l),
(177,-39,o),
(77,-114,o),
(77,-243,cs),
(77,-388,o),
(199,-481,o),
(457,-481,cs)
);
},
{
closed = 1;
nodes = (
(652,300,o),
(805,403,o),
(805,590,cs),
(805,777,o),
(652,880,o),
(454,880,cs),
(258,880,o),
(105,777,o),
(105,590,cs),
(105,403,o),
(258,300,o),
(454,300,cs)
);
},
{
closed = 1;
nodes = (
(344,364,o),
(265,425,o),
(265,570,cs),
(265,610,ls),
(265,753,o),
(344,816,o),
(453,816,cs),
(566,816,o),
(645,753,o),
(645,610,cs),
(645,570,ls),
(645,427,o),
(566,364,o),
(453,364,cs)
);
},
{
closed = 1;
nodes = (
(946,792,l),
(946,860,l),
(579,860,l),
(609,792,l)
);
}
);
};
layerId = "3144FE8F-2B25-4CAA-A7F0-0266080D2195";
name = "6 Jan 22 19.50";
shapes = (
{
closed = 1;
nodes = (
(746,-481,o),
(927,-364,o),
(927,-160,cs),
(927,-3,o),
(819,91,o),
(622,91,cs),
(414,91,ls),
(343,91,o),
(309,122,o),
(310,188,cs),
(313,341,l),
(274,352,l),
(252,306,o),
(211,235,o),
(211,139,cs),
(211,9,o),
(288,-54,o),
(423,-54,cs),
(608,-54,ls),
(721,-54,o),
(790,-90,o),
(790,-203,cs),
(790,-337,o),
(692,-414,o),
(482,-414,cs),
(263,-414,o),
(209,-332,o),
(209,-232,cs),
(209,-140,o),
(256,-79,o),
(363,-53,c),
(344,-11,l),
(177,-39,o),
(77,-114,o),
(77,-243,cs),
(77,-388,o),
(199,-481,o),
(457,-481,cs)
);
},
{
closed = 1;
nodes = (
(652,300,o),
(805,403,o),
(805,590,cs),
(805,777,o),
(652,880,o),
(454,880,cs),
(258,880,o),
(105,777,o),
(105,590,cs),
(105,403,o),
(258,300,o),
(454,300,cs)
);
},
{
closed = 1;
nodes = (
(344,364,o),
(265,425,o),
(265,570,cs),
(265,610,ls),
(265,753,o),
(344,816,o),
(453,816,cs),
(566,816,o),
(645,753,o),
(645,610,cs),
(645,570,ls),
(645,427,o),
(566,364,o),
(453,364,cs)
);
},
{
closed = 1;
nodes = (
(946,792,l),
(946,860,l),
(579,860,l),
(609,792,l)
);
}
);
width = 980;
},
{
anchors = (
{
name = bottom;
pos = (490,-460);
},
{
name = top;
pos = (490,860);
}
);
background = {
shapes = (
{
closed = 1;
nodes = (
(746,-481,o),
(927,-364,o),
(927,-160,cs),
(927,-3,o),
(819,91,o),
(622,91,cs),
(414,91,ls),
(343,91,o),
(309,122,o),
(310,188,cs),
(313,341,l),
(274,352,l),
(252,306,o),
(211,235,o),
(211,139,cs),
(211,9,o),
(288,-54,o),
(423,-54,cs),
(608,-54,ls),
(721,-54,o),
(790,-90,o),
(790,-203,cs),
(790,-337,o),
(692,-414,o),
(482,-414,cs),
(263,-414,o),
(209,-332,o),
(209,-232,cs),
(209,-140,o),
(256,-79,o),
(363,-53,c),
(344,-11,l),
(177,-39,o),
(77,-114,o),
(77,-243,cs),
(77,-388,o),
(199,-481,o),
(457,-481,cs)
);
},
{
closed = 1;
nodes = (
(652,300,o),
(805,403,o),
(805,590,cs),
(805,777,o),
(652,880,o),
(454,880,cs),
(258,880,o),
(105,777,o),
(105,590,cs),
(105,403,o),
(258,300,o),
(454,300,cs)
);
},
{
closed = 1;
nodes = (
(344,364,o),
(265,425,o),
(265,570,cs),
(265,610,ls),
(265,753,o),
(344,816,o),
(453,816,cs),
(566,816,o),
(645,753,o),
(645,610,cs),
(645,570,ls),
(645,427,o),
(566,364,o),
(453,364,cs)
);
},
{
closed = 1;
nodes = (
(946,792,l),
(946,860,l),
(579,860,l),
(609,792,l)
);
}
);
};
layerId = m002;
shapes = (
{
closed = 1;
nodes = (
(746,-481,o),
(927,-364,o),
(927,-160,cs),
(927,-3,o),
(819,91,o),
(622,91,cs),
(364,91,ls),
(280,91,o),
(240,122,o),
(240,188,cs),
(240,262,o),
(287,304,o),
(353,341,c),
(294,362,l),
(215,314,o),
(141,244,o),
(141,131,cs),
(141,12,o),
(218,-54,o),
(353,-54,cs),
(608,-54,ls),
(721,-54,o),
(790,-90,o),
(790,-203,cs),
(790,-337,o),
(692,-414,o),
(482,-414,cs),
(263,-414,o),
(209,-332,o),
(209,-232,cs),
(209,-140,o),
(256,-79,o),
(363,-53,c),
(344,-11,l),
(177,-39,o),
(77,-114,o),
(77,-243,cs),
(77,-388,o),
(199,-481,o),
(457,-481,cs)
);
},
{
closed = 1;
nodes = (
(652,300,o),
(805,403,o),
(805,590,cs),
(805,777,o),
(652,880,o),
(454,880,cs),
(258,880,o),
(105,777,o),
(105,590,cs),
(105,403,o),
(258,300,o),
(454,300,cs)
);
},
{
closed = 1;
nodes = (
(344,364,o),
(265,425,o),
(265,570,cs),
(265,610,ls),
(265,753,o),
(344,816,o),
(453,816,cs),
(566,816,o),
(645,753,o),
(645,610,cs),
(645,570,ls),
(645,427,o),
(566,364,o),
(453,364,cs)
);
},
{
closed = 1;
nodes = (
(946,792,l),
(946,860,l),
(579,860,l),
(609,792,l)
);
}
);
width = 980;
},
{
anchors = (
{
name = bottom;
pos = (490,-460);
},
{
name = top;
pos = (490,860);
}
);
associatedMasterId = m002;
background = {
shapes = (
{
closed = 1;
nodes = (
(785,-481,o),
(977,-364,o),
(977,-158,cs),
(977,-4,o),
(870,91,o),
(672,91,cs),
(364,91,ls),
(280,91,o),
(240,122,o),
(240,188,cs),
(240,262,o),
(287,304,o),
(353,341,c),
(294,362,l),
(215,314,o),
(141,244,o),
(141,131,cs),
(141,12,o),
(218,-54,o),
(353,-54,cs),
(658,-54,ls),
(770,-54,o),
(840,-90,o),
(840,-200,cs),
(840,-337,o),
(733,-414,o),
(504,-414,cs),
(267,-414,o),
(209,-331,o),
(209,-230,cs),
(209,-139,o),
(256,-79,o),
(363,-53,c),
(344,-11,l),
(177,-39,o),
(77,-114,o),
(77,-242,cs),
(77,-389,o),
(207,-481,o),
(479,-481,cs)
);
},
{
closed = 1;
nodes = (
(691,300,o),
(855,403,o),
(855,590,cs),
(855,777,o),
(691,880,o),
(479,880,cs),
(269,880,o),
(105,777,o),
(105,590,cs),
(105,403,o),
(269,300,o),
(479,300,cs)
);
},
{
closed = 1;
nodes = (
(355,367,o),
(265,427,o),
(265,570,cs),
(265,610,ls),
(265,751,o),
(354,813,o),
(478,813,cs),
(605,813,o),
(695,751,o),
(695,610,cs),
(695,570,ls),
(695,429,o),
(605,367,o),
(478,367,cs)
);
},
{
closed = 1;
nodes = (
(996,792,l),
(996,860,l),
(629,860,l),
(659,792,l)
);
}
);
};
layerId = "0F106B91-A143-4E47-9C93-C45C7A4A5A82";
name = "6 Jan 22 19.50";
shapes = (
{
closed = 1;
nodes = (
(746,-481,o),
(927,-364,o),
(927,-160,cs),
(927,-3,o),
(819,91,o),
(622,91,cs),
(364,91,ls),
(280,91,o),
(240,122,o),
(240,188,cs),
(240,262,o),
(287,304,o),
(353,341,c),
(294,362,l),
(215,314,o),
(141,244,o),
(141,131,cs),
(141,12,o),
(218,-54,o),
(353,-54,cs),
(608,-54,ls),
(721,-54,o),
(790,-90,o),
(790,-203,cs),
(790,-337,o),
(692,-414,o),
(482,-414,cs),
(263,-414,o),
(209,-332,o),
(209,-232,cs),
(209,-140,o),
(256,-79,o),
(363,-53,c),
(344,-11,l),
(177,-39,o),
(77,-114,o),
(77,-243,cs),
(77,-388,o),
(199,-481,o),
(457,-481,cs)
);
},
{
closed = 1;
nodes = (
(652,300,o),
(805,403,o),
(805,590,cs),
(805,777,o),
(652,880,o),
(454,880,cs),
(258,880,o),
(105,777,o),
(105,590,cs),
(105,403,o),
(258,300,o),
(454,300,cs)
);
},
{
closed = 1;
nodes = (
(344,364,o),
(265,425,o),
(265,570,cs),
(265,610,ls),
(265,753,o),
(344,816,o),
(453,816,cs),
(566,816,o),
(645,753,o),
(645,610,cs),
(645,570,ls),
(645,427,o),
(566,364,o),
(453,364,cs)
);
},
{
closed = 1;
nodes = (
(946,792,l),
(946,860,l),
(579,860,l),
(609,792,l)
);
}
);
width = 980;
},
{
anchors = (
{
name = bottom;
pos = (490,-460);
},
{
name = top;
pos = (490,860);
}
);
associatedMasterId = m002;
background = {
shapes = (
{
closed = 1;
nodes = (
(746,-481,o),
(927,-364,o),
(927,-160,cs),
(927,-3,o),
(819,91,o),
(622,91,cs),
(364,91,ls),
(280,91,o),
(240,122,o),
(240,188,cs),
(240,262,o),
(287,304,o),
(353,341,c),
(294,362,l),
(215,314,o),
(141,244,o),
(141,131,cs),
(141,12,o),
(218,-54,o),
(353,-54,cs),
(608,-54,ls),
(721,-54,o),
(790,-90,o),
(790,-203,cs),
(790,-337,o),
(692,-414,o),
(482,-414,cs),
(263,-414,o),
(209,-332,o),
(209,-232,cs),
(209,-140,o),
(256,-79,o),
(363,-53,c),
(344,-11,l),
(177,-39,o),
(77,-114,o),
(77,-243,cs),
(77,-388,o),
(199,-481,o),
(457,-481,cs)
);
},
{
closed = 1;
nodes = (
(652,300,o),
(805,403,o),
(805,590,cs),
(805,777,o),
(652,880,o),
(454,880,cs),
(258,880,o),
(105,777,o),
(105,590,cs),
(105,403,o),
(258,300,o),
(454,300,cs)
);
},
{
closed = 1;
nodes = (
(344,364,o),
(265,425,o),
(265,570,cs),
(265,610,ls),
(265,753,o),
(344,816,o),
(453,816,cs),
(566,816,o),
(645,753,o),
(645,610,cs),
(645,570,ls),
(645,427,o),
(566,364,o),
(453,364,cs)
);
},
{
closed = 1;
nodes = (
(946,792,l),
(946,860,l),
(579,860,l),
(609,792,l)
);
}
);
};
layerId = "FA776D2C-3091-44F3-8581-4458D53CF59A";
name = "6 Jan 22 19.50";
shapes = (
{
closed = 1;
nodes = (
(746,-481,o),
(927,-364,o),
(927,-160,cs),
(927,-3,o),
(819,91,o),
(622,91,cs),
(414,91,ls),
(343,91,o),
(309,122,o),
(310,188,cs),
(313,341,l),
(274,352,l),
(252,306,o),
(211,235,o),
(211,139,cs),
(211,9,o),
(288,-54,o),
(423,-54,cs),
(608,-54,ls),
(721,-54,o),
(790,-90,o),
(790,-203,cs),
(790,-337,o),
(692,-414,o),
(482,-414,cs),
(263,-414,o),
(209,-332,o),
(209,-232,cs),
(209,-140,o),
(256,-79,o),
(363,-53,c),
(344,-11,l),
(177,-39,o),
(77,-114,o),
(77,-243,cs),
(77,-388,o),
(199,-481,o),
(457,-481,cs)
);
},
{
closed = 1;
nodes = (
(652,300,o),
(805,403,o),
(805,590,cs),
(805,777,o),
(652,880,o),
(454,880,cs),
(258,880,o),
(105,777,o),
(105,590,cs),
(105,403,o),
(258,300,o),
(454,300,cs)
);
},
{
closed = 1;
nodes = (
(344,364,o),
(265,425,o),
(265,570,cs),
(265,610,ls),
(265,753,o),
(344,816,o),
(453,816,cs),
(566,816,o),
(645,753,o),
(645,610,cs),
(645,570,ls),
(645,427,o),
(566,364,o),
(453,364,cs)
);
},
{
closed = 1;
nodes = (
(946,792,l),
(946,860,l),
(579,860,l),
(609,792,l)
);
}
);
width = 980;
}
);
unicode = 103;
},
{
glyphname = h;
lastChange = "2022-03-29 10:30:16 +0000";
layers = (
{
anchors = (
{
name = bottom;
pos = (559,0);
},
{
name = center;
pos = (559,1048);
},
{
name = top;
pos = (559,2096);
}
);
background = {
shapes = (
{
closed = 1;
nodes = (
(468,0,l),
(468,46,l),
(374,56,l),
(359,68,l),
(352,109,o),
(349,165,o),
(349,204,cs),
(349,1420,l),
(299,1420,l),
(80,1390,l),
(80,1344,l),
(174,1334,l),
(189,1322,l),
(196,1281,o),
(199,1225,o),
(199,1186,cs),
(199,204,ls),
(199,165,o),
(196,109,o),
(189,68,c),
(174,56,l),
(80,46,l),
(80,0,l)
);
},
{
closed = 1;
nodes = (
(1048,0,l),
(1048,46,l),
(954,56,l),
(939,68,l),
(932,109,o),
(929,165,o),
(929,204,cs),
(929,570,ls),
(929,737,o),
(874,880,o),
(663,880,cs),
(509,880,o),
(410,803,o),
(368,738,c),
(344,738,l),
(325,649,l),
(349,649,l),
(419,741,o),
(492,775,o),
(593,775,cs),
(749,775,o),
(779,699,o),
(779,570,cs),
(779,204,ls),
(779,165,o),
(776,109,o),
(769,68,c),
(754,56,l),
(660,46,l),
(660,0,l)
);
}
);
};
layerId = m01;
shapes = (
{
closed = 1;
nodes = (
(1068,0,l),
(1068,46,l),
(974,56,l),
(959,68,l),
(952,109,o),
(949,165,o),
(949,204,cs),
(949,570,ls),
(949,761,o),
(892,880,o),
(683,880,cs),
(520,880,o),
(433,807,o),
(388,738,c),
(364,738,l),
(345,649,l),
(369,639,l),
(433,724,o),
(498,755,o),
(598,755,cs),
(749,755,o),
(779,685,o),
(779,570,cs),
(779,204,ls),
(779,165,o),
(776,109,o),
(769,68,c),
(754,56,l),
(660,46,l),
(660,0,l)
);
},
{
closed = 1;
nodes = (
(488,0,l),
(488,46,l),
(394,56,l),
(379,68,l),
(372,109,o),
(369,165,o),
(369,204,cs),
(369,1420,l),
(319,1420,l),
(80,1390,l),
(80,1344,l),
(174,1334,l),
(189,1322,l),
(196,1281,o),
(199,1225,o),
(199,1186,cs),
(199,204,ls),
(199,165,o),
(196,109,o),
(189,68,c),
(174,56,l),
(80,46,l),
(80,0,l)
);
}
);
width = 1138;
},
{
anchors = (
{
name = bottom;
pos = (539,0);
},
{
name = center;
pos = (539,1048);
},
{
name = top;
pos = (539,2096);
}
);
background = {
shapes = (
{
closed = 1;
nodes = (
(978,0,l),
(978,46,l),
(884,56,l),
(869,68,l),
(862,109,o),
(859,165,o),
(859,204,cs),
(859,570,ls),
(859,737,o),
(809,880,o),
(618,880,cs),
(477,880,o),
(400,803,o),
(348,738,c),
(324,738,l),
(305,649,l),
(329,649,l),
(392,734,o),
(459,775,o),
(552,775,cs),
(686,775,o),
(709,689,o),
(709,560,cs),
(709,204,ls),
(709,165,o),
(706,109,o),
(699,68,c),
(684,56,l),
(590,46,l),
(590,0,l)
);
},
{
closed = 1;
nodes = (
(448,0,l),
(448,46,l),
(354,56,l),
(339,68,l),
(332,109,o),
(329,165,o),
(329,204,cs),
(329,1420,l),
(279,1420,l),
(60,1390,l),
(60,1344,l),
(154,1334,l),
(169,1322,l),
(176,1281,o),
(179,1225,o),
(179,1186,cs),
(179,204,ls),
(179,165,o),
(176,109,o),
(169,68,c),
(154,56,l),
(60,46,l),
(60,0,l)
);
}
);
};
layerId = m002;
shapes = (
{
closed = 1;
nodes = (
(448,0,l),
(448,46,l),
(354,56,l),
(339,68,l),
(332,109,o),
(329,165,o),
(329,204,cs),
(329,1420,l),
(279,1420,l),
(60,1390,l),
(60,1344,l),
(154,1334,l),
(169,1322,l),
(176,1281,o),
(179,1225,o),
(179,1186,cs),
(179,204,ls),
(179,165,o),
(176,109,o),
(169,68,c),
(154,56,l),
(60,46,l),
(60,0,l)
);
},
{
closed = 1;
nodes = (
(1028,0,l),
(1028,46,l),
(934,56,l),
(919,68,l),
(912,109,o),
(909,165,o),
(909,204,cs),
(909,570,ls),
(909,737,o),
(854,880,o),
(643,880,cs),
(489,880,o),
(390,803,o),
(348,738,c),
(324,738,l),
(305,649,l),
(329,649,l),
(399,741,o),
(472,775,o),
(573,775,cs),
(729,775,o),
(759,699,o),
(759,570,cs),
(759,204,ls),
(759,165,o),
(756,109,o),
(749,68,c),
(734,56,l),
(640,46,l),
(640,0,l)
);
}
);
width = 1078;
},
{
anchors = (
{
name = bottom;
pos = (559,0);
},
{
name = center;
pos = (559,1048);
},
{
name = top;
pos = (559,2096);
}
);
associatedMasterId = m01;
background = {
shapes = (
{
closed = 1;
nodes = (
(998,0,l),
(998,46,l),
(904,56,l),
(889,68,l),
(882,109,o),
(879,165,o),
(879,204,cs),
(879,570,ls),
(879,737,o),
(829,880,o),
(638,880,cs),
(497,880,o),
(420,803,o),
(368,738,c),
(344,738,l),
(325,649,l),
(349,649,l),
(412,734,o),
(479,775,o),
(572,775,cs),
(706,775,o),
(729,689,o),
(729,560,cs),
(729,204,ls),
(729,165,o),
(726,109,o),
(719,68,c),
(704,56,l),
(610,46,l),
(610,0,l)
);
},
{
closed = 1;
nodes = (
(468,0,l),
(468,46,l),
(374,56,l),
(359,68,l),
(352,109,o),
(349,165,o),
(349,204,cs),
(349,1420,l),
(299,1420,l),
(80,1390,l),
(80,1344,l),
(174,1334,l),
(189,1322,l),
(196,1281,o),
(199,1225,o),
(199,1186,cs),
(199,204,ls),
(199,165,o),
(196,109,o),
(189,68,c),
(174,56,l),
(80,46,l),
(80,0,l)
);
}
);
};
layerId = "887873EC-F389-4B48-9372-3D912817BFA2";
name = "29 Mar 22 17.30";
shapes = (
{
closed = 1;
nodes = (
(468,0,l),
(468,46,l),
(374,56,l),
(359,68,l),
(352,109,o),
(349,165,o),
(349,204,cs),
(349,1420,l),
(299,1420,l),
(80,1390,l),
(80,1344,l),
(174,1334,l),
(189,1322,l),
(196,1281,o),
(199,1225,o),
(199,1186,cs),
(199,204,ls),
(199,165,o),
(196,109,o),
(189,68,c),
(174,56,l),
(80,46,l),
(80,0,l)
);
},
{
closed = 1;
nodes = (
(1048,0,l),
(1048,46,l),
(954,56,l),
(939,68,l),
(932,109,o),
(929,165,o),
(929,204,cs),
(929,570,ls),
(929,737,o),
(874,880,o),
(663,880,cs),
(509,880,o),
(410,803,o),
(368,738,c),
(344,738,l),
(325,649,l),
(349,649,l),
(419,741,o),
(492,775,o),
(593,775,cs),
(749,775,o),
(779,699,o),
(779,570,cs),
(779,204,ls),
(779,165,o),
(776,109,o),
(769,68,c),
(754,56,l),
(660,46,l),
(660,0,l)
);
}
);
width = 1118;
}
);
metricLeft = n;
metricRight = n;
unicode = 104;
},
{
color = 9;
glyphname = idotless;
lastChange = "2022-03-29 10:50:44 +0000";
layers = (
{
anchors = (
{
name = bottom;
pos = (289,0);
},
{
name = ogonek;
pos = (488,0);
},
{
name = top;
pos = (289,860);
}
);
layerId = m01;
shapes = (
{
closed = 1;
nodes = (
(488,0,l),
(488,46,l),
(394,56,l),
(379,68,l),
(372,109,o),
(369,165,o),
(369,204,cs),
(369,860,l),
(299,860,l),
(80,830,l),
(80,784,l),
(174,774,l),
(189,762,l),
(196,721,o),
(199,665,o),
(199,626,cs),
(199,204,ls),
(199,165,o),
(196,109,o),
(189,68,c),
(174,56,l),
(80,46,l),
(80,0,l)
);
}
);
width = 568;
},
{
anchors = (
{
name = bottom;
pos = (249,0);
},
{
name = ogonek;
pos = (448,0);
},
{
name = top;
pos = (309,860);
}
);
layerId = m002;
shapes = (
{
closed = 1;
nodes = (
(558,0,l),
(558,96,l),
(464,106,l),
(449,118,l),
(442,159,o),
(439,215,o),
(439,254,cs),
(439,860,l),
(389,860,l),
(60,810,l),
(60,714,l),
(154,704,l),
(169,692,l),
(176,651,o),
(179,595,o),
(179,556,cs),
(179,254,ls),
(179,215,o),
(176,159,o),
(169,118,c),
(154,106,l),
(60,96,l),
(60,0,l)
);
}
);
width = 618;
}
);
metricLeft = n;
metricRight = u;
unicode = 305;
},
{
glyphname = jdotless;
lastChange = "2022-03-26 12:08:47 +0000";
layers = (
{
anchors = (
{
name = bottom;
pos = (294,-350);
},
{
name = top;
pos = (270,860);
}
);
layerId = m01;
shapes = (
{
closed = 1;
nodes = (
(251,-404,o),
(369,-328,o),
(369,4,cs),
(369,860,l),
(319,860,l),
(100,830,l),
(100,784,l),
(194,774,l),
(209,762,l),
(216,721,o),
(219,665,o),
(219,626,cs),
(219,4,ls),
(219,-215,o),
(197,-346,o),
(59,-429,c),
(81,-470,l)
);
}
);
width = 540;
},
{
anchors = (
{
name = bottom;
pos = (294,-350);
},
{
name = top;
pos = (270,860);
}
);
layerId = m002;
shapes = (
{
closed = 1;
nodes = (
(251,-404,o),
(369,-328,o),
(369,4,cs),
(369,860,l),
(319,860,l),
(100,830,l),
(100,784,l),
(194,774,l),
(209,762,l),
(216,721,o),
(219,665,o),
(219,626,cs),
(219,4,ls),
(219,-215,o),
(197,-346,o),
(59,-429,c),
(81,-470,l)
);
}
);
width = 540;
}
);
unicode = 567;
},
{
glyphname = k;
lastChange = "2022-03-28 09:43:49 +0000";
layers = (
{
anchors = (
{
name = bottom;
pos = (565,0);
},
{
name = top;
pos = (545,2096);
}
);
layerId = m01;
shapes = (
{
closed = 1;
nodes = (
(488,0,l),
(488,46,l),
(394,56,l),
(379,68,l),
(372,109,o),
(369,165,o),
(369,204,cs),
(369,1420,l),
(319,1420,l),
(80,1390,l),
(80,1344,l),
(174,1334,l),
(189,1322,l),
(196,1281,o),
(199,1225,o),
(199,1186,cs),
(199,204,ls),
(199,165,o),
(196,109,o),
(189,68,c),
(174,56,l),
(80,46,l),
(80,0,l)
);
},
{
closed = 1;
nodes = (
(484,464,l),
(729,72,l),
(722,56,l),
(622,46,l),
(622,0,l),
(1038,0,l),
(1038,46,l),
(946,56,l),
(931,68,l),
(902,109,o),
(887,130,o),
(859,174,cs),
(634,526,l)
);
},
{
closed = 1;
nodes = (
(793,696,ls),
(828,735,o),
(849,755,o),
(889,792,c),
(904,804,l),
(998,814,l),
(998,860,l),
(686,860,l),
(686,814,l),
(778,804,l),
(788,787,l),
(497,464,l),
(582,464,l)
);
},
{
closed = 1;
nodes = (
(322,453,l),
(611,453,l),
(611,524,l),
(322,524,l)
);
}
);
width = 1070;
},
{
anchors = (
{
name = bottom;
pos = (525,0);
},
{
name = top;
pos = (505,2096);
}
);
layerId = m002;
shapes = (
{
closed = 1;
nodes = (
(448,0,l),
(448,46,l),
(354,56,l),
(339,68,l),
(332,109,o),
(329,165,o),
(329,204,cs),
(329,1420,l),
(279,1420,l),
(60,1390,l),
(60,1344,l),
(154,1334,l),
(169,1322,l),
(176,1281,o),
(179,1225,o),
(179,1186,cs),
(179,204,ls),
(179,165,o),
(176,109,o),
(169,68,c),
(154,56,l),
(60,46,l),
(60,0,l)
);
},
{
closed = 1;
nodes = (
(464,464,l),
(709,72,l),
(702,56,l),
(602,46,l),
(602,0,l),
(998,0,l),
(998,46,l),
(906,56,l),
(891,68,l),
(862,109,o),
(847,130,o),
(819,174,cs),
(594,526,l)
);
},
{
closed = 1;
nodes = (
(753,696,ls),
(788,735,o),
(809,755,o),
(849,792,c),
(864,804,l),
(958,814,l),
(958,860,l),
(656,860,l),
(656,814,l),
(748,804,l),
(758,787,l),
(467,464,l),
(542,464,l)
);
},
{
closed = 1;
nodes = (
(282,458,l),
(571,458,l),
(571,519,l),
(282,519,l)
);
}
);
width = 1030;
}
);
metricLeft = h;
unicode = 107;
},
{
glyphname = l;
lastChange = "2022-03-26 16:04:20 +0000";
layers = (
{
anchors = (
{
name = bottom;
pos = (279,0);
},
{
name = center;
pos = (279,1048);
},
{
name = top;
pos = (279,2096);
},
{
name = topright;
pos = (548,2096);
}
);
background = {
shapes = (
{
pos = (-10,0);
ref = b;
}
);
};
layerId = m01;
shapes = (
{
closed = 1;
nodes = (
(478,0,l),
(478,46,l),
(384,56,l),
(369,68,l),
(362,109,o),
(359,165,o),
(359,204,cs),
(359,1420,l),
(309,1420,l),
(70,1390,l),
(70,1344,l),
(164,1334,l),
(179,1322,l),
(186,1281,o),
(189,1225,o),
(189,1186,cs),
(189,204,ls),
(189,165,o),
(186,109,o),
(179,68,c),
(164,56,l),
(70,46,l),
(70,0,l)
);
}
);
width = 568;
},
{
anchors = (
{
name = bottom;
pos = (249,0);
},
{
name = center;
pos = (249,1048);
},
{
name = top;
pos = (249,2096);
},
{
name = topright;
pos = (518,2096);
}
);
background = {
shapes = (
{
pos = (-40,0);
ref = b;
}
);
};
layerId = m002;
shapes = (
{
closed = 1;
nodes = (
(558,0,l),
(558,96,l),
(464,106,l),
(449,118,l),
(442,159,o),
(439,215,o),
(439,254,cs),
(439,1420,l),
(389,1420,l),
(60,1390,l),
(60,1294,l),
(154,1284,l),
(169,1272,l),
(176,1231,o),
(179,1175,o),
(179,1136,cs),
(179,254,ls),
(179,215,o),
(176,159,o),
(169,118,c),
(154,106,l),
(60,96,l),
(60,0,l)
);
}
);
width = 618;
}
);
unicode = 108;
},
{
glyphname = m;
lastChange = "2022-03-28 09:43:49 +0000";
layers = (
{
anchors = (
{
name = bottom;
pos = (799,0);
},
{
name = top;
pos = (799,860);
}
);
background = {
shapes = (
{
closed = 1;
nodes = (
(998,0,l),
(998,46,l),
(904,56,l),
(889,68,l),
(882,109,o),
(879,165,o),
(879,204,cs),
(879,570,ls),
(879,737,o),
(829,880,o),
(639,880,cs),
(498,880,o),
(420,803,o),
(368,738,c),
(344,738,l),
(325,649,l),
(349,649,l),
(412,734,o),
(480,775,o),
(573,775,cs),
(706,775,o),
(729,689,o),
(729,560,cs),
(729,204,ls),
(729,165,o),
(726,109,o),
(719,68,c),
(704,56,l),
(610,46,l),
(610,0,l)
);
},
{
closed = 1;
nodes = (
(468,0,l),
(468,46,l),
(374,56,l),
(359,68,l),
(352,109,o),
(349,165,o),
(349,204,cs),
(349,860,l),
(299,860,l),
(80,830,l),
(80,784,l),
(174,774,l),
(189,762,l),
(196,721,o),
(199,665,o),
(199,626,cs),
(199,204,ls),
(199,165,o),
(196,109,o),
(189,68,c),
(174,56,l),
(80,46,l),
(80,0,l)
);
},
{
closed = 1;
nodes = (
(1528,0,l),
(1528,46,l),
(1434,56,l),
(1419,68,l),
(1412,109,o),
(1409,165,o),
(1409,204,cs),
(1409,570,ls),
(1409,737,o),
(1358,880,o),
(1164,880,cs),
(1017,880,o),
(935,798,o),
(881,728,c),
(858,728,l),
(849,639,l),
(873,639,l),
(938,731,o),
(1006,775,o),
(1101,775,cs),
(1236,775,o),
(1259,689,o),
(1259,560,cs),
(1259,204,ls),
(1259,165,o),
(1256,109,o),
(1249,68,c),
(1234,56,l),
(1140,46,l),
(1140,0,l)
);
}
);
};
layerId = m01;
shapes = (
{
closed = 1;
nodes = (
(998,0,l),
(998,46,l),
(904,56,l),
(889,68,l),
(882,109,o),
(879,165,o),
(879,204,cs),
(879,570,ls),
(879,737,o),
(829,880,o),
(639,880,cs),
(498,880,o),
(415,804,o),
(368,738,c),
(344,738,l),
(325,649,l),
(349,649,l),
(412,734,o),
(476,765,o),
(564,765,cs),
(701,765,o),
(729,691,o),
(729,560,cs),
(729,204,ls),
(729,165,o),
(726,109,o),
(719,68,c),
(704,56,l),
(610,46,l),
(610,0,l)
);
},
{
closed = 1;
nodes = (
(468,0,l),
(468,46,l),
(374,56,l),
(359,68,l),
(352,109,o),
(349,165,o),
(349,204,cs),
(349,860,l),
(299,860,l),
(80,830,l),
(80,784,l),
(174,774,l),
(189,762,l),
(196,721,o),
(199,665,o),
(199,626,cs),
(199,204,ls),
(199,165,o),
(196,109,o),
(189,68,c),
(174,56,l),
(80,46,l),
(80,0,l)
);
},
{
closed = 1;
nodes = (
(1528,0,l),
(1528,46,l),
(1434,56,l),
(1419,68,l),
(1412,109,o),
(1409,165,o),
(1409,204,cs),
(1409,570,ls),
(1409,737,o),
(1358,880,o),
(1164,880,cs),
(1017,880,o),
(930,799,o),
(881,728,c),
(858,728,l),
(849,639,l),
(873,639,l),
(938,731,o),
(1001,765,o),
(1094,765,cs),
(1231,765,o),
(1259,690,o),
(1259,560,cs),
(1259,204,ls),
(1259,165,o),
(1256,109,o),
(1249,68,c),
(1234,56,l),
(1140,46,l),
(1140,0,l)
);
}
);
width = 1598;
},
{
associatedMasterId = m01;
background = {
shapes = (
{
closed = 1;
nodes = (
(998,0,l),
(998,46,l),
(904,56,l),
(889,68,l),
(882,109,o),
(879,165,o),
(879,204,cs),
(879,570,ls),
(879,737,o),
(829,880,o),
(639,880,cs),
(498,880,o),
(420,803,o),
(368,738,c),
(344,738,l),
(325,649,l),
(349,649,l),
(412,734,o),
(480,775,o),
(573,775,cs),
(706,775,o),
(729,689,o),
(729,560,cs),
(729,204,ls),
(729,165,o),
(726,109,o),
(719,68,c),
(704,56,l),
(610,46,l),
(610,0,l)
);
},
{
closed = 1;
nodes = (
(468,0,l),
(468,46,l),
(374,56,l),
(359,68,l),
(352,109,o),
(349,165,o),
(349,204,cs),
(349,860,l),
(299,860,l),
(80,830,l),
(80,784,l),
(174,774,l),
(189,762,l),
(196,721,o),
(199,665,o),
(199,626,cs),
(199,204,ls),
(199,165,o),
(196,109,o),
(189,68,c),
(174,56,l),
(80,46,l),
(80,0,l)
);
},
{
closed = 1;
nodes = (
(1528,0,l),
(1528,46,l),
(1434,56,l),
(1419,68,l),
(1412,109,o),
(1409,165,o),
(1409,204,cs),
(1409,570,ls),
(1409,737,o),
(1358,880,o),
(1164,880,cs),
(1017,880,o),
(935,798,o),
(881,728,c),
(858,728,l),
(849,639,l),
(873,639,l),
(938,731,o),
(1006,775,o),
(1101,775,cs),
(1236,775,o),
(1259,689,o),
(1259,560,cs),
(1259,204,ls),
(1259,165,o),
(1256,109,o),
(1249,68,c),
(1234,56,l),
(1140,46,l),
(1140,0,l)
);
}
);
};
layerId = "94377011-AF65-4A98-8FE0-63414CDE34C0";
name = "22 Nov 21 15.05";
shapes = (
{
closed = 1;
nodes = (
(998,0,l),
(998,46,l),
(904,56,l),
(889,68,l),
(882,109,o),
(879,165,o),
(879,204,cs),
(879,570,ls),
(879,737,o),
(829,880,o),
(639,880,cs),
(498,880,o),
(420,803,o),
(368,738,c),
(344,738,l),
(325,649,l),
(349,649,l),
(412,734,o),
(480,775,o),
(573,775,cs),
(706,775,o),
(729,689,o),
(729,560,cs),
(729,204,ls),
(729,165,o),
(726,109,o),
(719,68,c),
(704,56,l),
(610,46,l),
(610,0,l)
);
},
{
closed = 1;
nodes = (
(468,0,l),
(468,46,l),
(374,56,l),
(359,68,l),
(352,109,o),
(349,165,o),
(349,204,cs),
(349,860,l),
(299,860,l),
(80,830,l),
(80,784,l),
(174,774,l),
(189,762,l),
(196,721,o),
(199,665,o),
(199,626,cs),
(199,204,ls),
(199,165,o),
(196,109,o),
(189,68,c),
(174,56,l),
(80,46,l),
(80,0,l)
);
},
{
closed = 1;
nodes = (
(1528,0,l),
(1528,46,l),
(1434,56,l),
(1419,68,l),
(1412,109,o),
(1409,165,o),
(1409,204,cs),
(1409,570,ls),
(1409,737,o),
(1358,880,o),
(1164,880,cs),
(1017,880,o),
(935,798,o),
(881,728,c),
(858,728,l),
(849,639,l),
(873,639,l),
(938,731,o),
(1006,775,o),
(1101,775,cs),
(1236,775,o),
(1259,689,o),
(1259,560,cs),
(1259,204,ls),
(1259,165,o),
(1256,109,o),
(1249,68,c),
(1234,56,l),
(1140,46,l),
(1140,0,l)
);
}
);
width = 1598;
},
{
anchors = (
{
name = bottom;
pos = (779,0);
},
{
name = top;
pos = (779,860);
}
);
background = {
shapes = (
{
closed = 1;
nodes = (
(978,0,l),
(978,46,l),
(884,56,l),
(869,68,l),
(862,109,o),
(859,165,o),
(859,204,cs),
(859,570,ls),
(859,737,o),
(809,880,o),
(619,880,cs),
(478,880,o),
(400,803,o),
(348,738,c),
(324,738,l),
(305,649,l),
(329,649,l),
(392,734,o),
(460,775,o),
(553,775,cs),
(686,775,o),
(709,689,o),
(709,560,cs),
(709,204,ls),
(709,165,o),
(706,109,o),
(699,68,c),
(684,56,l),
(590,46,l),
(590,0,l)
);
},
{
closed = 1;
nodes = (
(448,0,l),
(448,46,l),
(354,56,l),
(339,68,l),
(332,109,o),
(329,165,o),
(329,204,cs),
(329,860,l),
(279,860,l),
(60,830,l),
(60,784,l),
(154,774,l),
(169,762,l),
(176,721,o),
(179,665,o),
(179,626,cs),
(179,204,ls),
(179,165,o),
(176,109,o),
(169,68,c),
(154,56,l),
(60,46,l),
(60,0,l)
);
},
{
closed = 1;
nodes = (
(1508,0,l),
(1508,46,l),
(1414,56,l),
(1399,68,l),
(1392,109,o),
(1389,165,o),
(1389,204,cs),
(1389,570,ls),
(1389,737,o),
(1338,880,o),
(1144,880,cs),
(997,880,o),
(915,798,o),
(861,728,c),
(838,728,l),
(829,639,l),
(853,639,l),
(918,731,o),
(986,775,o),
(1081,775,cs),
(1216,775,o),
(1239,689,o),
(1239,560,cs),
(1239,204,ls),
(1239,165,o),
(1236,109,o),
(1229,68,c),
(1214,56,l),
(1120,46,l),
(1120,0,l)
);
}
);
};
layerId = m002;
shapes = (
{
closed = 1;
nodes = (
(978,0,l),
(978,46,l),
(884,56,l),
(869,68,l),
(862,109,o),
(859,165,o),
(859,204,cs),
(859,570,ls),
(859,737,o),
(809,880,o),
(619,880,cs),
(478,880,o),
(395,804,o),
(348,738,c),
(324,738,l),
(305,649,l),
(329,649,l),
(392,734,o),
(456,765,o),
(544,765,cs),
(681,765,o),
(709,691,o),
(709,560,cs),
(709,204,ls),
(709,165,o),
(706,109,o),
(699,68,c),
(684,56,l),
(590,46,l),
(590,0,l)
);
},
{
closed = 1;
nodes = (
(448,0,l),
(448,46,l),
(354,56,l),
(339,68,l),
(332,109,o),
(329,165,o),
(329,204,cs),
(329,860,l),
(279,860,l),
(60,830,l),
(60,784,l),
(154,774,l),
(169,762,l),
(176,721,o),
(179,665,o),
(179,626,cs),
(179,204,ls),
(179,165,o),
(176,109,o),
(169,68,c),
(154,56,l),
(60,46,l),
(60,0,l)
);
},
{
closed = 1;
nodes = (
(1508,0,l),
(1508,46,l),
(1414,56,l),
(1399,68,l),
(1392,109,o),
(1389,165,o),
(1389,204,cs),
(1389,570,ls),
(1389,737,o),
(1338,880,o),
(1144,880,cs),
(997,880,o),
(910,799,o),
(861,728,c),
(838,728,l),
(829,639,l),
(853,639,l),
(918,731,o),
(981,765,o),
(1074,765,cs),
(1211,765,o),
(1239,690,o),
(1239,560,cs),
(1239,204,ls),
(1239,165,o),
(1236,109,o),
(1229,68,c),
(1214,56,l),
(1120,46,l),
(1120,0,l)
);
}
);
width = 1558;
},
{
associatedMasterId = m002;
background = {
shapes = (
{
closed = 1;
nodes = (
(998,0,l),
(998,46,l),
(904,56,l),
(889,68,l),
(882,109,o),
(879,165,o),
(879,204,cs),
(879,570,ls),
(879,737,o),
(829,880,o),
(639,880,cs),
(498,880,o),
(420,803,o),
(368,738,c),
(344,738,l),
(325,649,l),
(349,649,l),
(412,734,o),
(480,775,o),
(573,775,cs),
(706,775,o),
(729,689,o),
(729,560,cs),
(729,204,ls),
(729,165,o),
(726,109,o),
(719,68,c),
(704,56,l),
(610,46,l),
(610,0,l)
);
},
{
closed = 1;
nodes = (
(468,0,l),
(468,46,l),
(374,56,l),
(359,68,l),
(352,109,o),
(349,165,o),
(349,204,cs),
(349,860,l),
(299,860,l),
(80,830,l),
(80,784,l),
(174,774,l),
(189,762,l),
(196,721,o),
(199,665,o),
(199,626,cs),
(199,204,ls),
(199,165,o),
(196,109,o),
(189,68,c),
(174,56,l),
(80,46,l),
(80,0,l)
);
},
{
closed = 1;
nodes = (
(1528,0,l),
(1528,46,l),
(1434,56,l),
(1419,68,l),
(1412,109,o),
(1409,165,o),
(1409,204,cs),
(1409,570,ls),
(1409,737,o),
(1358,880,o),
(1164,880,cs),
(1017,880,o),
(935,798,o),
(881,728,c),
(858,728,l),
(849,639,l),
(873,639,l),
(938,731,o),
(1006,775,o),
(1101,775,cs),
(1236,775,o),
(1259,689,o),
(1259,560,cs),
(1259,204,ls),
(1259,165,o),
(1256,109,o),
(1249,68,c),
(1234,56,l),
(1140,46,l),
(1140,0,l)
);
}
);
};
layerId = "C48066D7-C06E-45F9-8AEE-61039B25D5BA";
name = "22 Nov 21 15.05";
shapes = (
{
closed = 1;
nodes = (
(998,0,l),
(998,46,l),
(904,56,l),
(889,68,l),
(882,109,o),
(879,165,o),
(879,204,cs),
(879,570,ls),
(879,737,o),
(829,880,o),
(639,880,cs),
(498,880,o),
(420,803,o),
(368,738,c),
(344,738,l),
(325,649,l),
(349,649,l),
(412,734,o),
(480,775,o),
(573,775,cs),
(706,775,o),
(729,689,o),
(729,560,cs),
(729,204,ls),
(729,165,o),
(726,109,o),
(719,68,c),
(704,56,l),
(610,46,l),
(610,0,l)
);
},
{
closed = 1;
nodes = (
(468,0,l),
(468,46,l),
(374,56,l),
(359,68,l),
(352,109,o),
(349,165,o),
(349,204,cs),
(349,860,l),
(299,860,l),
(80,830,l),
(80,784,l),
(174,774,l),
(189,762,l),
(196,721,o),
(199,665,o),
(199,626,cs),
(199,204,ls),
(199,165,o),
(196,109,o),
(189,68,c),
(174,56,l),
(80,46,l),
(80,0,l)
);
},
{
closed = 1;
nodes = (
(1528,0,l),
(1528,46,l),
(1434,56,l),
(1419,68,l),
(1412,109,o),
(1409,165,o),
(1409,204,cs),
(1409,570,ls),
(1409,737,o),
(1358,880,o),
(1164,880,cs),
(1017,880,o),
(935,798,o),
(881,728,c),
(858,728,l),
(849,639,l),
(873,639,l),
(938,731,o),
(1006,775,o),
(1101,775,cs),
(1236,775,o),
(1259,689,o),
(1259,560,cs),
(1259,204,ls),
(1259,165,o),
(1256,109,o),
(1249,68,c),
(1234,56,l),
(1140,46,l),
(1140,0,l)
);
}
);
width = 1598;
}
);
metricLeft = n;
metricRight = n;
unicode = 109;
},
{
color = 9;
glyphname = n;
lastChange = "2022-03-29 10:51:00 +0000";
layers = (
{
anchors = (
{
name = bottom;
pos = (569,0);
},
{
name = top;
pos = (569,860);
}
);
background = {
shapes = (
{
closed = 1;
nodes = (
(1048,0,l),
(1048,46,l),
(954,56,l),
(939,68,l),
(932,109,o),
(929,165,o),
(929,204,cs),
(929,570,ls),
(929,737,o),
(874,880,o),
(663,880,cs),
(509,880,o),
(410,803,o),
(368,738,c),
(344,738,l),
(325,649,l),
(349,649,l),
(419,734,o),
(492,765,o),
(591,765,cs),
(749,765,o),
(779,690,o),
(779,560,cs),
(779,204,ls),
(779,165,o),
(776,109,o),
(769,68,c),
(754,56,l),
(660,46,l),
(660,0,l)
);
},
{
closed = 1;
nodes = (
(468,0,l),
(468,46,l),
(374,56,l),
(359,68,l),
(352,109,o),
(349,165,o),
(349,204,cs),
(349,860,l),
(299,860,l),
(80,830,l),
(80,784,l),
(174,774,l),
(189,762,l),
(196,721,o),
(199,665,o),
(199,626,cs),
(199,204,ls),
(199,165,o),
(196,109,o),
(189,68,c),
(174,56,l),
(80,46,l),
(80,0,l)
);
}
);
};
layerId = m01;
shapes = (
{
closed = 1;
nodes = (
(1068,0,l),
(1068,56,l),
(974,66,l),
(959,78,l),
(952,119,o),
(949,175,o),
(949,214,cs),
(949,570,ls),
(949,760,o),
(890,880,o),
(668,880,cs),
(498,880,o),
(431,807,o),
(388,738,c),
(364,738,l),
(349,639,l),
(369,639,l),
(433,720,o),
(497,755,o),
(601,755,cs),
(749,755,o),
(779,684,o),
(779,570,cs),
(779,214,ls),
(779,175,o),
(776,119,o),
(769,78,c),
(754,66,l),
(660,56,l),
(660,0,l)
);
},
{
closed = 1;
nodes = (
(488,0,l),
(488,56,l),
(394,66,l),
(379,78,l),
(372,119,o),
(369,175,o),
(369,214,cs),
(369,860,l),
(319,860,l),
(80,830,l),
(80,774,l),
(174,764,l),
(189,752,l),
(196,711,o),
(199,655,o),
(199,616,cs),
(199,214,ls),
(199,175,o),
(196,119,o),
(189,78,c),
(174,66,l),
(80,56,l),
(80,0,l)
);
}
);
width = 1138;
},
{
associatedMasterId = m01;
layerId = "C44855F2-C8E7-4929-BBE4-D4E7787F3CD4";
name = "22 Nov 21 15.05";
shapes = (
{
closed = 1;
nodes = (
(1008,0,l),
(1008,46,l),
(914,56,l),
(899,68,l),
(892,109,o),
(889,165,o),
(889,204,cs),
(889,570,ls),
(889,737,o),
(838,880,o),
(643,880,cs),
(499,880,o),
(421,803,o),
(368,738,c),
(344,738,l),
(325,649,l),
(349,649,l),
(413,734,o),
(482,775,o),
(577,775,cs),
(715,775,o),
(739,689,o),
(739,560,cs),
(739,204,ls),
(739,165,o),
(736,109,o),
(729,68,c),
(714,56,l),
(620,46,l),
(620,0,l)
);
},
{
closed = 1;
nodes = (
(468,0,l),
(468,46,l),
(374,56,l),
(359,68,l),
(352,109,o),
(349,165,o),
(349,204,cs),
(349,860,l),
(299,860,l),
(80,830,l),
(80,784,l),
(174,774,l),
(189,762,l),
(196,721,o),
(199,665,o),
(199,626,cs),
(199,204,ls),
(199,165,o),
(196,109,o),
(189,68,c),
(174,56,l),
(80,46,l),
(80,0,l)
);
}
);
width = 1078;
},
{
associatedMasterId = m01;
background = {
shapes = (
{
closed = 1;
nodes = (
(1008,0,l),
(1008,46,l),
(914,56,l),
(899,68,l),
(892,109,o),
(889,165,o),
(889,204,cs),
(889,570,ls),
(889,737,o),
(838,880,o),
(643,880,cs),
(499,880,o),
(421,803,o),
(368,738,c),
(344,738,l),
(325,649,l),
(349,649,l),
(413,734,o),
(482,775,o),
(577,775,cs),
(715,775,o),
(739,689,o),
(739,560,cs),
(739,204,ls),
(739,165,o),
(736,109,o),
(729,68,c),
(714,56,l),
(620,46,l),
(620,0,l)
);
},
{
closed = 1;
nodes = (
(468,0,l),
(468,46,l),
(374,56,l),
(359,68,l),
(352,109,o),
(349,165,o),
(349,204,cs),
(349,860,l),
(299,860,l),
(80,830,l),
(80,784,l),
(174,774,l),
(189,762,l),
(196,721,o),
(199,665,o),
(199,626,cs),
(199,204,ls),
(199,165,o),
(196,109,o),
(189,68,c),
(174,56,l),
(80,46,l),
(80,0,l)
);
}
);
};
layerId = "C1983EA0-8C6A-4A8E-A443-E5E2059DA328";
name = "1 Jan 22 16.45";
shapes = (
{
closed = 1;
nodes = (
(1048,0,l),
(1048,46,l),
(954,56,l),
(939,68,l),
(932,109,o),
(929,165,o),
(929,204,cs),
(929,570,ls),
(929,737,o),
(874,880,o),
(663,880,cs),
(509,880,o),
(410,803,o),
(368,738,c),
(344,738,l),
(325,649,l),
(349,649,l),
(419,734,o),
(492,765,o),
(591,765,cs),
(749,765,o),
(779,690,o),
(779,560,cs),
(779,204,ls),
(779,165,o),
(776,109,o),
(769,68,c),
(754,56,l),
(660,46,l),
(660,0,l)
);
},
{
closed = 1;
nodes = (
(468,0,l),
(468,46,l),
(374,56,l),
(359,68,l),
(352,109,o),
(349,165,o),
(349,204,cs),
(349,860,l),
(299,860,l),
(80,830,l),
(80,784,l),
(174,774,l),
(189,762,l),
(196,721,o),
(199,665,o),
(199,626,cs),
(199,204,ls),
(199,165,o),
(196,109,o),
(189,68,c),
(174,56,l),
(80,46,l),
(80,0,l)
);
}
);
width = 1118;
},
{
anchors = (
{
name = bottom;
pos = (574,0);
},
{
name = top;
pos = (574,860);
}
);
background = {
shapes = (
{
closed = 1;
nodes = (
(1028,0,l),
(1028,46,l),
(934,56,l),
(919,68,l),
(912,109,o),
(909,165,o),
(909,204,cs),
(909,570,ls),
(909,737,o),
(854,880,o),
(643,880,cs),
(489,880,o),
(390,803,o),
(348,738,c),
(324,738,l),
(305,649,l),
(329,649,l),
(399,734,o),
(472,765,o),
(571,765,cs),
(729,765,o),
(759,690,o),
(759,560,cs),
(759,204,ls),
(759,165,o),
(756,109,o),
(749,68,c),
(734,56,l),
(640,46,l),
(640,0,l)
);
},
{
closed = 1;
nodes = (
(448,0,l),
(448,46,l),
(354,56,l),
(339,68,l),
(332,109,o),
(329,165,o),
(329,204,cs),
(329,860,l),
(279,860,l),
(60,830,l),
(60,784,l),
(154,774,l),
(169,762,l),
(176,721,o),
(179,665,o),
(179,626,cs),
(179,204,ls),
(179,165,o),
(176,109,o),
(169,68,c),
(154,56,l),
(60,46,l),
(60,0,l)
);
}
);
};
layerId = m002;
shapes = (
{
closed = 1;
nodes = (
(1128,0,l),
(1128,96,l),
(1034,106,l),
(1019,118,l),
(1012,159,o),
(1009,215,o),
(1009,254,cs),
(1009,550,ls),
(1009,756,o),
(948,880,o),
(727,880,cs),
(563,880,o),
(499,809,o),
(458,738,c),
(434,738,l),
(415,614,l),
(439,614,l),
(480,668,o),
(535,690,o),
(607,690,cs),
(722,690,o),
(749,631,o),
(749,525,cs),
(749,254,ls),
(749,215,o),
(746,159,o),
(739,118,c),
(724,106,l),
(650,96,l),
(650,0,l)
);
},
{
closed = 1;
nodes = (
(538,0,l),
(538,96,l),
(464,106,l),
(449,118,l),
(442,159,o),
(439,215,o),
(439,254,cs),
(439,860,l),
(389,860,l),
(60,810,l),
(60,714,l),
(154,704,l),
(169,692,l),
(176,651,o),
(179,595,o),
(179,556,cs),
(179,254,ls),
(179,215,o),
(176,159,o),
(169,118,c),
(154,106,l),
(60,96,l),
(60,0,l)
);
}
);
width = 1178;
},
{
associatedMasterId = m002;
layerId = "C7E7FB50-07F5-472F-9493-3B7805649B9A";
name = "22 Nov 21 15.05";
shapes = (
{
closed = 1;
nodes = (
(1008,0,l),
(1008,46,l),
(914,56,l),
(899,68,l),
(892,109,o),
(889,165,o),
(889,204,cs),
(889,570,ls),
(889,737,o),
(838,880,o),
(643,880,cs),
(499,880,o),
(421,803,o),
(368,738,c),
(344,738,l),
(325,649,l),
(349,649,l),
(413,734,o),
(482,775,o),
(577,775,cs),
(715,775,o),
(739,689,o),
(739,560,cs),
(739,204,ls),
(739,165,o),
(736,109,o),
(729,68,c),
(714,56,l),
(620,46,l),
(620,0,l)
);
},
{
closed = 1;
nodes = (
(468,0,l),
(468,46,l),
(374,56,l),
(359,68,l),
(352,109,o),
(349,165,o),
(349,204,cs),
(349,860,l),
(299,860,l),
(80,830,l),
(80,784,l),
(174,774,l),
(189,762,l),
(196,721,o),
(199,665,o),
(199,626,cs),
(199,204,ls),
(199,165,o),
(196,109,o),
(189,68,c),
(174,56,l),
(80,46,l),
(80,0,l)
);
}
);
width = 1078;
},
{
associatedMasterId = m002;
background = {
shapes = (
{
closed = 1;
nodes = (
(1008,0,l),
(1008,46,l),
(914,56,l),
(899,68,l),
(892,109,o),
(889,165,o),
(889,204,cs),
(889,570,ls),
(889,737,o),
(838,880,o),
(643,880,cs),
(499,880,o),
(421,803,o),
(368,738,c),
(344,738,l),
(325,649,l),
(349,649,l),
(413,734,o),
(482,775,o),
(577,775,cs),
(715,775,o),
(739,689,o),
(739,560,cs),
(739,204,ls),
(739,165,o),
(736,109,o),
(729,68,c),
(714,56,l),
(620,46,l),
(620,0,l)
);
},
{
closed = 1;
nodes = (
(468,0,l),
(468,46,l),
(374,56,l),
(359,68,l),
(352,109,o),
(349,165,o),
(349,204,cs),
(349,860,l),
(299,860,l),
(80,830,l),
(80,784,l),
(174,774,l),
(189,762,l),
(196,721,o),
(199,665,o),
(199,626,cs),
(199,204,ls),
(199,165,o),
(196,109,o),
(189,68,c),
(174,56,l),
(80,46,l),
(80,0,l)
);
}
);
};
layerId = "4A469895-4B2A-4756-87B3-AA7662D85789";
name = "1 Jan 22 16.45";
shapes = (
{
closed = 1;
nodes = (
(1048,0,l),
(1048,46,l),
(954,56,l),
(939,68,l),
(932,109,o),
(929,165,o),
(929,204,cs),
(929,570,ls),
(929,737,o),
(874,880,o),
(663,880,cs),
(509,880,o),
(410,803,o),
(368,738,c),
(344,738,l),
(325,649,l),
(349,649,l),
(419,734,o),
(492,765,o),
(591,765,cs),
(749,765,o),
(779,690,o),
(779,560,cs),
(779,204,ls),
(779,165,o),
(776,109,o),
(769,68,c),
(754,56,l),
(660,46,l),
(660,0,l)
);
},
{
closed = 1;
nodes = (
(468,0,l),
(468,46,l),
(374,56,l),
(359,68,l),
(352,109,o),
(349,165,o),
(349,204,cs),
(349,860,l),
(299,860,l),
(80,830,l),
(80,784,l),
(174,774,l),
(189,762,l),
(196,721,o),
(199,665,o),
(199,626,cs),
(199,204,ls),
(199,165,o),
(196,109,o),
(189,68,c),
(174,56,l),
(80,46,l),
(80,0,l)
);
}
);
width = 1118;
}
);
metricRight = "=|-10";
unicode = 110;
},
{
color = 6;
glyphname = eng;
lastChange = "2022-03-26 12:08:47 +0000";
layers = (
{
layerId = m01;
shapes = (
{
closed = 1;
nodes = (
(779,-215,o),
(757,-346,o),
(619,-429,c),
(641,-470,l),
(811,-404,o),
(929,-328,o),
(929,4,cs),
(929,570,ls),
(929,737,o),
(874,880,o),
(663,880,cs),
(509,880,o),
(410,803,o),
(368,738,c),
(344,738,l),
(325,649,l),
(349,649,l),
(419,741,o),
(492,775,o),
(593,775,cs),
(749,775,o),
(779,699,o),
(779,570,cs),
(779,4,ls)
);
},
{
closed = 1;
nodes = (
(468,0,l),
(468,46,l),
(374,56,l),
(359,68,l),
(352,109,o),
(349,165,o),
(349,204,cs),
(349,860,l),
(299,860,l),
(80,830,l),
(80,784,l),
(174,774,l),
(189,762,l),
(196,721,o),
(199,665,o),
(199,626,cs),
(199,204,ls),
(199,165,o),
(196,109,o),
(189,68,c),
(174,56,l),
(80,46,l),
(80,0,l)
);
}
);
width = 1083;
},
{
layerId = m002;
shapes = (
{
closed = 1;
nodes = (
(779,-215,o),
(757,-346,o),
(619,-429,c),
(641,-470,l),
(811,-404,o),
(929,-328,o),
(929,4,cs),
(929,570,ls),
(929,737,o),
(874,880,o),
(663,880,cs),
(509,880,o),
(410,803,o),
(368,738,c),
(344,738,l),
(325,649,l),
(349,649,l),
(419,741,o),
(492,775,o),
(593,775,cs),
(749,775,o),
(779,699,o),
(779,570,cs),
(779,4,ls)
);
},
{
closed = 1;
nodes = (
(468,0,l),
(468,46,l),
(374,56,l),
(359,68,l),
(352,109,o),
(349,165,o),
(349,204,cs),
(349,860,l),
(299,860,l),
(80,830,l),
(80,784,l),
(174,774,l),
(189,762,l),
(196,721,o),
(199,665,o),
(199,626,cs),
(199,204,ls),
(199,165,o),
(196,109,o),
(189,68,c),
(174,56,l),
(80,46,l),
(80,0,l)
);
}
);
width = 1083;
}
);
metricRight = j;
unicode = 331;
},
{
color = 9;
glyphname = o;
kernLeft = o;
lastChange = "2022-03-29 10:31:15 +0000";
layers = (
{
anchors = (
{
name = bottom;
pos = (505,0);
},
{
name = center;
pos = (505,430);
},
{
name = ogonek;
pos = (707,30);
},
{
name = top;
pos = (505,860);
},
{
name = topright;
pos = (980,860);
}
);
background = {
shapes = (
{
closed = 1;
nodes = (
(489,-20,cs),
(733,-20,o),
(893,153,o),
(893,438,cs),
(893,729,o),
(726,880,o),
(499,880,cs),
(255,880,o),
(95,707,o),
(95,422,cs),
(95,131,o),
(262,-20,o)
);
},
{
closed = 1;
nodes = (
(230,485,ls),
(230,692,o),
(312,804,o),
(467,804,cs),
(637,804,o),
(758,669,o),
(758,395,cs),
(758,355,ls),
(758,168,o),
(676,57,o),
(521,57,cs),
(351,57,o),
(230,191,o),
(230,445,cs)
);
}
);
};
layerId = m01;
shapes = (
{
closed = 1;
nodes = (
(745,-20,o),
(925,141,o),
(925,430,cs),
(925,719,o),
(745,880,o),
(508,880,cs),
(271,880,o),
(85,719,o),
(85,430,cs),
(85,141,o),
(271,-20,o),
(508,-20,cs)
);
},
{
closed = 1;
nodes = (
(368,57,o),
(265,162,o),
(265,410,cs),
(265,450,ls),
(265,696,o),
(367,803,o),
(507,803,cs),
(648,803,o),
(745,696,o),
(745,450,cs),
(745,410,ls),
(745,164,o),
(648,57,o),
(507,57,cs)
);
}
);
width = 1010;
},
{
anchors = (
{
name = bottom;
pos = (505,0);
},
{
name = center;
pos = (505,430);
},
{
name = ogonek;
pos = (707,30);
},
{
name = top;
pos = (505,860);
},
{
name = topright;
pos = (980,860);
}
);
background = {
shapes = (
{
closed = 1;
nodes = (
(489,-20,cs),
(733,-20,o),
(893,153,o),
(893,438,cs),
(893,729,o),
(726,880,o),
(499,880,cs),
(255,880,o),
(95,707,o),
(95,422,cs),
(95,131,o),
(262,-20,o)
);
},
{
closed = 1;
nodes = (
(230,485,ls),
(230,692,o),
(312,804,o),
(467,804,cs),
(637,804,o),
(758,669,o),
(758,395,cs),
(758,355,ls),
(758,168,o),
(676,57,o),
(521,57,cs),
(351,57,o),
(230,191,o),
(230,445,cs)
);
}
);
};
layerId = m002;
shapes = (
{
closed = 1;
nodes = (
(756,-20,o),
(945,131,o),
(945,430,cs),
(945,729,o),
(756,880,o),
(508,880,cs),
(260,880,o),
(65,729,o),
(65,430,cs),
(65,131,o),
(260,-20,o),
(508,-20,cs)
);
},
{
closed = 1;
nodes = (
(408,87,o),
(335,162,o),
(335,410,cs),
(335,450,ls),
(335,695,o),
(407,773,o),
(507,773,cs),
(607,773,o),
(675,695,o),
(675,450,cs),
(675,410,ls),
(675,164,o),
(607,87,o),
(507,87,cs)
);
}
);
width = 1010;
}
);
metricRight = "=|";
unicode = 111;
},
{
glyphname = p;
lastChange = "2022-03-28 09:43:49 +0000";
layers = (
{
anchors = (
{
name = bottom;
pos = (642,0);
},
{
name = top;
pos = (524,860);
}
);
background = {
shapes = (
{
closed = 1;
nodes = (
(806,-20,o),
(963,137,o),
(963,452,cs),
(963,748,o),
(825,880,o),
(625,880,cs),
(458,880,o),
(358,788,o),
(314,652,c),
(341,627,l),
(389,720,o),
(468,763,o),
(566,763,cs),
(720,763,o),
(803,658,o),
(803,467,cs),
(803,427,ls),
(803,196,o),
(724,67,o),
(568,67,cs),
(434,67,o),
(357,164,o),
(349,289,c),
(302,269,l),
(306,93,o),
(421,-20,o),
(598,-20,cs)
);
}
);
};
layerId = m01;
shapes = (
{
closed = 1;
nodes = (
(468,-460,l),
(468,-414,l),
(374,-404,l),
(359,-392,l),
(352,-351,o),
(349,-295,o),
(349,-256,cs),
(349,860,l),
(299,860,l),
(80,830,l),
(80,784,l),
(174,774,l),
(189,762,l),
(196,721,o),
(199,665,o),
(199,626,cs),
(199,-256,ls),
(199,-295,o),
(196,-351,o),
(189,-392,c),
(174,-404,l),
(80,-414,l),
(80,-460,l)
);
},
{
closed = 1;
nodes = (
(321,657,l),
(372,746,o),
(462,788,o),
(560,788,cs),
(722,788,o),
(803,666,o),
(803,449,cs),
(803,409,ls),
(803,192,o),
(720,74,o),
(560,74,cs),
(418,74,o),
(337,168,o),
(329,319,c),
(281,319,l),
(295,93,o),
(410,-20,o),
(588,-20,cs),
(802,-20,o),
(963,137,o),
(963,453,cs),
(963,748,o),
(822,880,o),
(612,880,cs),
(442,880,o),
(338,793,o),
(294,692,c)
);
}
);
width = 1048;
},
{
anchors = (
{
name = bottom;
pos = (622,0);
},
{
name = top;
pos = (504,860);
}
);
background = {
shapes = (
{
closed = 1;
nodes = (
(786,-20,o),
(943,137,o),
(943,452,cs),
(943,748,o),
(805,880,o),
(605,880,cs),
(438,880,o),
(338,788,o),
(294,652,c),
(321,627,l),
(369,720,o),
(448,763,o),
(546,763,cs),
(700,763,o),
(783,658,o),
(783,467,cs),
(783,427,ls),
(783,196,o),
(704,67,o),
(548,67,cs),
(414,67,o),
(337,164,o),
(329,289,c),
(282,269,l),
(286,93,o),
(401,-20,o),
(578,-20,cs)
);
}
);
};
layerId = m002;
shapes = (
{
closed = 1;
nodes = (
(448,-460,l),
(448,-414,l),
(354,-404,l),
(339,-392,l),
(332,-351,o),
(329,-295,o),
(329,-256,cs),
(329,860,l),
(279,860,l),
(60,830,l),
(60,784,l),
(154,774,l),
(169,762,l),
(176,721,o),
(179,665,o),
(179,626,cs),
(179,-256,ls),
(179,-295,o),
(176,-351,o),
(169,-392,c),
(154,-404,l),
(60,-414,l),
(60,-460,l)
);
},
{
closed = 1;
nodes = (
(301,657,l),
(352,746,o),
(442,788,o),
(540,788,cs),
(702,788,o),
(783,666,o),
(783,449,cs),
(783,409,ls),
(783,192,o),
(700,74,o),
(540,74,cs),
(398,74,o),
(317,168,o),
(309,319,c),
(261,319,l),
(275,93,o),
(390,-20,o),
(568,-20,cs),
(782,-20,o),
(943,137,o),
(943,453,cs),
(943,748,o),
(802,880,o),
(592,880,cs),
(422,880,o),
(318,793,o),
(274,692,c)
);
}
);
width = 1008;
}
);
metricLeft = n;
metricRight = o;
unicode = 112;
},
{
glyphname = q;
lastChange = "2022-03-26 12:25:54 +0000";
layers = (
{
background = {
shapes = (
{
closed = 1;
nodes = (
(635,-20,o),
(761,98,o),
(776,319,c),
(719,319,l),
(712,175,o),
(630,67,o),
(488,67,cs),
(334,67,o),
(265,195,o),
(265,397,cs),
(265,437,ls),
(265,660,o),
(351,763,o),
(518,763,cs),
(619,763,o),
(691,725,o),
(727,677,c),
(754,702,l),
(716,803,o),
(620,880,o),
(468,880,cs),
(248,880,o),
(105,718,o),
(105,416,cs),
(105,107,o),
(254,-20,o),
(448,-20,cs)
);
}
);
};
layerId = m01;
shapes = (
{
closed = 1;
nodes = (
(988,-460,l),
(988,-414,l),
(894,-404,l),
(879,-392,l),
(872,-351,o),
(869,-295,o),
(869,-256,cs),
(869,656,ls),
(869,695,o),
(872,750,o),
(879,860,c),
(798,860,l),
(719,716,l),
(719,-256,ls),
(719,-295,o),
(716,-351,o),
(709,-392,c),
(694,-404,l),
(600,-414,l),
(600,-460,l)
);
},
{
closed = 1;
nodes = (
(626,-20,o),
(752,98,o),
(767,319,c),
(719,319,l),
(712,179,o),
(626,74,o),
(480,74,cs),
(316,74,o),
(245,202,o),
(245,407,cs),
(245,447,ls),
(245,681,o),
(338,793,o),
(502,793,cs),
(614,793,o),
(685,742,o),
(727,667,c),
(754,702,l),
(715,803,o),
(615,880,o),
(458,880,cs),
(232,880,o),
(85,718,o),
(85,416,cs),
(85,107,o),
(238,-20,o),
(438,-20,cs)
);
}
);
width = 1008;
},
{
background = {
shapes = (
{
closed = 1;
nodes = (
(615,-20,o),
(741,98,o),
(756,319,c),
(699,319,l),
(692,175,o),
(610,67,o),
(468,67,cs),
(314,67,o),
(245,195,o),
(245,397,cs),
(245,437,ls),
(245,660,o),
(331,763,o),
(498,763,cs),
(599,763,o),
(671,725,o),
(707,677,c),
(734,702,l),
(696,803,o),
(600,880,o),
(448,880,cs),
(228,880,o),
(85,718,o),
(85,416,cs),
(85,107,o),
(234,-20,o),
(428,-20,cs)
);
}
);
};
layerId = m002;
shapes = (
{
closed = 1;
nodes = (
(968,-460,l),
(968,-414,l),
(874,-404,l),
(859,-392,l),
(852,-351,o),
(849,-295,o),
(849,-256,cs),
(849,656,ls),
(849,695,o),
(852,750,o),
(859,860,c),
(778,860,l),
(699,716,l),
(699,-256,ls),
(699,-295,o),
(696,-351,o),
(689,-392,c),
(674,-404,l),
(580,-414,l),
(580,-460,l)
);
},
{
closed = 1;
nodes = (
(606,-20,o),
(732,98,o),
(747,319,c),
(699,319,l),
(692,179,o),
(606,74,o),
(460,74,cs),
(296,74,o),
(225,202,o),
(225,407,cs),
(225,447,ls),
(225,681,o),
(318,793,o),
(482,793,cs),
(594,793,o),
(665,742,o),
(707,667,c),
(734,702,l),
(695,803,o),
(595,880,o),
(438,880,cs),
(212,880,o),
(65,718,o),
(65,416,cs),
(65,107,o),
(218,-20,o),
(418,-20,cs)
);
}
);
width = 988;
}
);
metricLeft = o;
unicode = 113;
},
{
color = 9;
glyphname = r;
lastChange = "2022-03-29 10:43:13 +0000";
layers = (
{
anchors = (
{
name = bottom;
pos = (294,0);
},
{
name = top;
pos = (414,860);
}
);
layerId = m01;
shapes = (
{
closed = 1;
nodes = (
(663,878,l),
(652,879,o),
(640,880,o),
(628,880,cs),
(503,880,o),
(434,791,o),
(388,698,c),
(364,698,l),
(345,599,l),
(369,599,l),
(428,688,o),
(479,725,o),
(585,725,cs),
(612,725,o),
(639,722,o),
(663,718,c)
);
},
{
closed = 1;
nodes = (
(508,0,l),
(508,46,l),
(394,56,l),
(379,68,l),
(372,109,o),
(369,165,o),
(369,204,cs),
(369,860,l),
(319,860,l),
(80,830,l),
(80,784,l),
(174,774,l),
(189,762,l),
(196,721,o),
(199,665,o),
(199,626,cs),
(199,204,ls),
(199,165,o),
(196,109,o),
(189,68,c),
(174,56,l),
(80,46,l),
(80,0,l)
);
}
);
width = 708;
},
{
anchors = (
{
name = bottom;
pos = (204,0);
},
{
name = top;
pos = (324,860);
}
);
layerId = m002;
shapes = (
{
closed = 1;
nodes = (
(673,878,l),
(662,879,o),
(650,880,o),
(638,880,cs),
(544,880,o),
(493,791,o),
(458,698,c),
(434,698,l),
(415,549,l),
(439,549,l),
(482,624,o),
(518,655,o),
(595,655,cs),
(622,655,o),
(649,652,o),
(673,648,c)
);
},
{
closed = 1;
nodes = (
(578,0,l),
(578,96,l),
(464,106,l),
(449,118,l),
(442,159,o),
(439,215,o),
(439,254,cs),
(439,860,l),
(389,860,l),
(60,810,l),
(60,714,l),
(154,704,l),
(169,692,l),
(176,651,o),
(179,595,o),
(179,556,cs),
(179,254,ls),
(179,215,o),
(176,159,o),
(169,118,c),
(154,106,l),
(60,96,l),
(60,0,l)
);
}
);
width = 698;
}
);
metricLeft = n;
unicode = 114;
},
{
glyphname = s;
lastChange = "2022-03-26 16:04:14 +0000";
layers = (
{
anchors = (
{
name = bottom;
pos = (388,0);
},
{
name = top;
pos = (388,860);
}
);
layerId = m01;
shapes = (
{
closed = 1;
nodes = (
(575,-20,o),
(705,68,o),
(705,251,cs),
(705,605,o),
(217,479,o),
(217,691,cs),
(217,764,o),
(275,811,o),
(381,811,cs),
(516,811,o),
(590,736,o),
(631,639,c),
(672,639,l),
(666,811,l),
(599,853,o),
(505,880,o),
(402,880,cs),
(211,880,o),
(95,787,o),
(95,631,cs),
(95,311,o),
(583,431,o),
(583,192,cs),
(583,109,o),
(524,53,o),
(401,53,cs),
(259,53,o),
(171,128,o),
(120,246,c),
(79,246,l),
(95,50,l),
(160,7,o),
(270,-20,o),
(379,-20,cs)
);
}
);
width = 786;
},
{
anchors = (
{
name = bottom;
pos = (408,0);
},
{
name = top;
pos = (408,860);
}
);
layerId = m002;
shapes = (
{
closed = 1;
nodes = (
(590,-20,o),
(725,71,o),
(725,258,cs),
(725,614,o),
(237,491,o),
(237,673,cs),
(237,734,o),
(291,771,o),
(390,771,cs),
(511,771,o),
(580,715,o),
(611,619,c),
(692,619,l),
(686,811,l),
(615,853,o),
(516,880,o),
(406,880,cs),
(207,880,o),
(85,786,o),
(85,615,cs),
(85,272,o),
(573,374,o),
(573,199,cs),
(573,141,o),
(519,93,o),
(401,93,cs),
(259,93,o),
(185,162,o),
(150,266,c),
(69,266,l),
(85,50,l),
(153,7,o),
(270,-20,o),
(384,-20,cs)
);
}
);
width = 816;
}
);
unicode = 115;
},
{
color = 9;
glyphname = t;
lastChange = "2022-03-29 10:53:45 +0000";
layers = (
{
anchors = (
{
name = bottom;
pos = (325,0);
},
{
name = center;
pos = (325,430);
},
{
name = top;
pos = (325,860);
},
{
name = topright;
pos = (630,2096);
}
);
background = {
shapes = (
{
closed = 1;
nodes = (
(465,-10,o),
(532,31,o),
(575,97,c),
(542,128,l),
(518,98,o),
(484,75,o),
(433,75,cs),
(349,75,o),
(334,138,o),
(334,230,cs),
(334,1060,l),
(284,1060,l),
(184,863,l),
(184,230,ls),
(184,87,o),
(225,-10,o),
(371,-10,cs)
);
},
{
closed = 1;
nodes = (
(573,797,l),
(573,860,l),
(32,860,l),
(32,797,l)
);
}
);
};
layerId = m01;
shapes = (
{
closed = 1;
nodes = (
(468,-10,o),
(538,31,o),
(582,97,c),
(542,133,l),
(520,106,o),
(489,85,o),
(443,85,cs),
(367,85,o),
(354,144,o),
(354,230,cs),
(354,1130,l),
(304,1130,l),
(184,863,l),
(184,230,ls),
(184,86,o),
(225,-10,o),
(372,-10,cs)
);
},
{
closed = 1;
nodes = (
(573,787,l),
(573,860,l),
(32,860,l),
(32,787,l)
);
}
);
width = 650;
},
{
anchors = (
{
name = bottom;
pos = (395,0);
},
{
name = center;
pos = (395,430);
},
{
name = top;
pos = (395,860);
},
{
name = topright;
pos = (700,2096);
}
);
background = {
shapes = (
{
closed = 1;
nodes = (
(535,-10,o),
(602,31,o),
(645,97,c),
(612,128,l),
(588,98,o),
(554,75,o),
(503,75,cs),
(419,75,o),
(404,138,o),
(404,230,cs),
(404,1060,l),
(354,1060,l),
(254,863,l),
(254,230,ls),
(254,87,o),
(295,-10,o),
(441,-10,cs)
);
},
{
closed = 1;
nodes = (
(643,797,l),
(643,860,l),
(102,860,l),
(102,797,l)
);
}
);
};
layerId = m002;
shapes = (
{
closed = 1;
nodes = (
(508,-20,o),
(575,24,o),
(628,94,c),
(575,155,l),
(552,132,o),
(524,115,o),
(485,115,cs),
(424,115,o),
(404,159,o),
(404,220,cs),
(404,1130,l),
(354,1130,l),
(144,863,l),
(144,220,ls),
(144,83,o),
(204,-20,o),
(388,-20,cs)
);
},
{
closed = 1;
nodes = (
(613,759,l),
(613,860,l),
(22,860,l),
(22,759,l)
);
}
);
width = 670;
}
);
unicode = 116;
},
{
glyphname = u;
lastChange = "2022-03-27 05:35:51 +0000";
layers = (
{
anchors = (
{
name = bottom;
pos = (569,0);
},
{
name = ogonek;
pos = (1038,30);
},
{
name = top;
pos = (569,860);
},
{
name = topright;
pos = (1098,860);
}
);
layerId = m01;
shapes = (
{
closed = 1;
nodes = (
(616,-20,o),
(695,57,o),
(750,122,c),
(774,122,l),
(793,211,l),
(769,211,l),
(702,139,o),
(629,104,o),
(531,104,cs),
(385,104,o),
(359,181,o),
(359,300,cs),
(359,860,l),
(309,860,l),
(70,830,l),
(70,784,l),
(164,774,l),
(179,762,l),
(186,721,o),
(189,665,o),
(189,626,cs),
(189,290,ls),
(189,125,o),
(246,-20,o),
(460,-20,cs)
);
},
{
closed = 1;
nodes = (
(819,0,l),
(1058,30,l),
(1058,76,l),
(964,86,l),
(949,98,l),
(942,139,o),
(939,195,o),
(939,234,cs),
(939,860,l),
(889,860,l),
(650,830,l),
(650,784,l),
(744,774,l),
(759,762,l),
(766,721,o),
(769,665,o),
(769,626,cs),
(769,0,l)
);
}
);
width = 1138;
},
{
anchors = (
{
name = bottom;
pos = (529,0);
},
{
name = ogonek;
pos = (998,30);
},
{
name = top;
pos = (529,860);
},
{
name = topright;
pos = (1058,860);
}
);
layerId = m002;
shapes = (
{
closed = 1;
nodes = (
(574,-20,o),
(655,57,o),
(710,122,c),
(734,122,l),
(753,211,l),
(729,211,l),
(662,126,o),
(589,85,o),
(489,85,cs),
(345,85,o),
(319,171,o),
(319,300,cs),
(319,860,l),
(269,860,l),
(50,830,l),
(50,784,l),
(144,774,l),
(159,762,l),
(166,721,o),
(169,665,o),
(169,626,cs),
(169,290,ls),
(169,122,o),
(222,-20,o),
(425,-20,cs)
);
},
{
closed = 1;
nodes = (
(779,0,l),
(998,30,l),
(998,76,l),
(904,86,l),
(889,98,l),
(882,139,o),
(879,195,o),
(879,234,cs),
(879,860,l),
(829,860,l),
(610,830,l),
(610,784,l),
(704,774,l),
(719,762,l),
(726,721,o),
(729,665,o),
(729,626,cs),
(729,0,l)
);
}
);
width = 1058;
}
);
metricLeft = "=|n";
metricRight = "=|n";
unicode = 117;
},
{
glyphname = v;
lastChange = "2022-03-26 12:08:47 +0000";
layers = (
{
layerId = m01;
shapes = (
{
closed = 1;
nodes = (
(497,-10,l),
(550,136,l),
(282,788,l),
(289,804,l),
(389,814,l),
(389,860,l),
(25,860,l),
(25,814,l),
(86,804,l),
(101,792,l),
(130,758,o),
(145,731,o),
(164,686,cs),
(457,-10,l)
);
},
{
closed = 1;
nodes = (
(498,-10,l),
(850,794,l),
(861,804,l),
(929,814,l),
(929,860,l),
(660,860,l),
(660,814,l),
(755,804,l),
(760,792,l),
(754,758,o),
(754,734,o),
(733,686,cs),
(456,57,l),
(490,-10,l)
);
}
);
width = 954;
},
{
layerId = m002;
shapes = (
{
closed = 1;
nodes = (
(497,-10,l),
(550,136,l),
(282,788,l),
(289,804,l),
(389,814,l),
(389,860,l),
(25,860,l),
(25,814,l),
(86,804,l),
(101,792,l),
(130,758,o),
(145,731,o),
(164,686,cs),
(457,-10,l)
);
},
{
closed = 1;
nodes = (
(498,-10,l),
(850,794,l),
(861,804,l),
(929,814,l),
(929,860,l),
(660,860,l),
(660,814,l),
(755,804,l),
(760,792,l),
(754,758,o),
(754,734,o),
(733,686,cs),
(456,57,l),
(490,-10,l)
);
}
);
width = 954;
}
);
metricRight = "=|";
unicode = 118;
},
{
glyphname = w;
lastChange = "2022-03-26 12:08:47 +0000";
layers = (
{
layerId = m01;
shapes = (
{
closed = 1;
nodes = (
(507,-10,l),
(560,136,l),
(302,788,l),
(309,804,l),
(409,814,l),
(409,860,l),
(45,860,l),
(45,814,l),
(106,804,l),
(121,792,l),
(150,758,o),
(166,731,o),
(184,686,cs),
(467,-10,l)
);
},
{
closed = 1;
nodes = (
(996,-10,l),
(1049,136,l),
(806,788,l),
(813,804,l),
(913,814,l),
(913,860,l),
(549,860,l),
(549,814,l),
(610,804,l),
(625,792,l),
(654,758,o),
(671,731,o),
(688,686,cs),
(956,-10,l)
);
},
{
closed = 1;
nodes = (
(997,-10,l),
(1324,794,l),
(1335,804,l),
(1403,814,l),
(1403,860,l),
(1134,860,l),
(1134,814,l),
(1229,804,l),
(1234,792,l),
(1228,758,o),
(1226,734,o),
(1207,686,cs),
(955,57,l),
(989,-10,l)
);
},
{
closed = 1;
nodes = (
(732,684,l),
(466,57,l),
(500,-10,l),
(508,-10,l),
(782,639,l)
);
}
);
width = 1448;
},
{
layerId = m002;
shapes = (
{
closed = 1;
nodes = (
(507,-10,l),
(560,136,l),
(302,788,l),
(309,804,l),
(409,814,l),
(409,860,l),
(45,860,l),
(45,814,l),
(106,804,l),
(121,792,l),
(150,758,o),
(166,731,o),
(184,686,cs),
(467,-10,l)
);
},
{
closed = 1;
nodes = (
(996,-10,l),
(1049,136,l),
(806,788,l),
(813,804,l),
(913,814,l),
(913,860,l),
(549,860,l),
(549,814,l),
(610,804,l),
(625,792,l),
(654,758,o),
(671,731,o),
(688,686,cs),
(956,-10,l)
);
},
{
closed = 1;
nodes = (
(997,-10,l),
(1324,794,l),
(1335,804,l),
(1403,814,l),
(1403,860,l),
(1134,860,l),
(1134,814,l),
(1229,804,l),
(1234,792,l),
(1228,758,o),
(1226,734,o),
(1207,686,cs),
(955,57,l),
(989,-10,l)
);
},
{
closed = 1;
nodes = (
(732,684,l),
(466,57,l),
(500,-10,l),
(508,-10,l),
(782,639,l)
);
}
);
width = 1448;
}
);
metricRight = "=|";
unicode = 119;
},
{
glyphname = x;
lastChange = "2022-03-26 12:08:47 +0000";
layers = (
{
layerId = m01;
shapes = (
{
closed = 1;
nodes = (
(158,804,l),
(173,792,l),
(202,751,o),
(217,730,o),
(245,686,cs),
(642,72,l),
(635,56,l),
(535,46,l),
(535,0,l),
(931,0,l),
(931,46,l),
(839,56,l),
(824,68,l),
(795,109,o),
(780,130,o),
(752,174,cs),
(355,788,l),
(362,804,l),
(462,814,l),
(462,860,l),
(66,860,l),
(66,814,l)
);
},
{
closed = 1;
nodes = (
(527,451,l),
(692,686,ls),
(722,728,o),
(745,751,o),
(777,792,c),
(792,804,l),
(884,814,l),
(884,860,l),
(595,860,l),
(595,814,l),
(695,804,l),
(702,788,l),
(496,498,l)
);
},
{
closed = 1;
nodes = (
(446,467,l),
(233,172,ls),
(203,131,o),
(188,107,o),
(153,68,c),
(138,56,l),
(45,46,l),
(45,0,l),
(343,0,l),
(343,46,l),
(243,56,l),
(236,72,l),
(483,420,l)
);
}
);
width = 976;
},
{
layerId = m002;
shapes = (
{
closed = 1;
nodes = (
(158,804,l),
(173,792,l),
(202,751,o),
(217,730,o),
(245,686,cs),
(642,72,l),
(635,56,l),
(535,46,l),
(535,0,l),
(931,0,l),
(931,46,l),
(839,56,l),
(824,68,l),
(795,109,o),
(780,130,o),
(752,174,cs),
(355,788,l),
(362,804,l),
(462,814,l),
(462,860,l),
(66,860,l),
(66,814,l)
);
},
{
closed = 1;
nodes = (
(527,451,l),
(692,686,ls),
(722,728,o),
(745,751,o),
(777,792,c),
(792,804,l),
(884,814,l),
(884,860,l),
(595,860,l),
(595,814,l),
(695,804,l),
(702,788,l),
(496,498,l)
);
},
{
closed = 1;
nodes = (
(446,467,l),
(233,172,ls),
(203,131,o),
(188,107,o),
(153,68,c),
(138,56,l),
(45,46,l),
(45,0,l),
(343,0,l),
(343,46,l),
(243,56,l),
(236,72,l),
(483,420,l)
);
}
);
width = 976;
}
);
metricRight = "=|";
unicode = 120;
},
{
glyphname = y;
lastChange = "2022-03-26 12:08:47 +0000";
layers = (
{
background = {
shapes = (
{
closed = 1;
nodes = (
(527,-10,l),
(546,73,l),
(282,788,l),
(289,804,l),
(389,814,l),
(389,860,l),
(25,860,l),
(25,814,l),
(86,804,l),
(101,792,l),
(130,758,o),
(147,731,o),
(164,686,cs),
(427,-10,l)
);
},
{
closed = 1;
nodes = (
(836,686,ls),
(855,734,o),
(857,758,o),
(863,792,c),
(858,804,l),
(763,814,l),
(763,860,l),
(1029,860,l),
(1029,814,l),
(961,804,l),
(950,794,l),
(628,-10,l),
(516,-159,o),
(383,-456,o),
(292,-456,cs),
(119,-456,l),
(119,-323,l),
(147,-322,o),
(111,-321,o),
(204,-321,cs),
(297,-321,o),
(406,-326,o),
(515,-94,cs),
(586,57,l)
);
}
);
};
layerId = m01;
shapes = (
{
closed = 1;
nodes = (
(112,-460,ls),
(286,-460,o),
(369,-410,o),
(483,-124,cs),
(850,794,l),
(861,804,l),
(929,814,l),
(929,860,l),
(657,860,l),
(657,814,l),
(752,804,l),
(757,792,l),
(751,758,o),
(753,734,o),
(734,686,cs),
(404,-147,ls),
(338,-314,o),
(314,-342,o),
(174,-342,cs),
(49,-342,l),
(49,-460,l)
);
},
{
closed = 1;
nodes = (
(546,73,l),
(282,788,l),
(289,804,l),
(389,814,l),
(389,860,l),
(25,860,l),
(25,814,l),
(86,804,l),
(101,792,l),
(130,758,o),
(147,731,o),
(164,686,cs),
(461,-99,l)
);
}
);
width = 954;
},
{
background = {
shapes = (
{
closed = 1;
nodes = (
(527,-10,l),
(546,73,l),
(282,788,l),
(289,804,l),
(389,814,l),
(389,860,l),
(25,860,l),
(25,814,l),
(86,804,l),
(101,792,l),
(130,758,o),
(147,731,o),
(164,686,cs),
(427,-10,l)
);
},
{
closed = 1;
nodes = (
(836,686,ls),
(855,734,o),
(857,758,o),
(863,792,c),
(858,804,l),
(763,814,l),
(763,860,l),
(1029,860,l),
(1029,814,l),
(961,804,l),
(950,794,l),
(628,-10,l),
(516,-159,o),
(383,-456,o),
(292,-456,cs),
(119,-456,l),
(119,-323,l),
(147,-322,o),
(111,-321,o),
(204,-321,cs),
(297,-321,o),
(406,-326,o),
(515,-94,cs),
(586,57,l)
);
}
);
};
layerId = m002;
shapes = (
{
closed = 1;
nodes = (
(112,-460,ls),
(286,-460,o),
(369,-410,o),
(483,-124,cs),
(850,794,l),
(861,804,l),
(929,814,l),
(929,860,l),
(657,860,l),
(657,814,l),
(752,804,l),
(757,792,l),
(751,758,o),
(753,734,o),
(734,686,cs),
(404,-147,ls),
(338,-314,o),
(314,-342,o),
(174,-342,cs),
(49,-342,l),
(49,-460,l)
);
},
{
closed = 1;
nodes = (
(546,73,l),
(282,788,l),
(289,804,l),
(389,814,l),
(389,860,l),
(25,860,l),
(25,814,l),
(86,804,l),
(101,792,l),
(130,758,o),
(147,731,o),
(164,686,cs),
(461,-99,l)
);
}
);
width = 954;
}
);
metricLeft = v;
metricRight = v;
unicode = 121;
},
{
color = 6;
glyphname = yloop;
lastChange = "2022-03-26 12:08:47 +0000";
layers = (
{
layerId = m01;
shapes = (
{
closed = 1;
nodes = (
(546,73,l),
(282,788,l),
(289,804,l),
(389,814,l),
(389,860,l),
(25,860,l),
(25,814,l),
(86,804,l),
(101,792,l),
(130,758,o),
(147,731,o),
(164,686,cs),
(461,-99,l)
);
},
{
closed = 1;
nodes = (
(129,-417,o),
(103,-386,o),
(103,-344,cs),
(103,-300,o),
(132,-263,o),
(218,-263,cs),
(352,-263,o),
(445,-350,o),
(460,-547,c),
(503,-541,l),
(497,-293,o),
(400,-158,o),
(223,-158,cs),
(78,-158,o),
(28,-246,o),
(28,-332,cs),
(28,-435,o),
(101,-480,o),
(186,-480,cs),
(291,-480,o),
(368,-413,o),
(445,-220,cs),
(850,794,l),
(861,804,l),
(929,814,l),
(929,860,l),
(657,860,l),
(657,814,l),
(752,804,l),
(757,792,l),
(751,758,o),
(753,734,o),
(734,686,cs),
(377,-217,ls),
(344,-301,o),
(297,-417,o),
(188,-417,cs)
);
}
);
width = 954;
},
{
layerId = m002;
shapes = (
{
closed = 1;
nodes = (
(546,73,l),
(282,788,l),
(289,804,l),
(389,814,l),
(389,860,l),
(25,860,l),
(25,814,l),
(86,804,l),
(101,792,l),
(130,758,o),
(147,731,o),
(164,686,cs),
(461,-99,l)
);
},
{
closed = 1;
nodes = (
(129,-417,o),
(103,-386,o),
(103,-344,cs),
(103,-300,o),
(132,-263,o),
(218,-263,cs),
(352,-263,o),
(445,-350,o),
(460,-547,c),
(503,-541,l),
(497,-293,o),
(400,-158,o),
(223,-158,cs),
(78,-158,o),
(28,-246,o),
(28,-332,cs),
(28,-435,o),
(101,-480,o),
(186,-480,cs),
(291,-480,o),
(368,-413,o),
(445,-220,cs),
(850,794,l),
(861,804,l),
(929,814,l),
(929,860,l),
(657,860,l),
(657,814,l),
(752,804,l),
(757,792,l),
(751,758,o),
(753,734,o),
(734,686,cs),
(377,-217,ls),
(344,-301,o),
(297,-417,o),
(188,-417,cs)
);
}
);
width = 954;
}
);
unicode = 7935;
},
{
glyphname = z;
lastChange = "2022-03-26 12:08:47 +0000";
layers = (
{
layerId = m01;
shapes = (
{
closed = 1;
nodes = (
(255,63,l),
(777,798,l),
(607,798,l),
(85,63,l)
);
},
{
closed = 1;
nodes = (
(779,0,l),
(779,63,l),
(85,63,l),
(85,0,l)
);
},
{
closed = 1;
nodes = (
(143,609,l),
(225,827,l),
(118,860,l),
(102,609,l)
);
},
{
closed = 1;
nodes = (
(777,797,l),
(777,860,l),
(118,860,l),
(138,797,l)
);
},
{
closed = 1;
nodes = (
(754,251,l),
(672,33,l),
(779,0,l),
(795,251,l)
);
}
);
width = 880;
},
{
layerId = m002;
shapes = (
{
closed = 1;
nodes = (
(255,63,l),
(777,798,l),
(607,798,l),
(85,63,l)
);
},
{
closed = 1;
nodes = (
(779,0,l),
(779,63,l),
(85,63,l),
(85,0,l)
);
},
{
closed = 1;
nodes = (
(143,609,l),
(225,827,l),
(118,860,l),
(102,609,l)
);
},
{
closed = 1;
nodes = (
(777,797,l),
(777,860,l),
(118,860,l),
(138,797,l)
);
},
{
closed = 1;
nodes = (
(754,251,l),
(672,33,l),
(779,0,l),
(795,251,l)
);
}
);
width = 880;
}
);
metricRight = "=|";
unicode = 122;
},
{
glyphname = "alef-ar";
lastChange = "2022-03-26 12:08:47 +0000";
layers = (
{
layerId = m01;
shapes = (
{
closed = 1;
nodes = (
(184,1418,l),
(158,1418,l),
(115,1327,l),
(189,0,l),
(230,0,l),
(248,113,o),
(254,204,o),
(244,381,cs)
);
}
);
width = 364;
},
{
layerId = m002;
shapes = (
{
closed = 1;
nodes = (
(184,1418,l),
(158,1418,l),
(115,1327,l),
(189,0,l),
(230,0,l),
(248,113,o),
(254,204,o),
(244,381,cs)
);
}
);
width = 364;
}
);
metricRight = "=|";
unicode = 1575;
},
{
glyphname = "alef-ar.fina";
lastChange = "2022-03-26 12:08:47 +0000";
layers = (
{
anchors = (
{
name = entry;
pos = (454,-20);
}
);
background = {
shapes = (
{
closed = 1;
nodes = (
(266,135,o),
(205,193,o),
(205,407,cs),
(205,723,o),
(205,1028,o),
(165,1413,c),
(145,1413,l),
(85,1358,l),
(140,953,o),
(142,682,o),
(144,313,cs),
(145,120,o),
(181,-20,o),
(404,-20,c),
(457,-20,o),
(457,135,o),
(404,135,c)
);
}
);
};
layerId = m01;
shapes = (
{
closed = 1;
nodes = (
(347,135,o),
(263,188,o),
(248,371,cs),
(165,1418,l),
(139,1418,l),
(97,1327,l),
(174,325,ls),
(193,81,o),
(275,-20,o),
(454,-20,c),
(517,-20,o),
(517,135,o),
(454,135,c)
);
}
);
width = 454;
},
{
anchors = (
{
name = entry;
pos = (454,-20);
}
);
background = {
shapes = (
{
closed = 1;
nodes = (
(266,135,o),
(205,193,o),
(205,407,cs),
(205,723,o),
(205,1028,o),
(165,1413,c),
(145,1413,l),
(85,1358,l),
(140,953,o),
(142,682,o),
(144,313,cs),
(145,120,o),
(181,-20,o),
(404,-20,c),
(457,-20,o),
(457,135,o),
(404,135,c)
);
}
);
};
layerId = m002;
shapes = (
{
closed = 1;
nodes = (
(347,135,o),
(263,188,o),
(248,371,cs),
(165,1418,l),
(139,1418,l),
(97,1327,l),
(174,325,ls),
(193,81,o),
(275,-20,o),
(454,-20,c),
(517,-20,o),
(517,135,o),
(454,135,c)
);
}
);
width = 454;
}
);
},
{
glyphname = "behDotless-ar";
lastChange = "2022-03-26 12:08:47 +0000";
layers = (
{
anchors = (
{
name = bottom;
pos = (1051,-50);
},
{
name = ring;
pos = (981,-50);
},
{
name = top;
pos = (1028,469);
}
);
background = {
shapes = (
{
closed = 1;
nodes = (
(1372,-50,o),
(1801,117,o),
(1801,379,cs),
(1801,440,o),
(1778,558,o),
(1717,674,c),
(1697,674,l),
(1609,582,l),
(1739,270,l),
(1756,304,l),
(1578,195,o),
(1237,105,o),
(833,105,cs),
(341,105,o),
(147,238,o),
(292,599,c),
(238,618,l),
(43,159,o),
(231,-50,o),
(833,-50,cs)
);
}
);
};
layerId = m01;
shapes = (
{
closed = 1;
nodes = (
(1366,-50,o),
(1801,105,o),
(1801,346,cs),
(1801,402,o),
(1778,504,o),
(1717,604,c),
(1697,604,l),
(1609,512,l),
(1739,240,l),
(1756,274,l),
(1586,184,o),
(1239,105,o),
(843,105,cs),
(375,105,o),
(195,215,o),
(302,529,c),
(248,548,l),
(96,139,o),
(262,-50,o),
(841,-50,cs)
);
}
);
width = 1996;
},
{
anchors = (
{
name = bottom;
pos = (981,-50);
},
{
name = ring;
pos = (981,-50);
},
{
name = top;
pos = (988,2096);
}
);
associatedMasterId = m01;
background = {
shapes = (
{
closed = 1;
nodes = (
(1295,-10,o),
(1584,167,o),
(1584,384,cs),
(1584,451,o),
(1552,588,o),
(1517,664,c),
(1389,552,l),
(1509,250,l),
(1526,284,l),
(1306,192,o),
(1097,145,o),
(782,145,cs),
(293,145,o),
(166,259,o),
(262,559,c),
(210,576,l),
(77,201,o),
(190,-10,o),
(763,-10,cs)
);
}
);
};
layerId = "E4DEE693-3C2E-4A44-A8D4-228D4A94D58E";
name = "11 Feb 22 23.29";
shapes = (
{
closed = 1;
nodes = (
(1372,-50,o),
(1801,117,o),
(1801,379,cs),
(1801,440,o),
(1778,558,o),
(1717,674,c),
(1697,674,l),
(1609,582,l),
(1739,270,l),
(1756,304,l),
(1578,195,o),
(1237,105,o),
(833,105,cs),
(341,105,o),
(147,238,o),
(292,599,c),
(238,618,l),
(43,159,o),
(231,-50,o),
(833,-50,cs)
);
}
);
width = 1975;
},
{
anchors = (
{
name = bottom;
pos = (1051,-50);
},
{
name = ring;
pos = (981,-50);
},
{
name = top;
pos = (1028,469);
}
);
background = {
shapes = (
{
closed = 1;
nodes = (
(1372,-50,o),
(1801,117,o),
(1801,379,cs),
(1801,440,o),
(1778,558,o),
(1717,674,c),
(1697,674,l),
(1609,582,l),
(1739,270,l),
(1756,304,l),
(1578,195,o),
(1237,105,o),
(833,105,cs),
(341,105,o),
(147,238,o),
(292,599,c),
(238,618,l),
(43,159,o),
(231,-50,o),
(833,-50,cs)
);
}
);
};
layerId = m002;
shapes = (
{
closed = 1;
nodes = (
(1366,-50,o),
(1801,105,o),
(1801,346,cs),
(1801,402,o),
(1778,504,o),
(1717,604,c),
(1697,604,l),
(1609,512,l),
(1739,240,l),
(1756,274,l),
(1586,184,o),
(1239,105,o),
(843,105,cs),
(375,105,o),
(195,215,o),
(302,529,c),
(248,548,l),
(96,139,o),
(262,-50,o),
(841,-50,cs)
);
}
);
width = 1996;
},
{
anchors = (
{
name = bottom;
pos = (981,-50);
},
{
name = ring;
pos = (981,-50);
},
{
name = top;
pos = (988,2096);
}
);
associatedMasterId = m002;
background = {
shapes = (
{
closed = 1;
nodes = (
(1295,-10,o),
(1584,167,o),
(1584,384,cs),
(1584,451,o),
(1552,588,o),
(1517,664,c),
(1389,552,l),
(1509,250,l),
(1526,284,l),
(1306,192,o),
(1097,145,o),
(782,145,cs),
(293,145,o),
(166,259,o),
(262,559,c),
(210,576,l),
(77,201,o),
(190,-10,o),
(763,-10,cs)
);
}
);
};
layerId = "38E089FB-40A5-439B-ADA4-826FC3BCA9C1";
name = "11 Feb 22 23.29";
shapes = (
{
closed = 1;
nodes = (
(1372,-50,o),
(1801,117,o),
(1801,379,cs),
(1801,440,o),
(1778,558,o),
(1717,674,c),
(1697,674,l),
(1609,582,l),
(1739,270,l),
(1756,304,l),
(1578,195,o),
(1237,105,o),
(833,105,cs),
(341,105,o),
(147,238,o),
(292,599,c),
(238,618,l),
(43,159,o),
(231,-50,o),
(833,-50,cs)
);
}
);
width = 1975;
}
);
metricRight = "=|";
unicode = 1646;
},
{
glyphname = "behDotless-ar.fina";
lastChange = "2022-03-26 12:08:47 +0000";
layers = (
{
anchors = (
{
name = bottom;
pos = (1032,-80);
},
{
name = entry;
pos = (1974,-20);
},
{
name = ring;
pos = (952,-80);
},
{
name = top;
pos = (1036,2096);
}
);
background = {
shapes = (
{
closed = 1;
nodes = (
(425,75,o),
(199,184,o),
(297,499,c),
(243,515,l),
(97,104,o),
(280,-80,o),
(836,-80,cs),
(1268,-80,o),
(1632,31,o),
(1800,216,c),
(1728,267,l),
(1753,40,o),
(1835,-20,o),
(1974,-20,c),
(2027,-20,o),
(2027,136,o),
(1974,136,c),
(1860,136,o),
(1801,202,o),
(1791,348,c),
(1758,348,l),
(1639,171,o),
(1261,75,o),
(858,75,cs)
);
}
);
};
layerId = m01;
shapes = (
{
closed = 1;
nodes = (
(425,75,o),
(199,184,o),
(297,499,c),
(243,515,l),
(97,104,o),
(280,-80,o),
(836,-80,cs),
(1268,-80,o),
(1632,37,o),
(1800,220,c),
(1728,267,l),
(1753,40,o),
(1835,-20,o),
(1974,-20,c),
(2027,-20,o),
(2027,136,o),
(1974,136,c),
(1860,136,o),
(1801,202,o),
(1791,348,c),
(1758,348,l),
(1629,181,o),
(1261,75,o),
(858,75,cs)
);
}
);
width = 1974;
},
{
associatedMasterId = m01;
background = {
shapes = (
{
ref = "behDotless-ar";
}
);
};
layerId = "BEBE5E3F-3505-43E5-AE6B-D283B860DC21";
name = "2 Jan 22 22.48";
shapes = (
{
closed = 1;
nodes = (
(281,125,o),
(86,228,o),
(232,619,c),
(178,635,l),
(-18,170,o),
(170,-30,o),
(787,-30,cs),
(1198,-30,o),
(1561,61,o),
(1721,247,c),
(1671,247,l),
(1705,39,o),
(1812,-20,o),
(1957,-20,c),
(2010,-20,o),
(2010,135,o),
(1957,135,c),
(1839,135,o),
(1768,190,o),
(1734,348,c),
(1701,348,l),
(1581,192,o),
(1208,125,o),
(796,125,cs)
);
}
);
width = 1957;
},
{
anchors = (
{
name = bottom;
pos = (952,-80);
},
{
name = entry;
pos = (1974,-20);
},
{
name = ring;
pos = (952,-80);
},
{
name = top;
pos = (1036,2096);
}
);
associatedMasterId = m01;
background = {
shapes = (
{
closed = 1;
nodes = (
(338,125,o),
(143,228,o),
(289,619,c),
(235,635,l),
(39,170,o),
(227,-30,o),
(844,-30,cs),
(1255,-30,o),
(1618,61,o),
(1778,247,c),
(1728,247,l),
(1762,39,o),
(1869,-20,o),
(2014,-20,c),
(2067,-20,o),
(2067,135,o),
(2014,135,c),
(1896,135,o),
(1825,190,o),
(1791,348,c),
(1758,348,l),
(1638,192,o),
(1265,125,o),
(853,125,cs)
);
}
);
};
layerId = "0271DE40-72BA-43EE-A310-73C9AB1B7FEC";
name = "11 Feb 22 23.30";
shapes = (
{
closed = 1;
nodes = (
(425,75,o),
(199,184,o),
(297,499,c),
(243,515,l),
(97,104,o),
(280,-80,o),
(836,-80,cs),
(1268,-80,o),
(1632,31,o),
(1800,216,c),
(1728,267,l),
(1753,40,o),
(1835,-20,o),
(1974,-20,c),
(2027,-20,o),
(2027,136,o),
(1974,136,c),
(1860,136,o),
(1801,202,o),
(1791,348,c),
(1758,348,l),
(1639,171,o),
(1261,75,o),
(858,75,cs)
);
}
);
width = 1974;
},
{
anchors = (
{
name = bottom;
pos = (1032,-80);
},
{
name = entry;
pos = (1974,-20);
},
{
name = ring;
pos = (952,-80);
},
{
name = top;
pos = (1036,2096);
}
);
background = {
shapes = (
{
closed = 1;
nodes = (
(425,75,o),
(199,184,o),
(297,499,c),
(243,515,l),
(97,104,o),
(280,-80,o),
(836,-80,cs),
(1268,-80,o),
(1632,31,o),
(1800,216,c),
(1728,267,l),
(1753,40,o),
(1835,-20,o),
(1974,-20,c),
(2027,-20,o),
(2027,136,o),
(1974,136,c),
(1860,136,o),
(1801,202,o),
(1791,348,c),
(1758,348,l),
(1639,171,o),
(1261,75,o),
(858,75,cs)
);
}
);
};
layerId = m002;
shapes = (
{
closed = 1;
nodes = (
(425,75,o),
(199,184,o),
(297,499,c),
(243,515,l),
(97,104,o),
(280,-80,o),
(836,-80,cs),
(1268,-80,o),
(1632,37,o),
(1800,220,c),
(1728,267,l),
(1753,40,o),
(1835,-20,o),
(1974,-20,c),
(2027,-20,o),
(2027,136,o),
(1974,136,c),
(1860,136,o),
(1801,202,o),
(1791,348,c),
(1758,348,l),
(1629,181,o),
(1261,75,o),
(858,75,cs)
);
}
);
width = 1974;
},
{
associatedMasterId = m002;
background = {
shapes = (
{
ref = "behDotless-ar";
}
);
};
layerId = "0B623B70-8F74-4F88-B6DE-C577E2DC7FF9";
name = "2 Jan 22 22.48";
shapes = (
{
closed = 1;
nodes = (
(281,125,o),
(86,228,o),
(232,619,c),
(178,635,l),
(-18,170,o),
(170,-30,o),
(787,-30,cs),
(1198,-30,o),
(1561,61,o),
(1721,247,c),
(1671,247,l),
(1705,39,o),
(1812,-20,o),
(1957,-20,c),
(2010,-20,o),
(2010,135,o),
(1957,135,c),
(1839,135,o),
(1768,190,o),
(1734,348,c),
(1701,348,l),
(1581,192,o),
(1208,125,o),
(796,125,cs)
);
}
);
width = 1957;
},
{
anchors = (
{
name = bottom;
pos = (952,-80);
},
{
name = entry;
pos = (1974,-20);
},
{
name = ring;
pos = (952,-80);
},
{
name = top;
pos = (1036,2096);
}
);
associatedMasterId = m002;
background = {
shapes = (
{
closed = 1;
nodes = (
(338,125,o),
(143,228,o),
(289,619,c),
(235,635,l),
(39,170,o),
(227,-30,o),
(844,-30,cs),
(1255,-30,o),
(1618,61,o),
(1778,247,c),
(1728,247,l),
(1762,39,o),
(1869,-20,o),
(2014,-20,c),
(2067,-20,o),
(2067,135,o),
(2014,135,c),
(1896,135,o),
(1825,190,o),
(1791,348,c),
(1758,348,l),
(1638,192,o),
(1265,125,o),
(853,125,cs)
);
}
);
};
layerId = "7CC7E125-08BB-4806-9618-4A2E8A5E4817";
name = "11 Feb 22 23.30";
shapes = (
{
closed = 1;
nodes = (
(425,75,o),
(199,184,o),
(297,499,c),
(243,515,l),
(97,104,o),
(280,-80,o),
(836,-80,cs),
(1268,-80,o),
(1632,31,o),
(1800,216,c),
(1728,267,l),
(1753,40,o),
(1835,-20,o),
(1974,-20,c),
(2027,-20,o),
(2027,136,o),
(1974,136,c),
(1860,136,o),
(1801,202,o),
(1791,348,c),
(1758,348,l),
(1639,171,o),
(1261,75,o),
(858,75,cs)
);
}
);
width = 1974;
}
);
metricLeft = "behDotless-ar";
},
{
glyphname = "behDotless-ar.medi";
lastChange = "2022-03-26 12:08:47 +0000";
layers = (
{
anchors = (
{
name = bottom;
pos = (183,0);
},
{
name = entry;
pos = (445,-20);
},
{
name = exit;
pos = (0,-20);
},
{
name = ring;
pos = (183,0);
},
{
name = top;
pos = (223,516);
}
);
layerId = m01;
shapes = (
{
closed = 1;
nodes = (
(96,-20,o),
(219,30,o),
(229,217,c),
(199,207,l),
(221,28,o),
(335,-20,o),
(445,-20,c),
(498,-20,o),
(498,135,o),
(445,135,c),
(328,135,o),
(271,174,o),
(236,342,c),
(199,337,l),
(184,169,o),
(122,135,o),
(0,135,c),
(-53,135,o),
(-53,-20,o),
(0,-20,c)
);
}
);
width = 445;
},
{
anchors = (
{
name = bottom;
pos = (183,0);
},
{
name = entry;
pos = (445,-20);
},
{
name = exit;
pos = (0,-20);
},
{
name = ring;
pos = (183,0);
},
{
name = top;
pos = (223,516);
}
);
layerId = m002;
shapes = (
{
closed = 1;
nodes = (
(96,-20,o),
(219,30,o),
(229,217,c),
(199,207,l),
(221,28,o),
(335,-20,o),
(445,-20,c),
(498,-20,o),
(498,135,o),
(445,135,c),
(328,135,o),
(271,174,o),
(236,342,c),
(199,337,l),
(184,169,o),
(122,135,o),
(0,135,c),
(-53,135,o),
(-53,-20,o),
(0,-20,c)
);
}
);
width = 445;
}
);
metricLeft = "=|";
},
{
glyphname = "behDotless-ar.init";
lastChange = "2022-03-26 12:08:47 +0000";
layers = (
{
anchors = (
{
name = bottom;
pos = (152,0);
},
{
name = exit;
pos = (0,-20);
},
{
name = ring;
pos = (152,0);
},
{
name = top;
pos = (152,698);
}
);
layerId = m01;
shapes = (
{
closed = 1;
nodes = (
(-67,135,o),
(-67,-20,o),
(0,-20,c),
(165,-20,o),
(271,102,o),
(271,288,cs),
(271,378,o),
(246,483,o),
(202,574,c),
(182,574,l),
(94,472,l),
(214,170,l),
(241,204,l),
(173,154,o),
(108,135,o),
(0,135,c)
);
}
);
width = 466;
},
{
anchors = (
{
name = bottom;
pos = (152,0);
},
{
name = exit;
pos = (0,-20);
},
{
name = ring;
pos = (152,0);
},
{
name = top;
pos = (152,698);
}
);
layerId = m002;
shapes = (
{
closed = 1;
nodes = (
(-67,135,o),
(-67,-20,o),
(0,-20,c),
(165,-20,o),
(271,102,o),
(271,288,cs),
(271,378,o),
(246,483,o),
(202,574,c),
(182,574,l),
(94,472,l),
(214,170,l),
(241,204,l),
(173,154,o),
(108,135,o),
(0,135,c)
);
}
);
width = 466;
}
);
metricRight = "behDotless-ar";
},
{
glyphname = "hah-ar.medi";
lastChange = "2022-03-26 12:08:47 +0000";
layers = (
{
anchors = (
{
name = entry;
pos = (1197,-20);
},
{
name = exit;
pos = (-1,-20);
}
);
layerId = m01;
shapes = (
{
closed = 1;
nodes = (
(505,-20,o),
(684,248,o),
(1042,240,cs),
(1130,238,l),
(1174,321,l),
(1174,350,l),
(822,350,o),
(655,539,o),
(387,539,cs),
(327,539,o),
(262,526,o),
(217,501,c),
(146,393,l),
(166,373,l),
(478,483,o),
(721,262,o),
(992,262,c),
(965,315,l),
(600,315,o),
(561,135,o),
(-1,135,c),
(-81,135,o),
(-70,-20,o),
(-1,-20,c)
);
},
{
closed = 1;
nodes = (
(1254,-20,o),
(1264,135,o),
(1207,135,c),
(1080,135,o),
(1042,175,o),
(1028,266,c),
(975,272,l),
(963,72,o),
(1037,-20,o),
(1197,-20,c)
);
}
);
width = 1207;
},
{
anchors = (
{
name = entry;
pos = (1197,-20);
},
{
name = exit;
pos = (-1,-20);
}
);
layerId = m002;
shapes = (
{
closed = 1;
nodes = (
(505,-20,o),
(684,248,o),
(1042,240,cs),
(1130,238,l),
(1174,321,l),
(1174,350,l),
(822,350,o),
(655,539,o),
(387,539,cs),
(327,539,o),
(262,526,o),
(217,501,c),
(146,393,l),
(166,373,l),
(478,483,o),
(721,262,o),
(992,262,c),
(965,315,l),
(600,315,o),
(561,135,o),
(-1,135,c),
(-81,135,o),
(-70,-20,o),
(-1,-20,c)
);
},
{
closed = 1;
nodes = (
(1254,-20,o),
(1264,135,o),
(1207,135,c),
(1080,135,o),
(1042,175,o),
(1028,266,c),
(975,272,l),
(963,72,o),
(1037,-20,o),
(1197,-20,c)
);
}
);
width = 1207;
}
);
},
{
glyphname = "hah-ar.init";
lastChange = "2022-03-26 12:08:47 +0000";
layers = (
{
layerId = m01;
shapes = (
{
closed = 1;
nodes = (
(505,-20,o),
(684,238,o),
(1042,230,cs),
(1130,228,l),
(1174,321,l),
(1174,350,l),
(822,350,o),
(655,539,o),
(387,539,cs),
(327,539,o),
(262,526,o),
(217,501,c),
(146,393,l),
(166,373,l),
(478,483,o),
(721,262,o),
(992,262,c),
(965,315,l),
(600,315,o),
(561,135,o),
(-1,135,c),
(-81,135,o),
(-70,-20,o),
(-1,-20,c)
);
}
);
width = 1200;
},
{
layerId = m002;
shapes = (
{
closed = 1;
nodes = (
(505,-20,o),
(684,238,o),
(1042,230,cs),
(1130,228,l),
(1174,321,l),
(1174,350,l),
(822,350,o),
(655,539,o),
(387,539,cs),
(327,539,o),
(262,526,o),
(217,501,c),
(146,393,l),
(166,373,l),
(478,483,o),
(721,262,o),
(992,262,c),
(965,315,l),
(600,315,o),
(561,135,o),
(-1,135,c),
(-81,135,o),
(-70,-20,o),
(-1,-20,c)
);
}
);
width = 1200;
}
);
},
{
glyphname = "reh-ar.fina";
lastChange = "2022-03-26 12:08:47 +0000";
layers = (
{
layerId = m01;
shapes = (
{
closed = 1;
nodes = (
(938,135,o),
(823,208,o),
(757,293,c),
(732,293,l),
(704,142,l),
(785,48,o),
(907,-20,o),
(1080,-20,c),
(1159,-20,o),
(1159,135,o),
(1080,135,c)
);
},
{
closed = 1;
nodes = (
(750,104,o),
(781,67,o),
(813,29,c),
(821,67,l),
(690,-333,o),
(425,-436,o),
(45,-385,c),
(30,-427,l),
(101,-466,o),
(299,-532,o),
(402,-532,cs),
(619,-532,o),
(870,-253,o),
(880,125,c),
(704,142,l)
);
}
);
width = 1080;
},
{
layerId = m002;
shapes = (
{
closed = 1;
nodes = (
(938,135,o),
(823,208,o),
(757,293,c),
(732,293,l),
(704,142,l),
(785,48,o),
(907,-20,o),
(1080,-20,c),
(1159,-20,o),
(1159,135,o),
(1080,135,c)
);
},
{
closed = 1;
nodes = (
(750,104,o),
(781,67,o),
(813,29,c),
(821,67,l),
(690,-333,o),
(425,-436,o),
(45,-385,c),
(30,-427,l),
(101,-466,o),
(299,-532,o),
(402,-532,cs),
(619,-532,o),
(870,-253,o),
(880,125,c),
(704,142,l)
);
}
);
width = 1080;
}
);
},
{
glyphname = "seen-ar.fina";
lastChange = "2022-03-26 12:08:47 +0000";
layers = (
{
anchors = (
{
name = bottom;
pos = (1101,241);
},
{
name = top;
pos = (1144,418);
}
);
layerId = m01;
shapes = (
{
closed = 1;
nodes = (
(770,86,l),
(811,18,o),
(866,-20,o),
(953,-20,cs),
(1140,-20,o),
(1184,162,o),
(1217,312,c),
(1180,322,l),
(1132,186,o),
(1075,125,o),
(966,125,cs),
(874,125,o),
(834,169,o),
(796,230,c)
);
},
{
closed = 1;
nodes = (
(1085,126,l),
(1141,20,o),
(1219,-20,o),
(1296,-20,cs),
(1463,-20,o),
(1511,155,o),
(1542,312,c),
(1505,322,l),
(1463,186,o),
(1410,125,o),
(1320,125,cs),
(1255,125,o),
(1198,159,o),
(1171,200,c)
);
},
{
closed = 1;
nodes = (
(1440,110,l),
(1494,25,o),
(1565,-20,o),
(1683,-20,c),
(1723,-20,o),
(1723,135,o),
(1683,135,c),
(1615,135,o),
(1551,158,o),
(1516,204,c)
);
},
{
closed = 1;
nodes = (
(694,-550,o),
(878,-378,o),
(878,-172,cs),
(878,-88,o),
(847,122,o),
(774,294,c),
(754,294,l),
(679,222,l),
(846,-250,l),
(853,-196,l),
(771,-305,o),
(644,-395,o),
(454,-395,cs),
(189,-395,o),
(87,-219,o),
(189,79,c),
(135,98,l),
(-32,-347,o),
(157,-550,o),
(437,-550,cs)
);
}
);
width = 1683;
},
{
anchors = (
{
name = bottom;
pos = (1101,241);
},
{
name = top;
pos = (1144,418);
}
);
layerId = m002;
shapes = (
{
closed = 1;
nodes = (
(770,86,l),
(811,18,o),
(866,-20,o),
(953,-20,cs),
(1140,-20,o),
(1184,162,o),
(1217,312,c),
(1180,322,l),
(1132,186,o),
(1075,125,o),
(966,125,cs),
(874,125,o),
(834,169,o),
(796,230,c)
);
},
{
closed = 1;
nodes = (
(1085,126,l),
(1141,20,o),
(1219,-20,o),
(1296,-20,cs),
(1463,-20,o),
(1511,155,o),
(1542,312,c),
(1505,322,l),
(1463,186,o),
(1410,125,o),
(1320,125,cs),
(1255,125,o),
(1198,159,o),
(1171,200,c)
);
},
{
closed = 1;
nodes = (
(1440,110,l),
(1494,25,o),
(1565,-20,o),
(1683,-20,c),
(1723,-20,o),
(1723,135,o),
(1683,135,c),
(1615,135,o),
(1551,158,o),
(1516,204,c)
);
},
{
closed = 1;
nodes = (
(694,-550,o),
(878,-378,o),
(878,-172,cs),
(878,-88,o),
(847,122,o),
(774,294,c),
(754,294,l),
(679,222,l),
(846,-250,l),
(853,-196,l),
(771,-305,o),
(644,-395,o),
(454,-395,cs),
(189,-395,o),
(87,-219,o),
(189,79,c),
(135,98,l),
(-32,-347,o),
(157,-550,o),
(437,-550,cs)
);
}
);
width = 1683;
}
);
},
{
glyphname = "seen-ar.medi";
lastChange = "2022-03-26 12:08:47 +0000";
layers = (
{
anchors = (
{
name = bottom;
pos = (676,0);
},
{
name = top;
pos = (776,491);
}
);
layerId = m01;
shapes = (
{
closed = 1;
nodes = (
(269,156,l),
(327,29,o),
(408,-20,o),
(510,-20,cs),
(712,-20,o),
(761,170,o),
(796,342,c),
(759,342,l),
(710,199,o),
(651,135,o),
(539,135,cs),
(441,135,o),
(397,179,o),
(355,240,c),
(354,205,l),
(374,253,o),
(385,285,o),
(397,338,c),
(364,338,l),
(309,211,o),
(243,135,o),
(0,135,c),
(-53,135,o),
(-53,-20,o),
(0,-20,c),
(150,-20,o),
(269,33,o),
(336,166,c)
);
},
{
closed = 1;
nodes = (
(674,156,l),
(734,29,o),
(805,-20,o),
(901,-20,cs),
(1092,-20,o),
(1134,170,o),
(1171,342,c),
(1134,342,l),
(1081,199,o),
(1035,135,o),
(928,135,cs),
(840,135,o),
(792,178,o),
(760,240,c)
);
},
{
closed = 1;
nodes = (
(1059,146,l),
(1117,20,o),
(1184,-20,o),
(1322,-20,c),
(1362,-20,o),
(1362,135,o),
(1322,135,c),
(1238,135,o),
(1174,164,o),
(1135,240,c)
);
}
);
width = 1322;
},
{
anchors = (
{
name = bottom;
pos = (676,0);
},
{
name = top;
pos = (776,491);
}
);
layerId = m002;
shapes = (
{
closed = 1;
nodes = (
(269,156,l),
(327,29,o),
(408,-20,o),
(510,-20,cs),
(712,-20,o),
(761,170,o),
(796,342,c),
(759,342,l),
(710,199,o),
(651,135,o),
(539,135,cs),
(441,135,o),
(397,179,o),
(355,240,c),
(354,205,l),
(374,253,o),
(385,285,o),
(397,338,c),
(364,338,l),
(309,211,o),
(243,135,o),
(0,135,c),
(-53,135,o),
(-53,-20,o),
(0,-20,c),
(150,-20,o),
(269,33,o),
(336,166,c)
);
},
{
closed = 1;
nodes = (
(674,156,l),
(734,29,o),
(805,-20,o),
(901,-20,cs),
(1092,-20,o),
(1134,170,o),
(1171,342,c),
(1134,342,l),
(1081,199,o),
(1035,135,o),
(928,135,cs),
(840,135,o),
(792,178,o),
(760,240,c)
);
},
{
closed = 1;
nodes = (
(1059,146,l),
(1117,20,o),
(1184,-20,o),
(1322,-20,c),
(1362,-20,o),
(1362,135,o),
(1322,135,c),
(1238,135,o),
(1174,164,o),
(1135,240,c)
);
}
);
width = 1322;
}
);
},
{
glyphname = "seen-ar.init";
lastChange = "2022-03-26 12:08:47 +0000";
layers = (
{
anchors = (
{
name = bottom;
pos = (570,0);
},
{
name = exit;
pos = (0,-20);
},
{
name = top;
pos = (660,510);
}
);
background = {
shapes = (
{
closed = 1;
nodes = (
(209,146,l),
(269,27,o),
(349,-20,o),
(449,-20,cs),
(552,-20,o),
(638,30,o),
(669,119,c),
(643,132,l),
(719,29,o),
(855,-20,o),
(924,-20,cs),
(1008,-20,o),
(1081,54,o),
(1081,210,cs),
(1081,290,o),
(1062,409,o),
(1032,504,c),
(1012,504,l),
(904,422,l),
(1017,72,l),
(1055,115,l),
(884,135,o),
(772,184,o),
(704,266,c),
(704,230,l),
(714,258,o),
(725,291,o),
(736,332,c),
(699,332,l),
(650,196,o),
(592,135,o),
(479,135,cs),
(381,135,o),
(335,180,o),
(295,240,c),
(294,205,l),
(314,253,o),
(325,285,o),
(337,338,c),
(304,338,l),
(257,201,o),
(180,135,o),
(0,135,c),
(-53,135,o),
(-53,-20,o),
(0,-20,c),
(118,-20,o),
(219,23,o),
(276,166,c)
);
}
);
};
layerId = m01;
shapes = (
{
closed = 1;
nodes = (
(205,136,l),
(259,24,o),
(329,-20,o),
(424,-20,cs),
(526,-20,o),
(599,33,o),
(639,119,c),
(613,132,l),
(681,29,o),
(801,-20,o),
(866,-20,cs),
(946,-20,o),
(1021,53,o),
(1021,208,cs),
(1021,274,o),
(1006,365,o),
(982,444,c),
(962,444,l),
(859,362,l),
(957,72,l),
(995,105,l),
(834,125,o),
(728,174,o),
(664,256,c),
(662,208,l),
(676,242,o),
(691,282,o),
(706,332,c),
(669,332,l),
(620,196,o),
(560,135,o),
(454,135,cs),
(363,135,o),
(325,176,o),
(291,230,c),
(294,205,l),
(314,253,o),
(325,285,o),
(337,338,c),
(304,338,l),
(257,201,o),
(180,135,o),
(0,135,c),
(-53,135,o),
(-53,-20,o),
(0,-20,c),
(118,-20,o),
(219,23,o),
(276,166,c)
);
}
);
width = 1130;
},
{
anchors = (
{
name = bottom;
pos = (570,0);
},
{
name = exit;
pos = (0,-20);
},
{
name = top;
pos = (660,510);
}
);
background = {
shapes = (
{
closed = 1;
nodes = (
(209,146,l),
(269,27,o),
(349,-20,o),
(449,-20,cs),
(552,-20,o),
(638,30,o),
(669,119,c),
(643,132,l),
(719,29,o),
(855,-20,o),
(924,-20,cs),
(1008,-20,o),
(1081,54,o),
(1081,210,cs),
(1081,290,o),
(1062,409,o),
(1032,504,c),
(1012,504,l),
(904,422,l),
(1017,72,l),
(1055,115,l),
(884,135,o),
(772,184,o),
(704,266,c),
(704,230,l),
(714,258,o),
(725,291,o),
(736,332,c),
(699,332,l),
(650,196,o),
(592,135,o),
(479,135,cs),
(381,135,o),
(335,180,o),
(295,240,c),
(294,205,l),
(314,253,o),
(325,285,o),
(337,338,c),
(304,338,l),
(257,201,o),
(180,135,o),
(0,135,c),
(-53,135,o),
(-53,-20,o),
(0,-20,c),
(118,-20,o),
(219,23,o),
(276,166,c)
);
}
);
};
layerId = m002;
shapes = (
{
closed = 1;
nodes = (
(205,136,l),
(259,24,o),
(329,-20,o),
(424,-20,cs),
(526,-20,o),
(599,33,o),
(639,119,c),
(613,132,l),
(681,29,o),
(801,-20,o),
(866,-20,cs),
(946,-20,o),
(1021,53,o),
(1021,208,cs),
(1021,274,o),
(1006,365,o),
(982,444,c),
(962,444,l),
(859,362,l),
(957,72,l),
(995,105,l),
(834,125,o),
(728,174,o),
(664,256,c),
(662,208,l),
(676,242,o),
(691,282,o),
(706,332,c),
(669,332,l),
(620,196,o),
(560,135,o),
(454,135,cs),
(363,135,o),
(325,176,o),
(291,230,c),
(294,205,l),
(314,253,o),
(325,285,o),
(337,338,c),
(304,338,l),
(257,201,o),
(180,135,o),
(0,135,c),
(-53,135,o),
(-53,-20,o),
(0,-20,c),
(118,-20,o),
(219,23,o),
(276,166,c)
);
}
);
width = 1130;
}
);
},
{
glyphname = "fehDotless-ar";
lastChange = "2022-03-26 12:08:47 +0000";
layers = (
{
layerId = m01;
shapes = (
{
closed = 1;
nodes = (
(1679,320,c),
(1696,354,l),
(1514,210,o),
(1179,95,o),
(763,95,cs),
(281,95,o),
(87,232,o),
(232,589,c),
(178,608,l),
(-16,154,o),
(170,-60,o),
(768,-60,cs),
(1316,-60,o),
(1741,132,o),
(1741,428,cs),
(1741,580,o),
(1615,849,o),
(1483,849,cs),
(1362,849,o),
(1284,619,o),
(1284,533,cs),
(1284,447,o),
(1382,383,o),
(1477,383,cs),
(1578,383,o),
(1636,455,o),
(1678,522,c),
(1568,619,l),
(1538,573,o),
(1513,551,o),
(1465,551,cs),
(1415,551,o),
(1379,580,o),
(1352,617,c),
(1342,546,l),
(1358,610,o),
(1369,668,o),
(1427,668,cs),
(1502,668,o),
(1585,570,o)
);
}
);
width = 1845;
},
{
layerId = m002;
shapes = (
{
closed = 1;
nodes = (
(1679,320,c),
(1696,354,l),
(1514,210,o),
(1179,95,o),
(763,95,cs),
(281,95,o),
(87,232,o),
(232,589,c),
(178,608,l),
(-16,154,o),
(170,-60,o),
(768,-60,cs),
(1316,-60,o),
(1741,132,o),
(1741,428,cs),
(1741,580,o),
(1615,849,o),
(1483,849,cs),
(1362,849,o),
(1284,619,o),
(1284,533,cs),
(1284,447,o),
(1382,383,o),
(1477,383,cs),
(1578,383,o),
(1636,455,o),
(1678,522,c),
(1568,619,l),
(1538,573,o),
(1513,551,o),
(1465,551,cs),
(1415,551,o),
(1379,580,o),
(1352,617,c),
(1342,546,l),
(1358,610,o),
(1369,668,o),
(1427,668,cs),
(1502,668,o),
(1585,570,o)
);
}
);
width = 1845;
}
);
metricRight = "=|";
unicode = 1697;
},
{
glyphname = "fehDotless-ar.init";
lastChange = "2022-03-26 12:08:47 +0000";
layers = (
{
anchors = (
{
name = bottom;
pos = (248,0);
},
{
name = exit;
pos = (0,-20);
},
{
name = top;
pos = (248,769);
}
);
background = {
shapes = (
{
closed = 1;
nodes = (
(-53,135,o),
(-53,-20,o),
(0,-20,c),
(287,-20,o),
(505,133,o),
(505,332,cs),
(505,485,o),
(377,709,o),
(249,709,cs),
(126,709,o),
(48,494,o),
(48,419,cs),
(48,334,o),
(147,278,o),
(241,278,cs),
(342,278,o),
(400,342,o),
(442,402,c),
(332,499,l),
(302,453,o),
(277,431,o),
(229,431,cs),
(179,431,o),
(143,460,o),
(116,497,c),
(106,426,l),
(122,490,o),
(133,548,o),
(191,548,cs),
(266,548,o),
(349,456,o),
(443,240,c),
(460,274,l),
(370,197,o),
(204,135,o),
(0,135,c)
);
}
);
};
layerId = m01;
shapes = (
{
closed = 1;
nodes = (
(-53,135,o),
(-53,-20,o),
(0,-20,c),
(276,-20,o),
(485,133,o),
(485,331,cs),
(485,479,o),
(368,693,o),
(246,693,cs),
(128,693,o),
(48,490,o),
(48,422,cs),
(48,346,o),
(147,299,o),
(243,299,cs),
(342,299,o),
(400,348,o),
(442,393,c),
(352,489,l),
(316,457,o),
(284,441,o),
(235,441,cs),
(175,441,o),
(144,466,o),
(116,497,c),
(106,426,l),
(122,490,o),
(133,548,o),
(191,548,cs),
(260,548,o),
(336,456,o),
(423,240,c),
(440,274,l),
(354,197,o),
(195,135,o),
(0,135,c)
);
}
);
width = 589;
},
{
anchors = (
{
name = bottom;
pos = (248,0);
},
{
name = exit;
pos = (0,-20);
},
{
name = top;
pos = (248,769);
}
);
associatedMasterId = m01;
background = {
shapes = (
{
closed = 1;
nodes = (
(-53,135,o),
(-53,-20,o),
(0,-20,c),
(285,-20,o),
(505,126,o),
(505,345,cs),
(505,493,o),
(379,749,o),
(248,749,cs),
(126,749,o),
(48,518,o),
(48,437,cs),
(48,345,o),
(147,283,o),
(241,283,cs),
(342,283,o),
(400,355,o),
(442,422,c),
(332,519,l),
(302,473,o),
(277,451,o),
(229,451,cs),
(179,451,o),
(143,480,o),
(116,517,c),
(106,446,l),
(122,510,o),
(133,568,o),
(191,568,cs),
(266,568,o),
(349,470,o),
(443,240,c),
(460,274,l),
(370,197,o),
(204,135,o),
(0,135,c)
);
}
);
};
layerId = "388723A8-0D8C-4A20-AC3C-6FD0E3BF6CEB";
name = "11 Feb 22 23.52";
shapes = (
{
closed = 1;
nodes = (
(-53,135,o),
(-53,-20,o),
(0,-20,c),
(287,-20,o),
(505,133,o),
(505,332,cs),
(505,485,o),
(377,709,o),
(249,709,cs),
(126,709,o),
(48,494,o),
(48,419,cs),
(48,334,o),
(147,278,o),
(241,278,cs),
(342,278,o),
(400,342,o),
(442,402,c),
(332,499,l),
(302,453,o),
(277,431,o),
(229,431,cs),
(179,431,o),
(143,460,o),
(116,497,c),
(106,426,l),
(122,490,o),
(133,548,o),
(191,548,cs),
(266,548,o),
(349,456,o),
(443,240,c),
(460,274,l),
(370,197,o),
(204,135,o),
(0,135,c)
);
}
);
width = 609;
},
{
anchors = (
{
name = bottom;
pos = (248,0);
},
{
name = exit;
pos = (0,-20);
},
{
name = top;
pos = (248,769);
}
);
background = {
shapes = (
{
closed = 1;
nodes = (
(-53,135,o),
(-53,-20,o),
(0,-20,c),
(287,-20,o),
(505,133,o),
(505,332,cs),
(505,485,o),
(377,709,o),
(249,709,cs),
(126,709,o),
(48,494,o),
(48,419,cs),
(48,334,o),
(147,278,o),
(241,278,cs),
(342,278,o),
(400,342,o),
(442,402,c),
(332,499,l),
(302,453,o),
(277,431,o),
(229,431,cs),
(179,431,o),
(143,460,o),
(116,497,c),
(106,426,l),
(122,490,o),
(133,548,o),
(191,548,cs),
(266,548,o),
(349,456,o),
(443,240,c),
(460,274,l),
(370,197,o),
(204,135,o),
(0,135,c)
);
}
);
};
layerId = m002;
shapes = (
{
closed = 1;
nodes = (
(-53,135,o),
(-53,-20,o),
(0,-20,c),
(276,-20,o),
(485,133,o),
(485,331,cs),
(485,479,o),
(368,693,o),
(246,693,cs),
(128,693,o),
(48,490,o),
(48,422,cs),
(48,346,o),
(147,299,o),
(243,299,cs),
(342,299,o),
(400,348,o),
(442,393,c),
(352,489,l),
(316,457,o),
(284,441,o),
(235,441,cs),
(175,441,o),
(144,466,o),
(116,497,c),
(106,426,l),
(122,490,o),
(133,548,o),
(191,548,cs),
(260,548,o),
(336,456,o),
(423,240,c),
(440,274,l),
(354,197,o),
(195,135,o),
(0,135,c)
);
}
);
width = 589;
},
{
anchors = (
{
name = bottom;
pos = (248,0);
},
{
name = exit;
pos = (0,-20);
},
{
name = top;
pos = (248,769);
}
);
associatedMasterId = m002;
background = {
shapes = (
{
closed = 1;
nodes = (
(-53,135,o),
(-53,-20,o),
(0,-20,c),
(285,-20,o),
(505,126,o),
(505,345,cs),
(505,493,o),
(379,749,o),
(248,749,cs),
(126,749,o),
(48,518,o),
(48,437,cs),
(48,345,o),
(147,283,o),
(241,283,cs),
(342,283,o),
(400,355,o),
(442,422,c),
(332,519,l),
(302,473,o),
(277,451,o),
(229,451,cs),
(179,451,o),
(143,480,o),
(116,517,c),
(106,446,l),
(122,510,o),
(133,568,o),
(191,568,cs),
(266,568,o),
(349,470,o),
(443,240,c),
(460,274,l),
(370,197,o),
(204,135,o),
(0,135,c)
);
}
);
};
layerId = "994415FD-159A-4538-86FD-80522D33BB3E";
name = "11 Feb 22 23.52";
shapes = (
{
closed = 1;
nodes = (
(-53,135,o),
(-53,-20,o),
(0,-20,c),
(287,-20,o),
(505,133,o),
(505,332,cs),
(505,485,o),
(377,709,o),
(249,709,cs),
(126,709,o),
(48,494,o),
(48,419,cs),
(48,334,o),
(147,278,o),
(241,278,cs),
(342,278,o),
(400,342,o),
(442,402,c),
(332,499,l),
(302,453,o),
(277,431,o),
(229,431,cs),
(179,431,o),
(143,460,o),
(116,497,c),
(106,426,l),
(122,490,o),
(133,548,o),
(191,548,cs),
(266,548,o),
(349,456,o),
(443,240,c),
(460,274,l),
(370,197,o),
(204,135,o),
(0,135,c)
);
}
);
width = 609;
}
);
metricRight = "fehDotless-ar";
},
{
glyphname = "kaf-ar.medi";
lastChange = "2022-03-26 12:08:47 +0000";
layers = (
{
anchors = (
{
name = entry;
pos = (2163,-50);
},
{
name = exit;
pos = (0,-20);
}
);
background = {
shapes = (
{
closed = 1;
nodes = (
(778,-20,o),
(1261,114,o),
(1966,114,c),
(2020,141,o),
(2084,237,o),
(2084,318,cs),
(2084,416,o),
(1989,576,o),
(1650,576,cs),
(1394,576,o),
(948,485,o),
(562,485,cs),
(416,485,o),
(329,498,o),
(263,536,c),
(264,495,l),
(322,621,o),
(553,774,o),
(952,851,c),
(988,969,l),
(971,995,l),
(369,845,o),
(193,573,o),
(193,459,cs),
(193,357,o),
(333,335,o),
(563,335,cs),
(867,335,o),
(1357,425,o),
(1649,425,cs),
(1892,425,o),
(1976,360,o),
(2013,227,c),
(2030,249,l),
(1250,249,o),
(803,135,o),
(0,135,c),
(-72,135,o),
(-72,-20,o),
(0,-20,c)
);
},
{
closed = 1;
nodes = (
(2190,-50,o),
(2189,105,o),
(2132,105,c),
(2031,105,o),
(1997,121,o),
(1973,156,c),
(1920,162,l),
(1936,17,o),
(1989,-50,o),
(2133,-50,c)
);
}
);
};
layerId = m01;
shapes = (
{
closed = 1;
nodes = (
(778,-20,o),
(1261,114,o),
(1966,114,c),
(2020,141,o),
(2084,237,o),
(2084,318,cs),
(2084,427,o),
(1989,606,o),
(1650,606,cs),
(1394,606,o),
(948,515,o),
(562,515,cs),
(416,515,o),
(329,528,o),
(263,566,c),
(264,525,l),
(322,640,o),
(553,780,o),
(952,851,c),
(988,969,l),
(971,995,l),
(369,853,o),
(193,597,o),
(193,489,cs),
(193,387,o),
(333,365,o),
(563,365,cs),
(867,365,o),
(1357,455,o),
(1649,455,cs),
(1892,455,o),
(1976,380,o),
(2013,227,c),
(2030,249,l),
(1250,249,o),
(803,135,o),
(0,135,c),
(-72,135,o),
(-72,-20,o),
(0,-20,c)
);
},
{
closed = 1;
nodes = (
(2220,-50,o),
(2219,105,o),
(2162,105,c),
(2061,105,o),
(2026,127,o),
(2003,176,c),
(1900,142,l),
(1941,17,o),
(2000,-50,o),
(2163,-50,c)
);
}
);
width = 2162;
},
{
anchors = (
{
name = entry;
pos = (2133,-50);
},
{
name = exit;
pos = (0,-20);
}
);
associatedMasterId = m01;
layerId = "6BA855D0-1B0B-4562-83DC-2165CE5CB744";
name = "11 Feb 22 23.54";
shapes = (
{
closed = 1;
nodes = (
(778,-20,o),
(1261,114,o),
(1966,114,c),
(2020,141,o),
(2084,237,o),
(2084,318,cs),
(2084,416,o),
(1989,576,o),
(1650,576,cs),
(1394,576,o),
(948,485,o),
(562,485,cs),
(416,485,o),
(329,498,o),
(263,536,c),
(264,495,l),
(322,621,o),
(553,774,o),
(952,851,c),
(988,969,l),
(971,995,l),
(369,845,o),
(193,573,o),
(193,459,cs),
(193,357,o),
(333,335,o),
(563,335,cs),
(867,335,o),
(1357,425,o),
(1649,425,cs),
(1892,425,o),
(1976,360,o),
(2013,227,c),
(2030,249,l),
(1250,249,o),
(803,135,o),
(0,135,c),
(-72,135,o),
(-72,-20,o),
(0,-20,c)
);
},
{
closed = 1;
nodes = (
(2190,-50,o),
(2189,105,o),
(2132,105,c),
(2031,105,o),
(1997,121,o),
(1973,156,c),
(1920,162,l),
(1936,17,o),
(1989,-50,o),
(2133,-50,c)
);
}
);
width = 2132;
},
{
anchors = (
{
name = entry;
pos = (2163,-50);
},
{
name = exit;
pos = (0,-20);
}
);
background = {
shapes = (
{
closed = 1;
nodes = (
(778,-20,o),
(1261,114,o),
(1966,114,c),
(2020,141,o),
(2084,237,o),
(2084,318,cs),
(2084,416,o),
(1989,576,o),
(1650,576,cs),
(1394,576,o),
(948,485,o),
(562,485,cs),
(416,485,o),
(329,498,o),
(263,536,c),
(264,495,l),
(322,621,o),
(553,774,o),
(952,851,c),
(988,969,l),
(971,995,l),
(369,845,o),
(193,573,o),
(193,459,cs),
(193,357,o),
(333,335,o),
(563,335,cs),
(867,335,o),
(1357,425,o),
(1649,425,cs),
(1892,425,o),
(1976,360,o),
(2013,227,c),
(2030,249,l),
(1250,249,o),
(803,135,o),
(0,135,c),
(-72,135,o),
(-72,-20,o),
(0,-20,c)
);
},
{
closed = 1;
nodes = (
(2190,-50,o),
(2189,105,o),
(2132,105,c),
(2031,105,o),
(1997,121,o),
(1973,156,c),
(1920,162,l),
(1936,17,o),
(1989,-50,o),
(2133,-50,c)
);
}
);
};
layerId = m002;
shapes = (
{
closed = 1;
nodes = (
(778,-20,o),
(1261,114,o),
(1966,114,c),
(2020,141,o),
(2084,237,o),
(2084,318,cs),
(2084,427,o),
(1989,606,o),
(1650,606,cs),
(1394,606,o),
(948,515,o),
(562,515,cs),
(416,515,o),
(329,528,o),
(263,566,c),
(264,525,l),
(322,640,o),
(553,780,o),
(952,851,c),
(988,969,l),
(971,995,l),
(369,853,o),
(193,597,o),
(193,489,cs),
(193,387,o),
(333,365,o),
(563,365,cs),
(867,365,o),
(1357,455,o),
(1649,455,cs),
(1892,455,o),
(1976,380,o),
(2013,227,c),
(2030,249,l),
(1250,249,o),
(803,135,o),
(0,135,c),
(-72,135,o),
(-72,-20,o),
(0,-20,c)
);
},
{
closed = 1;
nodes = (
(2220,-50,o),
(2219,105,o),
(2162,105,c),
(2061,105,o),
(2026,127,o),
(2003,176,c),
(1900,142,l),
(1941,17,o),
(2000,-50,o),
(2163,-50,c)
);
}
);
width = 2162;
},
{
anchors = (
{
name = entry;
pos = (2133,-50);
},
{
name = exit;
pos = (0,-20);
}
);
associatedMasterId = m002;
layerId = "CBA4E339-16F6-4D53-AC81-3255AB77A3D7";
name = "11 Feb 22 23.54";
shapes = (
{
closed = 1;
nodes = (
(778,-20,o),
(1261,114,o),
(1966,114,c),
(2020,141,o),
(2084,237,o),
(2084,318,cs),
(2084,416,o),
(1989,576,o),
(1650,576,cs),
(1394,576,o),
(948,485,o),
(562,485,cs),
(416,485,o),
(329,498,o),
(263,536,c),
(264,495,l),
(322,621,o),
(553,774,o),
(952,851,c),
(988,969,l),
(971,995,l),
(369,845,o),
(193,573,o),
(193,459,cs),
(193,357,o),
(333,335,o),
(563,335,cs),
(867,335,o),
(1357,425,o),
(1649,425,cs),
(1892,425,o),
(1976,360,o),
(2013,227,c),
(2030,249,l),
(1250,249,o),
(803,135,o),
(0,135,c),
(-72,135,o),
(-72,-20,o),
(0,-20,c)
);
},
{
closed = 1;
nodes = (
(2190,-50,o),
(2189,105,o),
(2132,105,c),
(2031,105,o),
(1997,121,o),
(1973,156,c),
(1920,162,l),
(1936,17,o),
(1989,-50,o),
(2133,-50,c)
);
}
);
width = 2132;
}
);
},
{
glyphname = "kaf-ar.init";
lastChange = "2022-03-26 12:08:47 +0000";
layers = (
{
anchors = (
{
name = exit;
pos = (1,-20);
}
);
background = {
shapes = (
{
closed = 1;
nodes = (
(-27,629,l),
(-68,598,l),
(-107,613,o),
(-129,644,o),
(-136,689,c),
(153,963,o),
(503,1227,o),
(914,1483,c),
(933,1460,l),
(887,1327,l),
(521,1112,o),
(213,889,o),
(-37,659,c),
(-30,749,l),
(169,674,o),
(352,392,o),
(352,219,cs),
(352,27,o),
(81,-20,o),
(-59,-20,c),
(-115,-20,o),
(-115,135,o),
(-59,135,c),
(93,135,o),
(250,178,o),
(308,208,c),
(307,170,l),
(246,413,o),
(61,565,o),
(-65,629,c)
);
}
);
};
layerId = m01;
shapes = (
{
closed = 1;
nodes = (
(-27,549,l),
(-88,508,l),
(-115,520,o),
(-130,544,o),
(-135,580,c),
(154,871,o),
(504,1152,o),
(915,1424,c),
(934,1401,l),
(887,1317,l),
(509,1060,o),
(191,813,o),
(-67,559,c),
(-30,649,l),
(162,584,o),
(322,376,o),
(322,225,cs),
(322,63,o),
(166,-20,o),
(1,-20,c),
(-55,-20,o),
(-55,135,o),
(1,135,c),
(137,135,o),
(243,172,o),
(288,208,c),
(277,180,l),
(221,370,o),
(51,489,o),
(-85,539,c)
);
}
);
width = 801;
},
{
anchors = (
{
name = exit;
pos = (0,-20);
}
);
associatedMasterId = m01;
layerId = "E879F6BB-A3DB-4DC5-A265-996FC25E1E94";
name = "8 Feb 22 20.19";
shapes = (
{
closed = 1;
nodes = (
(32,629,l),
(-9,598,l),
(-48,613,o),
(-70,644,o),
(-77,689,c),
(212,963,o),
(562,1227,o),
(973,1483,c),
(992,1460,l),
(946,1327,l),
(580,1112,o),
(272,889,o),
(22,659,c),
(29,749,l),
(228,674,o),
(411,392,o),
(411,219,cs),
(411,27,o),
(140,-20,o),
(0,-20,c),
(-56,-20,o),
(-56,135,o),
(0,135,c),
(152,135,o),
(309,178,o),
(367,208,c),
(366,170,l),
(305,413,o),
(120,565,o),
(-6,629,c)
);
}
);
width = 860;
},
{
anchors = (
{
name = exit;
pos = (1,-20);
}
);
background = {
shapes = (
{
closed = 1;
nodes = (
(-27,629,l),
(-68,598,l),
(-107,613,o),
(-129,644,o),
(-136,689,c),
(153,963,o),
(503,1227,o),
(914,1483,c),
(933,1460,l),
(887,1327,l),
(521,1112,o),
(213,889,o),
(-37,659,c),
(-30,749,l),
(169,674,o),
(352,392,o),
(352,219,cs),
(352,27,o),
(81,-20,o),
(-59,-20,c),
(-115,-20,o),
(-115,135,o),
(-59,135,c),
(93,135,o),
(250,178,o),
(308,208,c),
(307,170,l),
(246,413,o),
(61,565,o),
(-65,629,c)
);
}
);
};
layerId = m002;
shapes = (
{
closed = 1;
nodes = (
(-27,549,l),
(-88,508,l),
(-115,520,o),
(-130,544,o),
(-135,580,c),
(154,871,o),
(504,1152,o),
(915,1424,c),
(934,1401,l),
(887,1317,l),
(509,1060,o),
(191,813,o),
(-67,559,c),
(-30,649,l),
(162,584,o),
(322,376,o),
(322,225,cs),
(322,63,o),
(166,-20,o),
(1,-20,c),
(-55,-20,o),
(-55,135,o),
(1,135,c),
(137,135,o),
(243,172,o),
(288,208,c),
(277,180,l),
(221,370,o),
(51,489,o),
(-85,539,c)
);
}
);
width = 801;
},
{
anchors = (
{
name = exit;
pos = (0,-20);
}
);
associatedMasterId = m002;
layerId = "41FBEDA4-F108-45F6-AD76-791F9BA3EDE7";
name = "8 Feb 22 20.19";
shapes = (
{
closed = 1;
nodes = (
(32,629,l),
(-9,598,l),
(-48,613,o),
(-70,644,o),
(-77,689,c),
(212,963,o),
(562,1227,o),
(973,1483,c),
(992,1460,l),
(946,1327,l),
(580,1112,o),
(272,889,o),
(22,659,c),
(29,749,l),
(228,674,o),
(411,392,o),
(411,219,cs),
(411,27,o),
(140,-20,o),
(0,-20,c),
(-56,-20,o),
(-56,135,o),
(0,135,c),
(152,135,o),
(309,178,o),
(367,208,c),
(366,170,l),
(305,413,o),
(120,565,o),
(-6,629,c)
);
}
);
width = 860;
}
);
},
{
glyphname = "lam-ar.medi";
lastChange = "2022-03-26 12:08:47 +0000";
layers = (
{
anchors = (
{
name = entry;
pos = (449,-20);
},
{
name = exit;
pos = (0,-30);
}
);
layerId = m01;
shapes = (
{
closed = 1;
nodes = (
(347,135,o),
(278,178,o),
(265,351,cs),
(184,1418,l),
(158,1418,l),
(120,1327,l),
(189,365,ls),
(202,182,o),
(120,125,o),
(0,125,c),
(-66,125,o),
(-66,-30,o),
(0,-30,c),
(166,-30,o),
(236,89,o),
(224,254,c),
(208,207,l),
(245,44,o),
(325,-20,o),
(449,-20,c),
(512,-20,o),
(512,135,o),
(449,135,c)
);
}
);
width = 450;
},
{
anchors = (
{
name = entry;
pos = (449,-20);
},
{
name = exit;
pos = (0,-30);
}
);
layerId = m002;
shapes = (
{
closed = 1;
nodes = (
(347,135,o),
(278,178,o),
(265,351,cs),
(184,1418,l),
(158,1418,l),
(120,1327,l),
(189,365,ls),
(202,182,o),
(120,125,o),
(0,125,c),
(-66,125,o),
(-66,-30,o),
(0,-30,c),
(166,-30,o),
(236,89,o),
(224,254,c),
(208,207,l),
(245,44,o),
(325,-20,o),
(449,-20,c),
(512,-20,o),
(512,135,o),
(449,135,c)
);
}
);
width = 450;
}
);
},
{
glyphname = "lam-ar.init";
lastChange = "2022-03-26 12:08:47 +0000";
layers = (
{
anchors = (
{
name = exit;
pos = (0,-30);
}
);
layerId = m01;
shapes = (
{
closed = 1;
nodes = (
(272,391,cs),
(194,1418,l),
(168,1418,l),
(130,1327,l),
(199,365,ls),
(212,182,o),
(128,125,o),
(0,125,c),
(-66,125,o),
(-66,-30,o),
(0,-30,c),
(170,-30,o),
(295,88,o)
);
}
);
width = 381;
},
{
anchors = (
{
name = exit;
pos = (0,-30);
}
);
layerId = m002;
shapes = (
{
closed = 1;
nodes = (
(272,391,cs),
(194,1418,l),
(168,1418,l),
(130,1327,l),
(199,365,ls),
(212,182,o),
(128,125,o),
(0,125,c),
(-66,125,o),
(-66,-30,o),
(0,-30,c),
(170,-30,o),
(295,88,o)
);
}
);
width = 381;
}
);
},
{
glyphname = "meem-ar.medi";
lastChange = "2022-03-26 12:08:47 +0000";
layers = (
{
anchors = (
{
name = entry;
pos = (637,-20);
},
{
name = exit;
pos = (0,-20);
}
);
background = {
shapes = (
{
closed = 1;
nodes = (
(220,34,o),
(321,-27,o),
(376,-27,cs),
(444,-27,o),
(504,58,o),
(504,135,cs),
(504,182,o),
(481,351,o),
(349,351,cs),
(199,351,o),
(201,135,o),
(0,135,c),
(-50,135,o),
(-50,-20,o),
(0,-20,c),
(218,-20,o),
(203,219,o),
(326,219,cs),
(384,219,o),
(427,166,o),
(427,138,cs),
(427,92,o),
(316,121,o),
(233,184,c),
(168,94,l)
);
},
{
closed = 1;
nodes = (
(416,56,l),
(473,10,o),
(534,-20,o),
(637,-20,c),
(693,-20,o),
(693,135,o),
(637,135,c),
(579,135,o),
(537,138,o),
(490,153,c)
);
}
);
};
layerId = m01;
shapes = (
{
closed = 1;
nodes = (
(198,14,o),
(315,-27,o),
(371,-27,cs),
(446,-27,o),
(504,58,o),
(504,135,cs),
(504,182,o),
(481,351,o),
(349,351,cs),
(199,351,o),
(201,135,o),
(0,135,c),
(-50,135,o),
(-50,-20,o),
(0,-20,c),
(218,-20,o),
(204,219,o),
(326,219,cs),
(384,219,o),
(427,164,o),
(427,136,cs),
(427,90,o),
(306,111,o),
(213,164,c),
(138,64,l)
);
},
{
closed = 1;
nodes = (
(416,56,l),
(473,10,o),
(534,-20,o),
(637,-20,c),
(693,-20,o),
(693,135,o),
(637,135,c),
(579,135,o),
(537,138,o),
(490,153,c)
);
}
);
width = 637;
},
{
anchors = (
{
name = entry;
pos = (637,-20);
},
{
name = exit;
pos = (0,-20);
}
);
associatedMasterId = m01;
layerId = "15A461D0-85A5-401B-8F0B-9148F275820E";
name = "16 Feb 22 21.28";
shapes = (
{
closed = 1;
nodes = (
(220,34,o),
(321,-27,o),
(376,-27,cs),
(444,-27,o),
(504,58,o),
(504,135,cs),
(504,182,o),
(481,351,o),
(349,351,cs),
(199,351,o),
(201,135,o),
(0,135,c),
(-50,135,o),
(-50,-20,o),
(0,-20,c),
(218,-20,o),
(203,219,o),
(326,219,cs),
(384,219,o),
(427,166,o),
(427,138,cs),
(427,92,o),
(316,121,o),
(233,184,c),
(168,94,l)
);
},
{
closed = 1;
nodes = (
(416,56,l),
(473,10,o),
(534,-20,o),
(637,-20,c),
(693,-20,o),
(693,135,o),
(637,135,c),
(579,135,o),
(537,138,o),
(490,153,c)
);
}
);
width = 637;
},
{
anchors = (
{
name = entry;
pos = (637,-20);
},
{
name = exit;
pos = (0,-20);
}
);
background = {
shapes = (
{
closed = 1;
nodes = (
(220,34,o),
(321,-27,o),
(376,-27,cs),
(444,-27,o),
(504,58,o),
(504,135,cs),
(504,182,o),
(481,351,o),
(349,351,cs),
(199,351,o),
(201,135,o),
(0,135,c),
(-50,135,o),
(-50,-20,o),
(0,-20,c),
(218,-20,o),
(203,219,o),
(326,219,cs),
(384,219,o),
(427,166,o),
(427,138,cs),
(427,92,o),
(316,121,o),
(233,184,c),
(168,94,l)
);
},
{
closed = 1;
nodes = (
(416,56,l),
(473,10,o),
(534,-20,o),
(637,-20,c),
(693,-20,o),
(693,135,o),
(637,135,c),
(579,135,o),
(537,138,o),
(490,153,c)
);
}
);
};
layerId = m002;
shapes = (
{
closed = 1;
nodes = (
(198,14,o),
(315,-27,o),
(371,-27,cs),
(446,-27,o),
(504,58,o),
(504,135,cs),
(504,182,o),
(481,351,o),
(349,351,cs),
(199,351,o),
(201,135,o),
(0,135,c),
(-50,135,o),
(-50,-20,o),
(0,-20,c),
(218,-20,o),
(204,219,o),
(326,219,cs),
(384,219,o),
(427,164,o),
(427,136,cs),
(427,90,o),
(306,111,o),
(213,164,c),
(138,64,l)
);
},
{
closed = 1;
nodes = (
(416,56,l),
(473,10,o),
(534,-20,o),
(637,-20,c),
(693,-20,o),
(693,135,o),
(637,135,c),
(579,135,o),
(537,138,o),
(490,153,c)
);
}
);
width = 637;
},
{
anchors = (
{
name = entry;
pos = (637,-20);
},
{
name = exit;
pos = (0,-20);
}
);
associatedMasterId = m002;
layerId = "6F26BA51-AC1F-476C-B6B4-DE6405A87E9D";
name = "16 Feb 22 21.28";
shapes = (
{
closed = 1;
nodes = (
(220,34,o),
(321,-27,o),
(376,-27,cs),
(444,-27,o),
(504,58,o),
(504,135,cs),
(504,182,o),
(481,351,o),
(349,351,cs),
(199,351,o),
(201,135,o),
(0,135,c),
(-50,135,o),
(-50,-20,o),
(0,-20,c),
(218,-20,o),
(203,219,o),
(326,219,cs),
(384,219,o),
(427,166,o),
(427,138,cs),
(427,92,o),
(316,121,o),
(233,184,c),
(168,94,l)
);
},
{
closed = 1;
nodes = (
(416,56,l),
(473,10,o),
(534,-20,o),
(637,-20,c),
(693,-20,o),
(693,135,o),
(637,135,c),
(579,135,o),
(537,138,o),
(490,153,c)
);
}
);
width = 637;
}
);
},
{
glyphname = "meem-ar.init";
lastChange = "2022-03-26 12:08:47 +0000";
layers = (
{
anchors = (
{
name = exit;
pos = (0,-20);
}
);
background = {
anchors = (
{
name = exit;
pos = (0,-20);
}
);
shapes = (
{
closed = 1;
nodes = (
(247,119,o),
(337,73,o),
(391,73,cs),
(458,73,o),
(524,134,o),
(524,223,cs),
(524,284,o),
(493,431,o),
(379,431,cs),
(229,431,o),
(215,135,o),
(0,135,c),
(-50,135,o),
(-50,-20,o),
(0,-20,c),
(219,-20,o),
(199,299,o),
(331,299,cs),
(383,299,o),
(427,259,o),
(427,233,cs),
(427,198,o),
(325,210,o),
(263,274,c),
(198,174,l)
);
}
);
};
layerId = m01;
shapes = (
{
closed = 1;
nodes = (
(240,90,o),
(344,33,o),
(402,33,cs),
(466,33,o),
(534,121,o),
(534,207,cs),
(534,265,o),
(489,411,o),
(385,411,cs),
(242,411,o),
(218,135,o),
(0,135,c),
(-50,135,o),
(-50,-20,o),
(0,-20,c),
(231,-20,o),
(234,279,o),
(334,279,cs),
(374,279,o),
(427,231,o),
(427,198,cs),
(427,185,o),
(418,179,o),
(404,179,cs),
(366,179,o),
(305,213,o),
(263,254,c),
(208,174,l)
);
}
);
width = 559;
},
{
anchors = (
{
name = exit;
pos = (0,-20);
}
);
background = {
anchors = (
{
name = exit;
pos = (0,-20);
}
);
shapes = (
{
closed = 1;
nodes = (
(247,119,o),
(337,73,o),
(391,73,cs),
(458,73,o),
(524,134,o),
(524,223,cs),
(524,284,o),
(493,431,o),
(379,431,cs),
(229,431,o),
(215,135,o),
(0,135,c),
(-50,135,o),
(-50,-20,o),
(0,-20,c),
(219,-20,o),
(199,299,o),
(331,299,cs),
(383,299,o),
(427,259,o),
(427,233,cs),
(427,198,o),
(325,210,o),
(263,274,c),
(198,174,l)
);
}
);
};
layerId = m002;
shapes = (
{
closed = 1;
nodes = (
(240,90,o),
(344,33,o),
(402,33,cs),
(466,33,o),
(534,121,o),
(534,207,cs),
(534,265,o),
(489,411,o),
(385,411,cs),
(242,411,o),
(218,135,o),
(0,135,c),
(-50,135,o),
(-50,-20,o),
(0,-20,c),
(231,-20,o),
(234,279,o),
(334,279,cs),
(374,279,o),
(427,231,o),
(427,198,cs),
(427,185,o),
(418,179,o),
(404,179,cs),
(366,179,o),
(305,213,o),
(263,254,c),
(208,174,l)
);
}
);
width = 559;
}
);
},
{
glyphname = "noon-ar";
lastChange = "2022-03-26 12:08:47 +0000";
layers = (
{
background = {
shapes = (
{
closed = 1;
nodes = (
(969,-430,o),
(1200,-234,o),
(1200,90,cs),
(1200,199,o),
(1174,441,o),
(1116,654,c),
(1096,654,l),
(998,542,l),
(1148,-70,l),
(1155,-16,l),
(1056,-158,o),
(882,-275,o),
(639,-275,cs),
(289,-275,o),
(122,-32,o),
(281,479,c),
(227,498,l),
(18,-135,o),
(229,-430,o),
(637,-430,cs)
);
}
);
};
layerId = m01;
shapes = (
{
closed = 1;
nodes = (
(999,-430,o),
(1200,-213,o),
(1200,47,cs),
(1200,149,o),
(1169,321,o),
(1116,464,c),
(1096,464,l),
(998,352,l),
(1148,-70,l),
(1155,-16,l),
(1066,-158,o),
(909,-275,o),
(685,-275,cs),
(407,-275,o),
(265,-95,o),
(381,289,c),
(327,303,l),
(170,-190,o),
(345,-430,o),
(681,-430,cs)
);
}
);
width = 1395;
},
{
background = {
shapes = (
{
closed = 1;
nodes = (
(969,-430,o),
(1200,-234,o),
(1200,90,cs),
(1200,199,o),
(1174,441,o),
(1116,654,c),
(1096,654,l),
(998,542,l),
(1148,-70,l),
(1155,-16,l),
(1056,-158,o),
(882,-275,o),
(639,-275,cs),
(289,-275,o),
(122,-32,o),
(281,479,c),
(227,498,l),
(18,-135,o),
(229,-430,o),
(637,-430,cs)
);
}
);
};
layerId = m002;
shapes = (
{
closed = 1;
nodes = (
(999,-430,o),
(1200,-213,o),
(1200,47,cs),
(1200,149,o),
(1169,321,o),
(1116,464,c),
(1096,464,l),
(998,352,l),
(1148,-70,l),
(1155,-16,l),
(1066,-158,o),
(909,-275,o),
(685,-275,cs),
(407,-275,o),
(265,-95,o),
(381,289,c),
(327,303,l),
(170,-190,o),
(345,-430,o),
(681,-430,cs)
);
}
);
width = 1395;
}
);
metricRight = "behDotless-ar";
unicode = 1606;
},
{
glyphname = "heh-ar.fina";
lastChange = "2022-03-26 12:08:47 +0000";
layers = (
{
anchors = (
{
name = bottom;
pos = (305,0);
},
{
name = entry;
pos = (609,-20);
},
{
name = top;
pos = (195,798);
}
);
layerId = m01;
shapes = (
{
closed = 1;
nodes = (
(514,135,o),
(473,171,o),
(456,281,cs),
(377,787,l),
(351,787,l),
(313,696,l),
(388,233,ls),
(415,68,o),
(465,-20,o),
(609,-20,c),
(681,-20,o),
(681,135,o),
(609,135,c)
);
},
{
closed = 1;
nodes = (
(244,521,o),
(141,462,o),
(73,411,c),
(56,363,o),
(43,301,o),
(42,254,c),
(72,213,o),
(154,177,o),
(227,177,cs),
(306,177,o),
(367,219,o),
(387,279,c),
(378,351,l),
(348,337,o),
(295,325,o),
(252,325,cs),
(175,325,o),
(126,364,o),
(111,390,c),
(100,344,l),
(169,400,o),
(273,454,o),
(351,486,c),
(340,565,l)
);
}
);
width = 609;
},
{
anchors = (
{
name = bottom;
pos = (305,0);
},
{
name = entry;
pos = (609,-20);
},
{
name = top;
pos = (195,798);
}
);
layerId = m002;
shapes = (
{
closed = 1;
nodes = (
(514,135,o),
(473,171,o),
(456,281,cs),
(377,787,l),
(351,787,l),
(313,696,l),
(388,233,ls),
(415,68,o),
(465,-20,o),
(609,-20,c),
(681,-20,o),
(681,135,o),
(609,135,c)
);
},
{
closed = 1;
nodes = (
(244,521,o),
(141,462,o),
(73,411,c),
(56,363,o),
(43,301,o),
(42,254,c),
(72,213,o),
(154,177,o),
(227,177,cs),
(306,177,o),
(367,219,o),
(387,279,c),
(378,351,l),
(348,337,o),
(295,325,o),
(252,325,cs),
(175,325,o),
(126,364,o),
(111,390,c),
(100,344,l),
(169,400,o),
(273,454,o),
(351,486,c),
(340,565,l)
);
}
);
width = 609;
}
);
},
{
glyphname = "akara-bali";
lastChange = "2022-03-26 12:08:47 +0000";
layers = (
{
background = {
shapes = (
{
closed = 1;
nodes = (
(527,-10,o),
(577,104,o),
(577,333,cs),
(577,437,ls),
(577,676,o),
(749,765,o),
(1057,765,cs),
(1407,765,o),
(1542,650,o),
(1542,401,cs),
(1542,300,o),
(1520,128,o),
(1432,0,c),
(1523,0,ls),
(1758,0,o),
(1823,211,o),
(1823,464,cs),
(1823,585,o),
(1809,671,o),
(1779,761,c),
(1904,756,o),
(1952,661,o),
(1952,512,cs),
(1952,0,l),
(2032,0,l),
(2032,512,ls),
(2032,763,o),
(1978,940,o),
(1615,940,c),
(1700,785,o),
(1743,643,o),
(1743,450,cs),
(1743,255,o),
(1700,177,o),
(1592,175,c),
(1618,264,o),
(1622,366,o),
(1622,422,cs),
(1622,774,o),
(1464,950,o),
(1054,950,cs),
(639,950,o),
(496,769,o),
(496,437,cs),
(496,333,ls),
(496,238,o),
(481,175,o),
(396,175,cs),
(330,175,o),
(299,214,o),
(299,287,cs),
(299,428,o),
(415,559,o),
(415,757,cs),
(415,859,o),
(384,950,o),
(277,950,cs),
(161,950,o),
(58,842,o),
(150,498,c),
(214,515,l),
(155,722,o),
(192,784,o),
(253,784,cs),
(304,784,o),
(315,741,o),
(315,680,cs),
(315,491,o),
(210,382,o),
(210,217,cs),
(210,114,o),
(251,-10,o),
(392,-10,cs)
);
}
);
};
layerId = m01;
shapes = (
{
closed = 1;
nodes = (
(214,879,o),
(371,1058,o),
(720,1058,cs),
(985,1058,o),
(1152,955,o),
(1198,751,c),
(1258,766,l),
(1211,1059,o),
(1023,1201,o),
(726,1201,cs),
(291,1201,o),
(144,895,o),
(144,552,cs),
(144,260,o),
(251,-10,o),
(604,-10,cs),
(788,-10,o),
(968,64,o),
(968,271,cs),
(968,442,o),
(847,513,o),
(628,513,c),
(628,465,l),
(744,465,o),
(868,424,o),
(868,301,cs),
(868,180,o),
(747,133,o),
(595,133,cs),
(327,133,o),
(214,278,o),
(214,554,cs)
);
},
{
closed = 1;
nodes = (
(829,477,o),
(938,542,o),
(938,703,cs),
(938,860,o),
(833,920,o),
(705,920,cs),
(537,920,o),
(465,815,o),
(446,706,c),
(492,688,l),
(529,743,o),
(578,777,o),
(678,777,cs),
(774,777,o),
(838,746,o),
(838,663,cs),
(838,555,o),
(728,525,o),
(628,525,c),
(628,477,l)
);
},
{
closed = 1;
nodes = (
(1675,-10,o),
(1853,100,o),
(1853,467,cs),
(1853,590,o),
(1833,684,o),
(1802,761,c),
(1911,756,o),
(1952,661,o),
(1952,512,cs),
(1952,0,l),
(2032,0,l),
(2032,512,ls),
(2032,763,o),
(1982,940,o),
(1645,940,c),
(1727,791,o),
(1773,642,o),
(1773,464,cs),
(1773,253,o),
(1708,175,o),
(1459,175,cs),
(1280,175,o),
(1184,214,o),
(1122,337,c),
(1071,313,l),
(1128,106,o),
(1249,-10,o),
(1465,-10,cs)
);
},
{
closed = 1;
nodes = (
(1599,356,l),
(1552,459,o),
(1583,482,o),
(1645,482,cs),
(1763,482,o),
(1975,402,o),
(2162,239,c),
(2190,274,l),
(1986,452,o),
(1796,604,o),
(1648,604,cs),
(1516,604,o),
(1460,482,o),
(1561,340,c)
);
}
);
width = 2220;
},
{
background = {
shapes = (
{
closed = 1;
nodes = (
(527,-10,o),
(577,104,o),
(577,333,cs),
(577,437,ls),
(577,676,o),
(749,765,o),
(1057,765,cs),
(1407,765,o),
(1542,650,o),
(1542,401,cs),
(1542,300,o),
(1520,128,o),
(1432,0,c),
(1523,0,ls),
(1758,0,o),
(1823,211,o),
(1823,464,cs),
(1823,585,o),
(1809,671,o),
(1779,761,c),
(1904,756,o),
(1952,661,o),
(1952,512,cs),
(1952,0,l),
(2032,0,l),
(2032,512,ls),
(2032,763,o),
(1978,940,o),
(1615,940,c),
(1700,785,o),
(1743,643,o),
(1743,450,cs),
(1743,255,o),
(1700,177,o),
(1592,175,c),
(1618,264,o),
(1622,366,o),
(1622,422,cs),
(1622,774,o),
(1464,950,o),
(1054,950,cs),
(639,950,o),
(496,769,o),
(496,437,cs),
(496,333,ls),
(496,238,o),
(481,175,o),
(396,175,cs),
(330,175,o),
(299,214,o),
(299,287,cs),
(299,428,o),
(415,559,o),
(415,757,cs),
(415,859,o),
(384,950,o),
(277,950,cs),
(161,950,o),
(58,842,o),
(150,498,c),
(214,515,l),
(155,722,o),
(192,784,o),
(253,784,cs),
(304,784,o),
(315,741,o),
(315,680,cs),
(315,491,o),
(210,382,o),
(210,217,cs),
(210,114,o),
(251,-10,o),
(392,-10,cs)
);
}
);
};
layerId = m002;
shapes = (
{
closed = 1;
nodes = (
(214,879,o),
(371,1058,o),
(720,1058,cs),
(985,1058,o),
(1152,955,o),
(1198,751,c),
(1258,766,l),
(1211,1059,o),
(1023,1201,o),
(726,1201,cs),
(291,1201,o),
(144,895,o),
(144,552,cs),
(144,260,o),
(251,-10,o),
(604,-10,cs),
(788,-10,o),
(968,64,o),
(968,271,cs),
(968,442,o),
(847,513,o),
(628,513,c),
(628,465,l),
(744,465,o),
(868,424,o),
(868,301,cs),
(868,180,o),
(747,133,o),
(595,133,cs),
(327,133,o),
(214,278,o),
(214,554,cs)
);
},
{
closed = 1;
nodes = (
(829,477,o),
(938,542,o),
(938,703,cs),
(938,860,o),
(833,920,o),
(705,920,cs),
(537,920,o),
(465,815,o),
(446,706,c),
(492,688,l),
(529,743,o),
(578,777,o),
(678,777,cs),
(774,777,o),
(838,746,o),
(838,663,cs),
(838,555,o),
(728,525,o),
(628,525,c),
(628,477,l)
);
},
{
closed = 1;
nodes = (
(1675,-10,o),
(1853,100,o),
(1853,467,cs),
(1853,590,o),
(1833,684,o),
(1802,761,c),
(1911,756,o),
(1952,661,o),
(1952,512,cs),
(1952,0,l),
(2032,0,l),
(2032,512,ls),
(2032,763,o),
(1982,940,o),
(1645,940,c),
(1727,791,o),
(1773,642,o),
(1773,464,cs),
(1773,253,o),
(1708,175,o),
(1459,175,cs),
(1280,175,o),
(1184,214,o),
(1122,337,c),
(1071,313,l),
(1128,106,o),
(1249,-10,o),
(1465,-10,cs)
);
},
{
closed = 1;
nodes = (
(1599,356,l),
(1552,459,o),
(1583,482,o),
(1645,482,cs),
(1763,482,o),
(1975,402,o),
(2162,239,c),
(2190,274,l),
(1986,452,o),
(1796,604,o),
(1648,604,cs),
(1516,604,o),
(1460,482,o),
(1561,340,c)
);
}
);
width = 2220;
}
);
unicode = 6917;
},
{
glyphname = "akaraTedung-bali";
lastChange = "2022-03-26 12:08:47 +0000";
layers = (
{
background = {
shapes = (
{
closed = 1;
nodes = (
(214,887,o),
(371,1058,o),
(717,1058,cs),
(985,1058,o),
(1152,955,o),
(1198,751,c),
(1258,766,l),
(1211,1059,o),
(1023,1201,o),
(726,1201,cs),
(291,1201,o),
(144,898,o),
(144,555,cs),
(144,263,o),
(251,-10,o),
(604,-10,cs),
(788,-10,o),
(968,64,o),
(968,271,cs),
(968,442,o),
(847,513,o),
(628,513,c),
(628,465,l),
(744,465,o),
(868,424,o),
(868,301,cs),
(868,180,o),
(747,133,o),
(597,133,cs),
(330,133,o),
(214,281,o),
(214,561,cs)
);
},
{
closed = 1;
nodes = (
(829,477,o),
(938,542,o),
(938,703,cs),
(938,860,o),
(833,920,o),
(705,920,cs),
(537,920,o),
(465,815,o),
(446,706,c),
(492,688,l),
(529,743,o),
(578,777,o),
(678,777,cs),
(774,777,o),
(838,746,o),
(838,663,cs),
(838,555,o),
(728,525,o),
(628,525,c),
(628,477,l)
);
},
{
closed = 1;
nodes = (
(1675,-10,o),
(1853,99,o),
(1853,464,cs),
(1853,676,o),
(1984,770,o),
(2224,770,cs),
(2473,770,o),
(2595,668,o),
(2595,431,cs),
(2595,300,o),
(2558,168,o),
(2403,168,cs),
(2297,168,o),
(2246,229,o),
(2228,354,c),
(2164,344,l),
(2164,131,o),
(2250,-12,o),
(2397,-12,cs),
(2590,-12,o),
(2675,237,o),
(2675,475,cs),
(2675,792,o),
(2524,950,o),
(2237,950,cs),
(1953,950,o),
(1773,795,o),
(1773,464,cs),
(1773,252,o),
(1708,175,o),
(1459,175,cs),
(1280,175,o),
(1184,214,o),
(1122,337,c),
(1071,313,l),
(1128,106,o),
(1249,-10,o),
(1465,-10,cs)
);
},
{
closed = 1;
nodes = (
(1599,356,l),
(1553,456,o),
(1583,482,o),
(1641,482,cs),
(1748,482,o),
(1887,392,o),
(2052,209,c),
(2090,234,l),
(1927,444,o),
(1780,604,o),
(1641,604,cs),
(1516,604,o),
(1462,475,o),
(1561,340,c)
);
}
);
};
layerId = m01;
shapes = (
{
closed = 1;
nodes = (
(2590,-12,o),
(2675,235,o),
(2675,480,cs),
(2675,795,o),
(2531,950,o),
(2245,950,cs),
(1603,950,o),
(1936,175,o),
(1421,175,cs),
(1287,175,o),
(1172,227,o),
(1122,337,c),
(1071,313,l),
(1127,106,o),
(1253,-10,o),
(1460,-10,cs),
(1998,-10,o),
(1626,770,o),
(2243,770,cs),
(2465,770,o),
(2595,669,o),
(2595,428,cs),
(2595,300,o),
(2558,167,o),
(2402,167,cs),
(2297,167,o),
(2246,228,o),
(2228,354,c),
(2164,344,l),
(2164,131,o),
(2250,-12,o),
(2397,-12,cs)
);
},
{
closed = 1;
nodes = (
(788,-10,o),
(968,64,o),
(968,271,cs),
(968,442,o),
(847,513,o),
(628,513,c),
(628,465,l),
(744,465,o),
(868,424,o),
(868,301,cs),
(868,180,o),
(747,133,o),
(597,133,cs),
(330,133,o),
(214,281,o),
(214,561,cs),
(214,887,o),
(371,1058,o),
(717,1058,cs),
(985,1058,o),
(1152,955,o),
(1198,751,c),
(1258,766,l),
(1211,1059,o),
(1023,1201,o),
(726,1201,cs),
(291,1201,o),
(144,898,o),
(144,555,cs),
(144,263,o),
(251,-10,o),
(604,-10,cs)
);
},
{
closed = 1;
nodes = (
(829,477,o),
(938,542,o),
(938,703,cs),
(938,860,o),
(833,920,o),
(705,920,cs),
(537,920,o),
(465,815,o),
(446,706,c),
(492,688,l),
(529,743,o),
(578,777,o),
(678,777,cs),
(774,777,o),
(838,746,o),
(838,663,cs),
(838,555,o),
(728,525,o),
(628,525,c),
(628,477,l)
);
},
{
closed = 1;
nodes = (
(2090,234,l),
(1927,444,o),
(1780,604,o),
(1641,604,cs),
(1516,604,o),
(1462,475,o),
(1561,340,c),
(1599,356,l),
(1553,456,o),
(1583,482,o),
(1641,482,cs),
(1748,482,o),
(1887,392,o),
(2052,209,c)
);
}
);
width = 2775;
},
{
background = {
shapes = (
{
closed = 1;
nodes = (
(214,887,o),
(371,1058,o),
(717,1058,cs),
(985,1058,o),
(1152,955,o),
(1198,751,c),
(1258,766,l),
(1211,1059,o),
(1023,1201,o),
(726,1201,cs),
(291,1201,o),
(144,898,o),
(144,555,cs),
(144,263,o),
(251,-10,o),
(604,-10,cs),
(788,-10,o),
(968,64,o),
(968,271,cs),
(968,442,o),
(847,513,o),
(628,513,c),
(628,465,l),
(744,465,o),
(868,424,o),
(868,301,cs),
(868,180,o),
(747,133,o),
(597,133,cs),
(330,133,o),
(214,281,o),
(214,561,cs)
);
},
{
closed = 1;
nodes = (
(829,477,o),
(938,542,o),
(938,703,cs),
(938,860,o),
(833,920,o),
(705,920,cs),
(537,920,o),
(465,815,o),
(446,706,c),
(492,688,l),
(529,743,o),
(578,777,o),
(678,777,cs),
(774,777,o),
(838,746,o),
(838,663,cs),
(838,555,o),
(728,525,o),
(628,525,c),
(628,477,l)
);
},
{
closed = 1;
nodes = (
(1675,-10,o),
(1853,99,o),
(1853,464,cs),
(1853,676,o),
(1984,770,o),
(2224,770,cs),
(2473,770,o),
(2595,668,o),
(2595,431,cs),
(2595,300,o),
(2558,168,o),
(2403,168,cs),
(2297,168,o),
(2246,229,o),
(2228,354,c),
(2164,344,l),
(2164,131,o),
(2250,-12,o),
(2397,-12,cs),
(2590,-12,o),
(2675,237,o),
(2675,475,cs),
(2675,792,o),
(2524,950,o),
(2237,950,cs),
(1953,950,o),
(1773,795,o),
(1773,464,cs),
(1773,252,o),
(1708,175,o),
(1459,175,cs),
(1280,175,o),
(1184,214,o),
(1122,337,c),
(1071,313,l),
(1128,106,o),
(1249,-10,o),
(1465,-10,cs)
);
},
{
closed = 1;
nodes = (
(1599,356,l),
(1553,456,o),
(1583,482,o),
(1641,482,cs),
(1748,482,o),
(1887,392,o),
(2052,209,c),
(2090,234,l),
(1927,444,o),
(1780,604,o),
(1641,604,cs),
(1516,604,o),
(1462,475,o),
(1561,340,c)
);
}
);
};
layerId = m002;
shapes = (
{
closed = 1;
nodes = (
(2590,-12,o),
(2675,235,o),
(2675,480,cs),
(2675,795,o),
(2531,950,o),
(2245,950,cs),
(1603,950,o),
(1936,175,o),
(1421,175,cs),
(1287,175,o),
(1172,227,o),
(1122,337,c),
(1071,313,l),
(1127,106,o),
(1253,-10,o),
(1460,-10,cs),
(1998,-10,o),
(1626,770,o),
(2243,770,cs),
(2465,770,o),
(2595,669,o),
(2595,428,cs),
(2595,300,o),
(2558,167,o),
(2402,167,cs),
(2297,167,o),
(2246,228,o),
(2228,354,c),
(2164,344,l),
(2164,131,o),
(2250,-12,o),
(2397,-12,cs)
);
},
{
closed = 1;
nodes = (
(788,-10,o),
(968,64,o),
(968,271,cs),
(968,442,o),
(847,513,o),
(628,513,c),
(628,465,l),
(744,465,o),
(868,424,o),
(868,301,cs),
(868,180,o),
(747,133,o),
(597,133,cs),
(330,133,o),
(214,281,o),
(214,561,cs),
(214,887,o),
(371,1058,o),
(717,1058,cs),
(985,1058,o),
(1152,955,o),
(1198,751,c),
(1258,766,l),
(1211,1059,o),
(1023,1201,o),
(726,1201,cs),
(291,1201,o),
(144,898,o),
(144,555,cs),
(144,263,o),
(251,-10,o),
(604,-10,cs)
);
},
{
closed = 1;
nodes = (
(829,477,o),
(938,542,o),
(938,703,cs),
(938,860,o),
(833,920,o),
(705,920,cs),
(537,920,o),
(465,815,o),
(446,706,c),
(492,688,l),
(529,743,o),
(578,777,o),
(678,777,cs),
(774,777,o),
(838,746,o),
(838,663,cs),
(838,555,o),
(728,525,o),
(628,525,c),
(628,477,l)
);
},
{
closed = 1;
nodes = (
(2090,234,l),
(1927,444,o),
(1780,604,o),
(1641,604,cs),
(1516,604,o),
(1462,475,o),
(1561,340,c),
(1599,356,l),
(1553,456,o),
(1583,482,o),
(1641,482,cs),
(1748,482,o),
(1887,392,o),
(2052,209,c)
);
}
);
width = 2775;
}
);
metricRight = "tedung-bali";
unicode = 6918;
},
{
glyphname = "ikara-bali";
lastChange = "2022-03-26 12:08:47 +0000";
layers = (
{
layerId = m01;
shapes = (
{
ref = "nga-bali";
},
{
closed = 1;
nodes = (
(1410,-286,o),
(1005,-420,o),
(1005,-267,cs),
(1005,-207,o),
(1071,-190,o),
(1144,-190,cs),
(1228,-190,o),
(1270,-213,o),
(1302,-246,c),
(1351,-197,l),
(1308,-147,o),
(1247,-116,o),
(1146,-116,cs),
(1020,-116,o),
(930,-164,o),
(930,-269,cs),
(930,-493,o),
(1310,-390,o),
(1310,-508,cs),
(1310,-553,o),
(1256,-567,o),
(1158,-567,cs),
(1027,-567,o),
(949,-542,o),
(914,-458,c),
(874,-476,l),
(897,-624,o),
(983,-710,o),
(1159,-710,cs),
(1286,-710,o),
(1410,-665,o),
(1410,-528,cs)
);
}
);
width = 1902;
},
{
layerId = m002;
shapes = (
{
ref = "nga-bali";
},
{
closed = 1;
nodes = (
(1410,-286,o),
(1005,-420,o),
(1005,-267,cs),
(1005,-207,o),
(1071,-190,o),
(1144,-190,cs),
(1228,-190,o),
(1270,-213,o),
(1302,-246,c),
(1351,-197,l),
(1308,-147,o),
(1247,-116,o),
(1146,-116,cs),
(1020,-116,o),
(930,-164,o),
(930,-269,cs),
(930,-493,o),
(1310,-390,o),
(1310,-508,cs),
(1310,-553,o),
(1256,-567,o),
(1158,-567,cs),
(1027,-567,o),
(949,-542,o),
(914,-458,c),
(874,-476,l),
(897,-624,o),
(983,-710,o),
(1159,-710,cs),
(1286,-710,o),
(1410,-665,o),
(1410,-528,cs)
);
}
);
width = 1902;
}
);
unicode = 6919;
},
{
glyphname = "ikaraTedung-bali";
lastChange = "2022-03-26 12:08:47 +0000";
layers = (
{
layerId = m01;
shapes = (
{
ref = "nga-bali";
},
{
alignment = -1;
pos = (1751,0);
ref = "tedung-bali";
},
{
closed = 1;
nodes = (
(1410,-286,o),
(1005,-420,o),
(1005,-267,cs),
(1005,-207,o),
(1071,-190,o),
(1144,-190,cs),
(1228,-190,o),
(1270,-213,o),
(1302,-246,c),
(1351,-197,l),
(1308,-147,o),
(1247,-116,o),
(1146,-116,cs),
(1020,-116,o),
(930,-164,o),
(930,-269,cs),
(930,-493,o),
(1310,-390,o),
(1310,-508,cs),
(1310,-553,o),
(1256,-567,o),
(1158,-567,cs),
(1027,-567,o),
(949,-542,o),
(914,-458,c),
(874,-476,l),
(897,-624,o),
(983,-710,o),
(1159,-710,cs),
(1286,-710,o),
(1410,-665,o),
(1410,-528,cs)
);
}
);
width = 2801;
},
{
layerId = m002;
shapes = (
{
ref = "nga-bali";
},
{
alignment = -1;
pos = (1751,0);
ref = "tedung-bali";
},
{
closed = 1;
nodes = (
(1410,-286,o),
(1005,-420,o),
(1005,-267,cs),
(1005,-207,o),
(1071,-190,o),
(1144,-190,cs),
(1228,-190,o),
(1270,-213,o),
(1302,-246,c),
(1351,-197,l),
(1308,-147,o),
(1247,-116,o),
(1146,-116,cs),
(1020,-116,o),
(930,-164,o),
(930,-269,cs),
(930,-493,o),
(1310,-390,o),
(1310,-508,cs),
(1310,-553,o),
(1256,-567,o),
(1158,-567,cs),
(1027,-567,o),
(949,-542,o),
(914,-458,c),
(874,-476,l),
(897,-624,o),
(983,-710,o),
(1159,-710,cs),
(1286,-710,o),
(1410,-665,o),
(1410,-528,cs)
);
}
);
width = 2801;
}
);
metricRight = "tedung-bali";
unicode = 6920;
},
{
glyphname = "ukara-bali";
lastChange = "2022-03-26 12:08:47 +0000";
layers = (
{
anchors = (
{
name = _top;
pos = (-21,698);
}
);
background = {
shapes = (
{
closed = 1;
nodes = (
(280,-1788,o),
(304,-1401,o),
(781,-1401,cs),
(1114,-1401,o),
(1292,-1589,o),
(1292,-2000,c),
(1372,-2000,l),
(1372,-1474,o),
(1184,-1221,o),
(795,-1221,cs),
(291,-1221,o),
(212,-1645,o),
(201,-1898,c),
(232,-1881,l),
(145,-1802,o),
(-11,-1654,o),
(-11,-1294,cs),
(-11,-278,o),
(1232,-429,o),
(1232,495,cs),
(1232,794,o),
(1102,950,o),
(914,950,cs),
(525,950,o),
(310,746,o),
(310,241,c),
(370,241,l),
(370,616,o),
(569,770,o),
(917,770,cs),
(1074,770,o),
(1152,669,o),
(1152,497,cs),
(1152,-190,o),
(-100,-137,o),
(-100,-1258,cs),
(-100,-1599,o),
(16,-1850,o),
(280,-2001,c)
);
}
);
};
layerId = m01;
shapes = (
{
closed = 1;
nodes = (
(1172,-476,o),
(-150,-277,o),
(-150,-1284,cs),
(-150,-1603,o),
(-17,-1853,o),
(250,-2001,c),
(250,-1734,o),
(319,-1351,o),
(878,-1351,cs),
(1286,-1351,o),
(1492,-1556,o),
(1492,-2000,c),
(1572,-2000,l),
(1572,-1444,o),
(1361,-1171,o),
(894,-1171,cs),
(310,-1171,o),
(185,-1597,o),
(171,-1898,c),
(202,-1881,l),
(115,-1805,o),
(-61,-1657,o),
(-61,-1323,cs),
(-61,-410,o),
(1252,-694,o),
(1252,374,cs),
(1252,811,o),
(1032,950,o),
(776,950,cs),
(499,950,o),
(313,788,o),
(313,499,cs),
(313,405,o),
(333,340,o),
(376,280,c),
(363,317,l),
(298,378,o),
(234,440,o),
(158,557,c),
(86,500,l),
(201,342,o),
(335,226,o),
(501,109,c),
(551,158,l),
(454,243,o),
(394,332,o),
(394,466,cs),
(394,686,o),
(552,770,o),
(775,770,cs),
(1036,770,o),
(1172,655,o),
(1172,380,cs)
);
}
);
width = 1400;
},
{
anchors = (
{
name = _top;
pos = (-21,698);
}
);
background = {
shapes = (
{
closed = 1;
nodes = (
(280,-1788,o),
(304,-1401,o),
(781,-1401,cs),
(1114,-1401,o),
(1292,-1589,o),
(1292,-2000,c),
(1372,-2000,l),
(1372,-1474,o),
(1184,-1221,o),
(795,-1221,cs),
(291,-1221,o),
(212,-1645,o),
(201,-1898,c),
(232,-1881,l),
(145,-1802,o),
(-11,-1654,o),
(-11,-1294,cs),
(-11,-278,o),
(1232,-429,o),
(1232,495,cs),
(1232,794,o),
(1102,950,o),
(914,950,cs),
(525,950,o),
(310,746,o),
(310,241,c),
(370,241,l),
(370,616,o),
(569,770,o),
(917,770,cs),
(1074,770,o),
(1152,669,o),
(1152,497,cs),
(1152,-190,o),
(-100,-137,o),
(-100,-1258,cs),
(-100,-1599,o),
(16,-1850,o),
(280,-2001,c)
);
}
);
};
layerId = m002;
shapes = (
{
closed = 1;
nodes = (
(1172,-476,o),
(-150,-277,o),
(-150,-1284,cs),
(-150,-1603,o),
(-17,-1853,o),
(250,-2001,c),
(250,-1734,o),
(319,-1351,o),
(878,-1351,cs),
(1286,-1351,o),
(1492,-1556,o),
(1492,-2000,c),
(1572,-2000,l),
(1572,-1444,o),
(1361,-1171,o),
(894,-1171,cs),
(310,-1171,o),
(185,-1597,o),
(171,-1898,c),
(202,-1881,l),
(115,-1805,o),
(-61,-1657,o),
(-61,-1323,cs),
(-61,-410,o),
(1252,-694,o),
(1252,374,cs),
(1252,811,o),
(1032,950,o),
(776,950,cs),
(499,950,o),
(313,788,o),
(313,499,cs),
(313,405,o),
(333,340,o),
(376,280,c),
(363,317,l),
(298,378,o),
(234,440,o),
(158,557,c),
(86,500,l),
(201,342,o),
(335,226,o),
(501,109,c),
(551,158,l),
(454,243,o),
(394,332,o),
(394,466,cs),
(394,686,o),
(552,770,o),
(775,770,cs),
(1036,770,o),
(1172,655,o),
(1172,380,cs)
);
}
);
width = 1400;
}
);
unicode = 6921;
},
{
glyphname = "raRepa-bali";
lastChange = "2022-03-26 12:08:47 +0000";
layers = (
{
layerId = m01;
shapes = (
{
ref = "pa-bali";
},
{
closed = 1;
nodes = (
(990,-286,o),
(585,-420,o),
(585,-267,cs),
(585,-207,o),
(651,-190,o),
(724,-190,cs),
(808,-190,o),
(850,-213,o),
(882,-246,c),
(931,-197,l),
(888,-147,o),
(827,-116,o),
(726,-116,cs),
(600,-116,o),
(510,-164,o),
(510,-269,cs),
(510,-493,o),
(890,-390,o),
(890,-508,cs),
(890,-553,o),
(836,-567,o),
(738,-567,cs),
(607,-567,o),
(529,-542,o),
(494,-458,c),
(454,-476,l),
(477,-624,o),
(563,-710,o),
(739,-710,cs),
(866,-710,o),
(990,-665,o),
(990,-528,cs)
);
}
);
width = 1540;
},
{
layerId = m002;
shapes = (
{
ref = "pa-bali";
},
{
closed = 1;
nodes = (
(990,-286,o),
(585,-420,o),
(585,-267,cs),
(585,-207,o),
(651,-190,o),
(724,-190,cs),
(808,-190,o),
(850,-213,o),
(882,-246,c),
(931,-197,l),
(888,-147,o),
(827,-116,o),
(726,-116,cs),
(600,-116,o),
(510,-164,o),
(510,-269,cs),
(510,-493,o),
(890,-390,o),
(890,-508,cs),
(890,-553,o),
(836,-567,o),
(738,-567,cs),
(607,-567,o),
(529,-542,o),
(494,-458,c),
(454,-476,l),
(477,-624,o),
(563,-710,o),
(739,-710,cs),
(866,-710,o),
(990,-665,o),
(990,-528,cs)
);
}
);
width = 1540;
}
);
unicode = 6923;
},
{
glyphname = "laLengaTedung-bali";
lastChange = "2022-03-26 12:08:47 +0000";
layers = (
{
anchors = (
{
name = bottom;
pos = (987,-2014);
}
);
layerId = m01;
shapes = (
{
closed = 1;
nodes = (
(1371,-1232,o),
(260,-1224,o),
(260,-677,cs),
(260,-463,o),
(431,-367,o),
(608,-367,cs),
(902,-367,o),
(1108,-631,o),
(1429,-631,cs),
(1692,-631,o),
(1771,-454,o),
(1935,-454,cs),
(2002,-454,o),
(2062,-483,o),
(2062,-660,cs),
(2062,-862,o),
(1984,-910,o),
(1895,-910,c),
(1895,-990,l),
(1994,-990,o),
(2164,-1077,o),
(2164,-1252,cs),
(2164,-1369,o),
(2088,-1451,o),
(1962,-1451,cs),
(1839,-1451,o),
(1734,-1373,o),
(1667,-1283,c),
(1630,-1307,l),
(1684,-1498,o),
(1813,-1630,o),
(1999,-1630,cs),
(2198,-1630,o),
(2337,-1479,o),
(2337,-1292,cs),
(2337,-1024,o),
(2051,-927,o),
(1910,-927,c),
(1910,-973,l),
(2079,-973,o),
(2239,-878,o),
(2239,-652,cs),
(2239,-468,o),
(2132,-353,o),
(1944,-353,cs),
(1766,-353,o),
(1660,-457,o),
(1474,-457,cs),
(1165,-457,o),
(982,-171,o),
(633,-171,cs),
(369,-171,o),
(154,-335,o),
(154,-646,cs),
(154,-1336,o),
(1214,-1237,o),
(765,-1960,c),
(798,-2014,l)
);
},
{
closed = 1;
nodes = (
(1432,-1687,o),
(1682,-1121,o),
(1682,-477,cs),
(1682,10,l),
(1602,11,l),
(1602,-477,ls),
(1602,-1062,o),
(1368,-1618,o),
(765,-1960,c),
(798,-2014,l)
);
},
{
closed = 1;
nodes = (
(788,0,l),
(695,132,o),
(678,277,o),
(678,407,cs),
(678,667,o),
(746,770,o),
(910,770,cs),
(1032,770,o),
(1100,713,o),
(1100,571,c),
(1160,571,l),
(1160,842,o),
(1073,950,o),
(915,950,cs),
(728,950,o),
(598,798,o),
(598,416,cs),
(598,349,o),
(602,257,o),
(628,175,c),
(451,177,o),
(377,229,o),
(377,379,cs),
(377,520,o),
(443,630,o),
(443,761,cs),
(443,862,o),
(404,950,o),
(282,950,cs),
(129,950,o),
(63,812,o),
(111,518,c),
(178,528,l),
(153,713,o),
(174,784,o),
(260,784,cs),
(326,784,o),
(343,742,o),
(343,680,cs),
(343,568,o),
(288,459,o),
(288,323,cs),
(288,150,o),
(378,0,o),
(697,0,cs)
);
},
{
closed = 1;
nodes = (
(1682,0,l),
(1682,431,ls),
(1682,804,o),
(1552,950,o),
(1365,950,cs),
(1207,950,o),
(1120,842,o),
(1120,571,c),
(1180,571,l),
(1180,713,o),
(1248,770,o),
(1369,770,cs),
(1524,770,o),
(1602,676,o),
(1602,431,cs),
(1602,0,l)
);
}
);
width = 1902;
},
{
anchors = (
{
name = bottom;
pos = (987,-2014);
}
);
layerId = m002;
shapes = (
{
closed = 1;
nodes = (
(1371,-1232,o),
(260,-1224,o),
(260,-677,cs),
(260,-463,o),
(431,-367,o),
(608,-367,cs),
(902,-367,o),
(1108,-631,o),
(1429,-631,cs),
(1692,-631,o),
(1771,-454,o),
(1935,-454,cs),
(2002,-454,o),
(2062,-483,o),
(2062,-660,cs),
(2062,-862,o),
(1984,-910,o),
(1895,-910,c),
(1895,-990,l),
(1994,-990,o),
(2164,-1077,o),
(2164,-1252,cs),
(2164,-1369,o),
(2088,-1451,o),
(1962,-1451,cs),
(1839,-1451,o),
(1734,-1373,o),
(1667,-1283,c),
(1630,-1307,l),
(1684,-1498,o),
(1813,-1630,o),
(1999,-1630,cs),
(2198,-1630,o),
(2337,-1479,o),
(2337,-1292,cs),
(2337,-1024,o),
(2051,-927,o),
(1910,-927,c),
(1910,-973,l),
(2079,-973,o),
(2239,-878,o),
(2239,-652,cs),
(2239,-468,o),
(2132,-353,o),
(1944,-353,cs),
(1766,-353,o),
(1660,-457,o),
(1474,-457,cs),
(1165,-457,o),
(982,-171,o),
(633,-171,cs),
(369,-171,o),
(154,-335,o),
(154,-646,cs),
(154,-1336,o),
(1214,-1237,o),
(765,-1960,c),
(798,-2014,l)
);
},
{
closed = 1;
nodes = (
(1432,-1687,o),
(1682,-1121,o),
(1682,-477,cs),
(1682,10,l),
(1602,11,l),
(1602,-477,ls),
(1602,-1062,o),
(1368,-1618,o),
(765,-1960,c),
(798,-2014,l)
);
},
{
closed = 1;
nodes = (
(788,0,l),
(695,132,o),
(678,277,o),
(678,407,cs),
(678,667,o),
(746,770,o),
(910,770,cs),
(1032,770,o),
(1100,713,o),
(1100,571,c),
(1160,571,l),
(1160,842,o),
(1073,950,o),
(915,950,cs),
(728,950,o),
(598,798,o),
(598,416,cs),
(598,349,o),
(602,257,o),
(628,175,c),
(451,177,o),
(377,229,o),
(377,379,cs),
(377,520,o),
(443,630,o),
(443,761,cs),
(443,862,o),
(404,950,o),
(282,950,cs),
(129,950,o),
(63,812,o),
(111,518,c),
(178,528,l),
(153,713,o),
(174,784,o),
(260,784,cs),
(326,784,o),
(343,742,o),
(343,680,cs),
(343,568,o),
(288,459,o),
(288,323,cs),
(288,150,o),
(378,0,o),
(697,0,cs)
);
},
{
closed = 1;
nodes = (
(1682,0,l),
(1682,431,ls),
(1682,804,o),
(1552,950,o),
(1365,950,cs),
(1207,950,o),
(1120,842,o),
(1120,571,c),
(1180,571,l),
(1180,713,o),
(1248,770,o),
(1369,770,cs),
(1524,770,o),
(1602,676,o),
(1602,431,cs),
(1602,0,l)
);
}
);
width = 1902;
}
);
unicode = 6926;
},
{
glyphname = "ekara-bali";
lastChange = "2022-03-26 12:08:47 +0000";
layers = (
{
layerId = m01;
shapes = (
{
closed = 1;
nodes = (
(310,120,l),
(262,164,o),
(187,233,o),
(187,427,cs),
(187,720,o),
(371,881,o),
(733,881,c),
(733,961,l),
(281,961,o),
(102,711,o),
(102,430,cs),
(102,241,o),
(182,87,o),
(358,0,c),
(358,134,o),
(376,370,o),
(728,370,cs),
(976,370,o),
(1110,253,o),
(1110,1,c),
(1190,1,l),
(1190,374,o),
(1047,550,o),
(743,550,cs),
(352,550,o),
(286,267,o),
(279,103,c)
);
}
);
width = 1380;
},
{
layerId = m002;
shapes = (
{
closed = 1;
nodes = (
(310,120,l),
(262,164,o),
(187,233,o),
(187,427,cs),
(187,720,o),
(371,881,o),
(733,881,c),
(733,961,l),
(281,961,o),
(102,711,o),
(102,430,cs),
(102,241,o),
(182,87,o),
(358,0,c),
(358,134,o),
(376,370,o),
(728,370,cs),
(976,370,o),
(1110,253,o),
(1110,1,c),
(1190,1,l),
(1190,374,o),
(1047,550,o),
(743,550,cs),
(352,550,o),
(286,267,o),
(279,103,c)
);
}
);
width = 1380;
}
);
unicode = 6927;
},
{
glyphname = "aikara-bali";
lastChange = "2022-03-26 12:08:47 +0000";
layers = (
{
layerId = m01;
shapes = (
{
closed = 1;
nodes = (
(800,-2010,o),
(766,-1680,o),
(1044,-1680,cs),
(1322,-1680,o),
(1262,-2010,o),
(1599,-2010,cs),
(1930,-2010,o),
(2001,-1690,o),
(2001,-1451,cs),
(2001,1008,ls),
(2001,1310,o),
(1898,1412,o),
(1775,1412,cs),
(1676,1412,o),
(1594,1347,o),
(1594,1221,cs),
(1594,820,o),
(2421,527,o),
(2421,1293,c),
(2351,1293,l),
(2351,829,o),
(1676,989,o),
(1676,1240,cs),
(1676,1292,o),
(1705,1332,o),
(1767,1332,cs),
(1860,1332,o),
(1921,1240,o),
(1921,1045,cs),
(1921,-1443,ls),
(1921,-1601,o),
(1880,-1840,o),
(1580,-1840,cs),
(1222,-1840,o),
(1357,-1500,o),
(1056,-1500,cs),
(755,-1500,o),
(865,-1840,o),
(517,-1840,cs),
(305,-1840,o),
(179,-1713,o),
(179,-1433,cs),
(179,-464,o),
(1682,-868,o),
(1682,435,cs),
(1682,818,o),
(1552,950,o),
(1370,950,cs),
(1207,950,o),
(1120,844,o),
(1120,571,c),
(1180,571,l),
(1180,713,o),
(1248,770,o),
(1372,770,cs),
(1538,770,o),
(1602,669,o),
(1602,444,cs),
(1602,-650,o),
(91,-331,o),
(91,-1435,cs),
(91,-1778,o),
(237,-2010,o),
(494,-2010,cs)
);
},
{
closed = 1;
nodes = (
(788,0,l),
(695,132,o),
(678,277,o),
(678,407,cs),
(678,667,o),
(746,770,o),
(910,770,cs),
(1032,770,o),
(1100,713,o),
(1100,571,c),
(1160,571,l),
(1160,842,o),
(1073,950,o),
(915,950,cs),
(728,950,o),
(598,798,o),
(598,416,cs),
(598,349,o),
(602,257,o),
(628,175,c),
(451,177,o),
(377,229,o),
(377,379,cs),
(377,520,o),
(443,630,o),
(443,761,cs),
(443,862,o),
(404,950,o),
(282,950,cs),
(129,950,o),
(63,812,o),
(111,518,c),
(178,528,l),
(153,713,o),
(174,784,o),
(260,784,cs),
(326,784,o),
(343,742,o),
(343,680,cs),
(343,568,o),
(288,459,o),
(288,323,cs),
(288,150,o),
(378,0,o),
(697,0,cs)
);
}
);
width = 2410;
},
{
layerId = m002;
shapes = (
{
closed = 1;
nodes = (
(800,-2010,o),
(766,-1680,o),
(1044,-1680,cs),
(1322,-1680,o),
(1262,-2010,o),
(1599,-2010,cs),
(1930,-2010,o),
(2001,-1690,o),
(2001,-1451,cs),
(2001,1008,ls),
(2001,1310,o),
(1898,1412,o),
(1775,1412,cs),
(1676,1412,o),
(1594,1347,o),
(1594,1221,cs),
(1594,820,o),
(2421,527,o),
(2421,1293,c),
(2351,1293,l),
(2351,829,o),
(1676,989,o),
(1676,1240,cs),
(1676,1292,o),
(1705,1332,o),
(1767,1332,cs),
(1860,1332,o),
(1921,1240,o),
(1921,1045,cs),
(1921,-1443,ls),
(1921,-1601,o),
(1880,-1840,o),
(1580,-1840,cs),
(1222,-1840,o),
(1357,-1500,o),
(1056,-1500,cs),
(755,-1500,o),
(865,-1840,o),
(517,-1840,cs),
(305,-1840,o),
(179,-1713,o),
(179,-1433,cs),
(179,-464,o),
(1682,-868,o),
(1682,435,cs),
(1682,818,o),
(1552,950,o),
(1370,950,cs),
(1207,950,o),
(1120,844,o),
(1120,571,c),
(1180,571,l),
(1180,713,o),
(1248,770,o),
(1372,770,cs),
(1538,770,o),
(1602,669,o),
(1602,444,cs),
(1602,-650,o),
(91,-331,o),
(91,-1435,cs),
(91,-1778,o),
(237,-2010,o),
(494,-2010,cs)
);
},
{
closed = 1;
nodes = (
(788,0,l),
(695,132,o),
(678,277,o),
(678,407,cs),
(678,667,o),
(746,770,o),
(910,770,cs),
(1032,770,o),
(1100,713,o),
(1100,571,c),
(1160,571,l),
(1160,842,o),
(1073,950,o),
(915,950,cs),
(728,950,o),
(598,798,o),
(598,416,cs),
(598,349,o),
(602,257,o),
(628,175,c),
(451,177,o),
(377,229,o),
(377,379,cs),
(377,520,o),
(443,630,o),
(443,761,cs),
(443,862,o),
(404,950,o),
(282,950,cs),
(129,950,o),
(63,812,o),
(111,518,c),
(178,528,l),
(153,713,o),
(174,784,o),
(260,784,cs),
(326,784,o),
(343,742,o),
(343,680,cs),
(343,568,o),
(288,459,o),
(288,323,cs),
(288,150,o),
(378,0,o),
(697,0,cs)
);
}
);
width = 2410;
}
);
metricLeft = "jaJera-bali";
unicode = 6928;
},
